{"glyphs":{"0":{"ha":881,"x_min":85,"x_max":796,"o":"m 794 603 q 796 485 796 540 q 794 368 796 431 q 772 217 793 288 q 707 96 750 147 q 598 15 664 44 q 440 -14 532 -14 q 283 15 349 -14 q 174 96 217 44 q 109 217 131 147 q 86 368 88 288 q 85 485 85 431 q 86 603 85 540 q 109 753 88 683 q 174 875 131 824 q 283 956 217 926 q 440 986 349 986 q 598 956 532 986 q 707 875 664 926 q 772 753 750 824 q 794 603 793 683 m 217 368 q 276 174 219 236 q 440 111 332 111 q 605 174 549 111 q 664 368 661 236 q 665 485 665 431 q 664 603 665 540 q 605 798 661 735 q 440 861 549 861 q 276 798 332 861 q 217 603 219 735 q 215 485 215 540 q 217 368 215 431 z "},"1":{"ha":585,"x_min":29,"x_max":482,"o":"m 482 38 q 471 11 482 22 q 444 0 460 0 l 388 0 q 361 11 372 0 q 350 38 350 22 l 350 803 l 125 632 q 97 624 113 621 q 72 638 82 626 l 39 681 q 31 708 29 693 q 46 733 33 724 l 343 961 q 365 971 354 969 q 388 972 376 972 l 444 972 q 471 961 460 972 q 482 935 482 950 l 482 38 z "},"2":{"ha":808,"x_min":67,"x_max":740,"o":"m 504 511 q 567 588 546 549 q 588 689 588 626 q 544 812 588 763 q 408 861 501 861 q 326 847 360 861 q 269 809 292 833 q 233 753 246 785 q 211 689 219 722 q 197 665 207 674 q 175 657 186 657 l 111 657 q 90 666 99 657 q 81 688 81 675 q 104 792 82 739 q 168 888 126 844 q 270 958 210 931 q 408 986 331 986 q 543 963 485 986 q 640 899 601 939 q 699 804 679 858 q 719 689 719 750 q 713 608 719 644 q 690 540 706 572 q 649 476 674 507 q 588 414 624 446 l 278 125 l 703 125 q 729 114 718 125 q 740 88 740 103 l 740 38 q 729 11 740 22 q 703 0 718 0 l 104 0 q 78 11 89 0 q 67 38 67 22 l 67 88 q 74 114 67 103 q 97 140 81 125 l 504 511 z "},"3":{"ha":826,"x_min":57,"x_max":763,"o":"m 188 235 q 207 190 194 213 q 244 151 219 168 q 310 122 269 133 q 417 111 351 111 q 499 122 460 111 q 567 154 538 132 q 613 209 596 176 q 631 288 631 242 q 614 363 631 332 q 569 413 597 394 q 501 440 540 432 q 417 449 463 449 l 301 449 q 275 460 286 449 q 264 486 264 471 l 264 536 q 272 559 264 549 q 286 578 279 569 l 536 847 l 136 847 q 110 858 121 847 q 99 885 99 869 l 99 935 q 110 961 99 950 q 136 972 121 972 l 683 972 q 710 961 699 972 q 721 935 721 950 l 721 885 q 714 860 721 872 q 696 838 707 849 l 450 572 q 577 551 519 571 q 676 494 635 531 q 740 405 717 457 q 763 288 763 353 q 735 160 763 217 q 660 66 707 104 q 551 7 614 28 q 417 -14 488 -14 q 256 8 324 -14 q 145 65 189 29 q 80 144 101 100 q 57 233 58 188 q 66 255 57 246 q 88 264 75 264 l 151 264 q 176 255 167 264 q 188 235 185 246 z "},"4":{"ha":847,"x_min":40,"x_max":803,"o":"m 551 0 q 525 11 536 0 q 514 38 514 22 l 514 229 l 78 229 q 51 240 63 229 q 40 267 40 251 l 40 317 q 45 340 40 326 q 60 364 50 353 l 499 939 q 523 963 510 954 q 553 972 536 972 l 608 972 q 635 961 624 972 q 646 935 646 950 l 646 354 l 765 354 q 792 343 781 354 q 803 317 803 332 l 803 267 q 792 240 803 251 q 765 229 781 229 l 646 229 l 646 38 q 635 11 646 22 q 608 0 624 0 l 551 0 m 514 354 l 514 746 l 213 354 l 514 354 z "},"5":{"ha":825,"x_min":60,"x_max":764,"o":"m 190 253 q 269 149 208 188 q 411 111 331 111 q 497 124 457 111 q 567 161 538 136 q 615 224 597 186 q 632 313 632 263 q 615 401 632 363 q 567 464 597 439 q 497 501 538 489 q 411 514 457 514 q 327 502 358 514 q 276 477 296 490 q 240 452 256 464 q 203 440 224 440 l 132 440 q 110 449 119 440 q 101 471 101 458 l 143 935 q 154 961 143 950 q 181 972 165 972 l 671 972 q 697 961 686 972 q 708 935 708 950 l 708 885 q 697 858 708 869 q 671 847 686 847 l 267 847 l 244 607 q 309 628 268 618 q 411 639 350 639 q 548 617 483 639 q 660 552 613 594 q 736 449 708 510 q 764 313 764 389 q 736 176 764 236 q 660 73 708 115 q 548 8 613 31 q 411 -14 483 -14 q 278 6 342 -14 q 167 60 215 25 q 90 145 119 96 q 60 253 61 194 q 69 274 60 265 q 90 283 78 283 l 154 283 q 176 276 165 283 q 190 253 186 268 z "},"6":{"ha":831,"x_min":63,"x_max":782,"o":"m 372 649 q 397 653 382 651 q 422 656 411 656 q 566 630 500 656 q 680 559 632 604 q 755 453 728 514 q 782 321 782 392 q 755 189 782 250 q 680 83 728 128 q 566 12 632 38 q 422 -14 500 -14 q 278 12 344 -14 q 165 83 213 38 q 90 189 117 128 q 63 321 63 250 q 72 396 63 361 q 95 461 81 431 q 128 519 110 492 q 164 572 146 547 l 417 944 q 432 962 424 951 q 460 972 440 972 l 539 972 q 559 963 551 972 q 567 942 567 954 q 565 931 567 935 q 560 924 563 926 l 372 649 m 194 321 q 210 242 194 279 q 256 175 226 204 q 327 128 285 146 q 422 111 369 111 q 517 128 475 111 q 589 175 560 146 q 634 242 618 204 q 650 321 650 279 q 634 400 650 363 q 589 467 618 438 q 517 513 560 496 q 422 531 475 531 q 327 513 369 531 q 256 467 285 496 q 210 400 226 438 q 194 321 194 363 z "},"7":{"ha":715,"x_min":38,"x_max":678,"o":"m 640 972 q 667 961 656 972 q 678 935 678 950 l 678 885 q 674 858 678 872 q 663 829 669 844 l 354 33 q 340 10 349 21 q 314 0 331 0 l 250 0 q 226 10 236 0 q 217 33 217 19 q 217 40 217 36 q 221 50 218 43 l 531 847 l 75 847 q 49 858 60 847 q 38 885 38 869 l 38 935 q 49 961 38 950 q 75 972 60 972 l 640 972 z "},"8":{"ha":847,"x_min":75,"x_max":772,"o":"m 75 276 q 110 408 75 347 q 210 508 146 468 q 130 599 158 546 q 101 714 101 651 q 126 819 101 769 q 193 906 150 869 q 295 965 236 943 q 424 986 354 986 q 552 965 493 986 q 655 906 611 943 q 723 819 699 869 q 747 714 747 769 q 717 599 747 651 q 638 508 688 546 q 736 408 700 468 q 772 276 772 347 q 747 164 772 217 q 674 72 721 111 q 564 9 628 32 q 424 -14 500 -14 q 283 9 347 -14 q 173 72 219 32 q 101 164 126 111 q 75 276 75 217 m 207 276 q 223 212 207 242 q 267 160 239 182 q 335 124 296 138 q 424 111 375 111 q 511 124 471 111 q 580 160 551 138 q 624 212 608 182 q 640 276 640 242 q 624 341 640 311 q 580 393 608 371 q 511 428 551 415 q 424 442 471 442 q 335 428 375 442 q 267 393 296 415 q 223 341 239 371 q 207 276 207 311 m 233 714 q 248 656 233 683 q 288 610 263 629 q 349 578 314 590 q 424 567 383 567 q 499 578 464 567 q 560 610 535 590 q 601 656 586 629 q 615 714 615 683 q 601 772 615 744 q 560 818 586 799 q 499 849 535 838 q 424 861 464 861 q 349 849 383 861 q 288 818 314 838 q 248 772 263 799 q 233 714 233 744 z "},"9":{"ha":804,"x_min":50,"x_max":747,"o":"m 436 333 q 417 331 429 332 q 399 331 404 331 q 269 352 332 331 q 158 415 207 374 q 80 518 110 457 q 50 658 50 579 q 78 789 50 729 q 153 892 106 849 q 265 961 201 936 q 399 986 328 986 q 544 961 479 986 q 653 892 608 936 q 723 789 699 849 q 747 658 747 729 q 736 588 747 624 q 708 519 725 553 q 672 456 692 486 q 636 400 653 425 l 383 28 q 368 10 376 21 q 340 0 360 0 l 261 0 q 241 9 249 0 q 233 31 233 18 q 235 42 233 38 q 240 49 238 46 l 436 333 m 615 658 q 599 739 615 701 q 555 803 583 776 q 486 846 526 831 q 399 861 446 861 q 310 846 350 861 q 242 803 271 831 q 198 739 214 776 q 182 658 182 701 q 198 577 182 614 q 242 513 214 540 q 310 471 271 486 q 399 456 350 456 q 486 471 446 456 q 555 513 526 486 q 599 577 583 540 q 615 658 615 614 z "},"\u0000":{"ha":0,"x_min":0,"x_max":0,"o":""},"\r":{"ha":403,"x_min":0,"x_max":0,"o":""}," ":{"ha":339,"x_min":0,"x_max":0,"o":""},"¸":{"ha":432,"x_min":89,"x_max":343,"o":"m 243 38 l 189 -78 q 238 -67 207 -67 q 313 -100 283 -67 q 343 -183 343 -133 q 311 -269 343 -233 q 206 -306 279 -306 q 158 -298 181 -306 q 118 -279 135 -290 q 95 -256 101 -268 q 99 -235 89 -244 l 118 -217 q 137 -208 129 -207 q 153 -216 144 -210 q 174 -228 163 -222 q 206 -235 186 -235 q 265 -186 265 -235 q 206 -137 265 -137 q 178 -141 189 -137 q 159 -147 167 -144 q 145 -149 151 -150 q 131 -140 139 -149 l 107 -115 q 103 -96 100 -107 q 110 -74 106 -85 l 158 38 l 243 38 z "},"ˆ":{"ha":594,"x_min":97,"x_max":497,"o":"m 311 1021 q 338 1015 326 1021 q 363 994 349 1010 l 490 867 q 497 849 497 860 q 475 826 497 826 l 446 826 q 424 830 432 826 q 403 842 415 833 l 297 913 l 192 842 q 171 830 179 833 q 149 826 163 826 l 119 826 q 97 849 97 826 q 104 867 97 860 l 232 994 q 257 1015 246 1010 q 283 1021 268 1021 l 311 1021 z "},"":{"ha":379,"x_min":93,"x_max":285,"o":"m 122 -124 q 140 -87 125 -104 q 182 -69 154 -69 l 254 -69 q 276 -78 267 -69 q 285 -100 285 -87 q 283 -110 285 -106 l 208 -303 q 190 -332 203 -317 q 149 -347 176 -347 l 124 -347 q 102 -338 111 -347 q 93 -317 93 -329 l 93 -314 l 122 -124 z "},"¨":{"ha":586,"x_min":90,"x_max":496,"o":"m 244 871 q 233 844 244 856 q 207 833 222 833 l 128 833 q 101 844 113 833 q 90 871 90 856 l 90 950 q 101 976 90 965 q 128 988 113 988 l 207 988 q 233 976 222 988 q 244 950 244 965 l 244 871 m 496 871 q 485 844 496 856 q 458 833 474 833 l 379 833 q 353 844 364 833 q 342 871 342 856 l 342 950 q 353 976 342 965 q 379 988 364 988 l 458 988 q 485 976 474 988 q 496 950 496 965 l 496 871 z "},"˙":{"ha":335,"x_min":89,"x_max":243,"o":"m 243 871 q 232 844 243 856 q 206 833 221 833 l 126 833 q 100 844 111 833 q 89 871 89 856 l 89 950 q 100 976 89 965 q 126 988 111 988 l 206 988 q 232 976 221 988 q 243 950 243 965 l 243 871 z "},"˝":{"ha":664,"x_min":90,"x_max":574,"o":"m 153 994 q 171 1015 160 1008 q 204 1021 182 1021 l 300 1021 q 328 994 328 1021 q 319 976 328 985 l 199 846 q 151 826 182 826 l 113 826 q 90 849 90 826 q 92 860 90 854 q 97 869 94 865 l 153 994 m 399 994 q 417 1015 406 1008 q 450 1021 428 1021 l 546 1021 q 574 994 574 1021 q 565 976 574 985 l 444 846 q 397 826 428 826 l 358 826 q 336 849 336 826 q 338 860 336 854 q 343 869 340 865 l 399 994 z "},"`":{"ha":460,"x_min":90,"x_max":383,"o":"m 376 867 q 383 849 383 860 q 361 826 383 826 l 310 826 q 275 833 288 826 q 251 850 263 840 l 97 976 q 90 993 90 983 q 117 1021 90 1021 l 219 1021 q 245 1017 235 1021 q 271 994 256 1013 l 376 867 z "},"¯":{"ha":560,"x_min":90,"x_max":469,"o":"m 128 840 q 101 851 113 840 q 90 878 90 863 l 90 922 q 101 949 90 938 q 128 960 113 960 l 432 960 q 458 949 447 960 q 469 922 469 938 l 469 878 q 458 851 469 863 q 432 840 447 840 l 128 840 z "},"˛":{"ha":436,"x_min":90,"x_max":346,"o":"m 289 -306 q 210 -292 247 -306 q 147 -253 174 -279 q 106 -190 121 -228 q 90 -103 90 -153 q 106 -15 90 -53 q 147 48 121 22 q 210 87 174 74 q 289 100 247 100 l 315 100 q 346 69 346 100 l 346 31 q 315 0 346 0 l 294 0 q 203 -103 203 0 q 294 -206 203 -206 l 315 -206 q 346 -236 346 -206 l 346 -275 q 315 -306 346 -306 l 289 -306 z "},"˚":{"ha":417,"x_min":90,"x_max":326,"o":"m 167 931 q 178 901 167 913 q 208 889 190 889 q 238 901 226 889 q 250 931 250 913 q 238 960 250 949 q 208 972 226 972 q 178 960 190 972 q 167 931 167 949 m 90 931 q 125 1010 90 979 q 208 1042 160 1042 q 292 1010 257 1042 q 326 931 326 979 q 292 851 326 882 q 208 819 257 819 q 125 851 160 819 q 90 931 90 882 z "},"˜":{"ha":588,"x_min":90,"x_max":497,"o":"m 378 819 q 326 826 347 819 q 289 842 306 833 q 258 857 272 850 q 228 864 244 864 q 204 858 211 864 q 193 845 197 853 q 184 832 189 838 q 168 826 179 826 l 117 826 q 97 834 104 826 q 90 853 90 842 q 97 891 90 868 q 117 935 103 914 q 155 971 132 956 q 210 986 178 986 q 261 979 240 986 q 297 964 282 972 q 327 949 313 956 q 360 942 342 942 q 383 947 376 942 q 394 960 390 953 q 403 974 399 968 q 419 979 408 979 l 471 979 q 490 972 483 979 q 497 953 497 964 q 491 915 497 938 q 470 871 485 892 q 433 835 456 850 q 378 819 410 819 z "},"":{"ha":467,"x_min":76,"x_max":376,"o":"m 189 1210 q 215 1232 204 1228 q 240 1236 225 1236 l 350 1236 q 376 1208 376 1236 q 369 1192 376 1199 l 215 1065 q 192 1049 204 1056 q 157 1042 179 1042 l 99 1042 q 76 1064 76 1042 q 83 1082 76 1075 l 189 1210 z "},"":{"ha":594,"x_min":90,"x_max":504,"o":"m 276 1042 q 250 1047 261 1042 q 225 1068 239 1053 l 97 1196 q 90 1214 90 1203 q 113 1236 90 1236 l 149 1236 q 171 1233 163 1236 q 192 1221 179 1229 l 297 1150 l 403 1221 q 424 1233 415 1229 q 446 1236 432 1236 l 482 1236 q 504 1214 504 1236 q 497 1196 504 1203 l 369 1068 q 344 1047 356 1053 q 318 1042 333 1042 l 276 1042 z "},"":{"ha":628,"x_min":90,"x_max":538,"o":"m 244 1079 q 233 1053 244 1064 q 207 1042 222 1042 l 128 1042 q 101 1053 113 1042 q 90 1079 90 1064 l 90 1158 q 101 1185 90 1174 q 128 1196 113 1196 l 207 1196 q 233 1185 222 1196 q 244 1158 244 1174 l 244 1079 m 538 1079 q 526 1053 538 1064 q 500 1042 515 1042 l 421 1042 q 394 1053 406 1042 q 383 1079 383 1064 l 383 1158 q 394 1185 383 1174 q 421 1196 406 1196 l 500 1196 q 526 1185 515 1196 q 538 1158 538 1174 l 538 1079 z "},"":{"ha":678,"x_min":90,"x_max":588,"o":"m 153 1210 q 171 1230 160 1224 q 204 1236 182 1236 l 307 1236 q 335 1210 335 1236 q 326 1192 335 1200 l 206 1061 q 158 1042 189 1042 l 113 1042 q 90 1064 90 1042 q 92 1075 90 1069 q 97 1085 94 1081 l 153 1210 m 406 1210 q 424 1230 413 1224 q 457 1236 435 1236 l 560 1236 q 588 1210 588 1236 q 579 1192 588 1200 l 458 1061 q 411 1042 442 1042 l 365 1042 q 343 1064 343 1042 q 345 1075 343 1069 q 350 1085 347 1081 l 406 1210 z "},"":{"ha":467,"x_min":76,"x_max":376,"o":"m 369 1082 q 376 1064 376 1075 q 354 1042 376 1042 l 296 1042 q 261 1049 274 1042 q 238 1065 249 1056 l 83 1192 q 76 1208 76 1199 q 103 1236 76 1236 l 213 1236 q 238 1232 228 1236 q 264 1210 249 1228 l 369 1082 z "},"":{"ha":574,"x_min":90,"x_max":483,"o":"m 128 1042 q 101 1053 113 1042 q 90 1079 90 1064 l 90 1129 q 101 1156 90 1144 q 128 1167 113 1167 l 446 1167 q 472 1156 461 1167 q 483 1129 483 1144 l 483 1079 q 472 1053 483 1064 q 446 1042 461 1042 l 128 1042 z "},"A":{"ha":944,"x_min":22,"x_max":921,"o":"m 713 219 l 231 219 l 158 35 q 143 12 154 24 q 104 0 132 0 l 53 0 q 31 9 40 0 q 22 31 22 18 q 28 50 22 38 l 368 926 q 389 957 375 942 q 431 972 403 972 l 514 972 q 556 957 542 972 q 576 926 569 942 l 915 50 q 921 31 921 38 q 912 9 921 18 q 890 0 903 0 l 839 0 q 800 12 811 0 q 785 35 789 24 l 713 219 m 279 344 l 664 344 l 472 840 l 279 344 z "},"Á":{"ha":944,"x_min":22,"x_max":921,"o":"m 713 219 l 231 219 l 158 35 q 143 12 154 24 q 104 0 132 0 l 53 0 q 31 9 40 0 q 22 31 22 18 q 28 50 22 38 l 368 926 q 389 957 375 942 q 431 972 403 972 l 514 972 q 556 957 542 972 q 576 926 569 942 l 915 50 q 921 31 921 38 q 912 9 921 18 q 890 0 903 0 l 839 0 q 800 12 811 0 q 785 35 789 24 l 713 219 m 279 344 l 664 344 l 472 840 l 279 344 m 517 1210 q 542 1232 532 1228 q 568 1236 553 1236 l 678 1236 q 704 1208 704 1236 q 697 1192 704 1199 l 543 1065 q 519 1049 532 1056 q 485 1042 507 1042 l 426 1042 q 404 1064 404 1042 q 411 1082 404 1075 l 517 1210 z "},"Ă":{"ha":944,"x_min":22,"x_max":921,"o":"m 713 219 l 231 219 l 158 35 q 143 12 154 24 q 104 0 132 0 l 53 0 q 31 9 40 0 q 22 31 22 18 q 28 50 22 38 l 368 926 q 389 957 375 942 q 431 972 403 972 l 514 972 q 556 957 542 972 q 576 926 569 942 l 915 50 q 921 31 921 38 q 912 9 921 18 q 890 0 903 0 l 839 0 q 800 12 811 0 q 785 35 789 24 l 713 219 m 279 344 l 664 344 l 472 840 l 279 344 m 472 1035 q 391 1050 425 1035 q 335 1090 357 1065 q 303 1147 314 1115 q 293 1210 293 1178 q 300 1228 293 1221 q 319 1236 307 1236 l 364 1236 q 383 1228 376 1236 q 390 1210 390 1221 q 413 1150 390 1174 q 472 1126 435 1126 q 532 1150 510 1126 q 554 1210 554 1174 q 561 1228 554 1221 q 581 1236 568 1236 l 625 1236 q 644 1228 638 1236 q 651 1210 651 1221 q 641 1147 651 1178 q 609 1090 631 1115 q 553 1050 588 1065 q 472 1035 519 1035 z "},"Â":{"ha":944,"x_min":22,"x_max":921,"o":"m 713 219 l 231 219 l 158 35 q 143 12 154 24 q 104 0 132 0 l 53 0 q 31 9 40 0 q 22 31 22 18 q 28 50 22 38 l 368 926 q 389 957 375 942 q 431 972 403 972 l 514 972 q 556 957 542 972 q 576 926 569 942 l 915 50 q 921 31 921 38 q 912 9 921 18 q 890 0 903 0 l 839 0 q 800 12 811 0 q 785 35 789 24 l 713 219 m 279 344 l 664 344 l 472 840 l 279 344 m 493 1236 q 519 1231 508 1236 q 544 1210 531 1225 l 672 1082 q 679 1064 679 1075 q 657 1042 679 1042 l 621 1042 q 599 1045 607 1042 q 578 1057 590 1049 l 472 1128 l 367 1057 q 346 1045 354 1049 q 324 1042 338 1042 l 288 1042 q 265 1064 265 1042 q 272 1082 265 1075 l 400 1210 q 425 1231 414 1225 q 451 1236 436 1236 l 493 1236 z "},"À":{"ha":944,"x_min":22,"x_max":921,"o":"m 713 219 l 231 219 l 158 35 q 143 12 154 24 q 104 0 132 0 l 53 0 q 31 9 40 0 q 22 31 22 18 q 28 50 22 38 l 368 926 q 389 957 375 942 q 431 972 403 972 l 514 972 q 556 957 542 972 q 576 926 569 942 l 915 50 q 921 31 921 38 q 912 9 921 18 q 890 0 903 0 l 839 0 q 800 12 811 0 q 785 35 789 24 l 713 219 m 279 344 l 664 344 l 472 840 l 279 344 m 531 1082 q 538 1064 538 1075 q 515 1042 538 1042 l 457 1042 q 422 1049 435 1042 q 399 1065 410 1056 l 244 1192 q 238 1208 238 1199 q 264 1236 238 1236 l 374 1236 q 399 1232 389 1236 q 425 1210 410 1228 l 531 1082 z "},"Ä":{"ha":944,"x_min":22,"x_max":921,"o":"m 713 219 l 231 219 l 158 35 q 143 12 154 24 q 104 0 132 0 l 53 0 q 31 9 40 0 q 22 31 22 18 q 28 50 22 38 l 368 926 q 389 957 375 942 q 431 972 403 972 l 514 972 q 556 957 542 972 q 576 926 569 942 l 915 50 q 921 31 921 38 q 912 9 921 18 q 890 0 903 0 l 839 0 q 800 12 811 0 q 785 35 789 24 l 713 219 m 279 344 l 664 344 l 472 840 l 279 344 m 403 1079 q 392 1053 403 1064 q 365 1042 381 1042 l 286 1042 q 260 1053 271 1042 q 249 1079 249 1064 l 249 1158 q 260 1185 249 1174 q 286 1196 271 1196 l 365 1196 q 392 1185 381 1196 q 403 1158 403 1174 l 403 1079 m 696 1079 q 685 1053 696 1064 q 658 1042 674 1042 l 579 1042 q 553 1053 564 1042 q 542 1079 542 1064 l 542 1158 q 553 1185 542 1174 q 579 1196 564 1196 l 658 1196 q 685 1185 674 1196 q 696 1158 696 1174 l 696 1079 z "},"Ā":{"ha":944,"x_min":22,"x_max":921,"o":"m 713 219 l 231 219 l 158 35 q 143 12 154 24 q 104 0 132 0 l 53 0 q 31 9 40 0 q 22 31 22 18 q 28 50 22 38 l 368 926 q 389 957 375 942 q 431 972 403 972 l 514 972 q 556 957 542 972 q 576 926 569 942 l 915 50 q 921 31 921 38 q 912 9 921 18 q 890 0 903 0 l 839 0 q 800 12 811 0 q 785 35 789 24 l 713 219 m 279 344 l 664 344 l 472 840 l 279 344 m 314 1042 q 288 1053 299 1042 q 276 1079 276 1064 l 276 1129 q 288 1156 276 1144 q 314 1167 299 1167 l 632 1167 q 658 1156 647 1167 q 669 1129 669 1144 l 669 1079 q 658 1053 669 1064 q 632 1042 647 1042 l 314 1042 z "},"Ą":{"ha":944,"x_min":22,"x_max":921,"o":"m 846 -306 q 767 -292 804 -306 q 704 -253 731 -279 q 663 -190 678 -228 q 647 -103 647 -153 q 679 19 647 -28 q 764 86 711 65 l 713 219 l 231 219 l 158 35 q 143 12 154 24 q 104 0 132 0 l 53 0 q 31 9 40 0 q 22 31 22 18 q 28 50 22 38 l 368 926 q 389 957 375 942 q 431 972 403 972 l 514 972 q 556 957 542 972 q 576 926 569 942 l 915 50 q 921 31 921 38 q 912 9 921 18 q 890 0 903 0 l 851 0 q 760 -103 760 0 q 851 -206 760 -206 l 872 -206 q 903 -236 903 -206 l 903 -275 q 872 -306 903 -306 l 846 -306 m 279 344 l 664 344 l 472 840 l 279 344 z "},"Å":{"ha":944,"x_min":22,"x_max":921,"o":"m 713 219 l 231 219 l 158 35 q 143 12 154 24 q 104 0 132 0 l 53 0 q 31 9 40 0 q 22 31 22 18 q 28 50 22 38 l 368 926 q 389 957 375 942 q 431 972 403 972 l 514 972 q 556 957 542 972 q 576 926 569 942 l 915 50 q 921 31 921 38 q 912 9 921 18 q 890 0 903 0 l 839 0 q 800 12 811 0 q 785 35 789 24 l 713 219 m 279 344 l 664 344 l 472 840 l 279 344 m 431 1139 q 442 1109 431 1121 q 472 1097 454 1097 q 502 1109 490 1097 q 514 1139 514 1121 q 502 1169 514 1157 q 472 1181 490 1181 q 442 1169 454 1181 q 431 1139 431 1157 m 354 1139 q 389 1219 354 1188 q 472 1250 424 1250 q 556 1219 521 1250 q 590 1139 590 1188 q 556 1059 590 1090 q 472 1028 521 1028 q 389 1059 424 1028 q 354 1139 354 1090 z "},"Ã":{"ha":944,"x_min":22,"x_max":921,"o":"m 713 219 l 231 219 l 158 35 q 143 12 154 24 q 104 0 132 0 l 53 0 q 31 9 40 0 q 22 31 22 18 q 28 50 22 38 l 368 926 q 389 957 375 942 q 431 972 403 972 l 514 972 q 556 957 542 972 q 576 926 569 942 l 915 50 q 921 31 921 38 q 912 9 921 18 q 890 0 903 0 l 839 0 q 800 12 811 0 q 785 35 789 24 l 713 219 m 279 344 l 664 344 l 472 840 l 279 344 m 561 1035 q 508 1042 529 1035 q 469 1057 486 1049 q 436 1072 451 1065 q 403 1079 421 1079 q 379 1074 386 1079 q 368 1060 372 1068 q 359 1047 364 1053 q 343 1042 354 1042 l 292 1042 q 272 1049 279 1042 q 265 1068 265 1057 q 272 1106 265 1083 q 292 1150 278 1129 q 330 1186 307 1171 q 385 1201 353 1201 q 438 1194 417 1201 q 476 1179 460 1188 q 508 1164 493 1171 q 543 1157 524 1157 q 567 1163 560 1157 q 578 1176 574 1168 q 587 1189 582 1183 q 603 1194 592 1194 l 654 1194 q 674 1187 667 1194 q 681 1168 681 1179 q 674 1130 681 1153 q 653 1086 668 1107 q 616 1050 639 1065 q 561 1035 593 1035 z "},"Æ":{"ha":1332,"x_min":1,"x_max":1265,"o":"m 1228 125 q 1254 114 1243 125 q 1265 88 1265 103 l 1265 38 q 1254 11 1265 22 q 1228 0 1243 0 l 667 0 q 640 11 651 0 q 629 38 629 22 l 629 219 l 257 219 l 149 35 q 130 12 142 24 q 94 0 118 0 l 32 0 q 10 9 19 0 q 1 31 1 18 q 7 47 1 38 l 526 926 q 548 957 535 942 q 589 972 561 972 l 1217 972 q 1243 961 1232 972 q 1254 935 1254 950 l 1254 885 q 1243 858 1254 869 q 1217 847 1232 847 l 761 847 l 761 554 l 1186 554 q 1213 543 1201 554 q 1224 517 1224 532 l 1224 467 q 1213 440 1224 451 q 1186 429 1201 429 l 761 429 l 761 125 l 1228 125 m 629 344 l 629 847 l 332 344 l 629 344 z "},"Ǽ":{"ha":1332,"x_min":1,"x_max":1265,"o":"m 1228 125 q 1254 114 1243 125 q 1265 88 1265 103 l 1265 38 q 1254 11 1265 22 q 1228 0 1243 0 l 667 0 q 640 11 651 0 q 629 38 629 22 l 629 219 l 257 219 l 149 35 q 130 12 142 24 q 94 0 118 0 l 32 0 q 10 9 19 0 q 1 31 1 18 q 7 47 1 38 l 526 926 q 548 957 535 942 q 589 972 561 972 l 1217 972 q 1243 961 1232 972 q 1254 935 1254 950 l 1254 885 q 1243 858 1254 869 q 1217 847 1232 847 l 761 847 l 761 554 l 1186 554 q 1213 543 1201 554 q 1224 517 1224 532 l 1224 467 q 1213 440 1224 451 q 1186 429 1201 429 l 761 429 l 761 125 l 1228 125 m 629 344 l 629 847 l 332 344 l 629 344 m 733 1210 q 759 1232 749 1228 q 785 1236 769 1236 l 894 1236 q 921 1208 921 1236 q 914 1192 921 1199 l 760 1065 q 736 1049 749 1056 q 701 1042 724 1042 l 643 1042 q 621 1064 621 1042 q 628 1082 621 1075 l 733 1210 z "},"B":{"ha":926,"x_min":119,"x_max":854,"o":"m 251 442 l 251 125 l 535 125 q 616 138 581 125 q 675 172 651 150 q 710 222 699 194 q 722 282 722 250 q 711 342 722 313 q 677 393 700 371 q 619 428 654 415 q 535 442 583 442 l 251 442 m 251 847 l 251 567 l 515 567 q 655 603 608 567 q 701 707 701 639 q 655 811 701 775 q 515 847 608 847 l 251 847 m 157 0 q 131 11 142 0 q 119 38 119 22 l 119 935 q 131 961 119 950 q 157 972 142 972 l 529 972 q 676 945 618 972 q 769 878 735 918 q 819 793 804 839 q 833 711 833 747 q 819 631 833 665 q 787 572 806 596 q 749 535 768 549 q 722 515 731 521 q 815 420 775 479 q 854 282 854 361 q 835 179 854 229 q 777 89 815 129 q 681 24 739 49 q 549 0 624 0 l 157 0 z "},"C":{"ha":926,"x_min":79,"x_max":864,"o":"m 215 603 q 213 486 213 540 q 215 369 213 432 q 285 183 219 254 q 475 111 351 111 q 588 128 542 111 q 663 171 633 144 q 709 231 693 197 q 733 300 725 265 q 747 323 736 315 q 769 331 758 331 l 833 331 q 855 322 846 331 q 864 300 864 313 q 840 200 863 254 q 772 98 818 146 q 652 18 725 50 q 475 -14 579 -14 q 314 15 385 -14 q 192 93 243 43 q 114 212 142 143 q 83 363 86 281 q 83 610 79 486 q 114 760 86 690 q 192 879 142 829 q 314 958 243 929 q 475 986 385 986 q 652 954 579 986 q 772 874 725 922 q 840 772 818 826 q 864 672 863 718 q 855 651 864 660 q 833 642 846 642 l 769 642 q 747 649 758 642 q 733 672 736 657 q 709 741 725 707 q 663 801 693 775 q 588 844 633 828 q 475 861 542 861 q 285 790 351 861 q 215 603 219 718 z "},"Ć":{"ha":926,"x_min":79,"x_max":864,"o":"m 215 603 q 213 486 213 540 q 215 369 213 432 q 285 183 219 254 q 475 111 351 111 q 588 128 542 111 q 663 171 633 144 q 709 231 693 197 q 733 300 725 265 q 747 323 736 315 q 769 331 758 331 l 833 331 q 855 322 846 331 q 864 300 864 313 q 840 200 863 254 q 772 98 818 146 q 652 18 725 50 q 475 -14 579 -14 q 314 15 385 -14 q 192 93 243 43 q 114 212 142 143 q 83 363 86 281 q 83 610 79 486 q 114 760 86 690 q 192 879 142 829 q 314 958 243 929 q 475 986 385 986 q 652 954 579 986 q 772 874 725 922 q 840 772 818 826 q 864 672 863 718 q 855 651 864 660 q 833 642 846 642 l 769 642 q 747 649 758 642 q 733 672 736 657 q 709 741 725 707 q 663 801 693 775 q 588 844 633 828 q 475 861 542 861 q 285 790 351 861 q 215 603 219 718 m 508 1210 q 534 1232 524 1228 q 560 1236 544 1236 l 669 1236 q 696 1208 696 1236 q 689 1192 696 1199 l 535 1065 q 511 1049 524 1056 q 476 1042 499 1042 l 418 1042 q 396 1064 396 1042 q 403 1082 396 1075 l 508 1210 z "},"Č":{"ha":926,"x_min":79,"x_max":864,"o":"m 215 603 q 213 486 213 540 q 215 369 213 432 q 285 183 219 254 q 475 111 351 111 q 588 128 542 111 q 663 171 633 144 q 709 231 693 197 q 733 300 725 265 q 747 323 736 315 q 769 331 758 331 l 833 331 q 855 322 846 331 q 864 300 864 313 q 840 200 863 254 q 772 98 818 146 q 652 18 725 50 q 475 -14 579 -14 q 314 15 385 -14 q 192 93 243 43 q 114 212 142 143 q 83 363 86 281 q 83 610 79 486 q 114 760 86 690 q 192 879 142 829 q 314 958 243 929 q 475 986 385 986 q 652 954 579 986 q 772 874 725 922 q 840 772 818 826 q 864 672 863 718 q 855 651 864 660 q 833 642 846 642 l 769 642 q 747 649 758 642 q 733 672 736 657 q 709 741 725 707 q 663 801 693 775 q 588 844 633 828 q 475 861 542 861 q 285 790 351 861 q 215 603 219 718 m 451 1042 q 425 1047 436 1042 q 400 1068 414 1053 l 272 1196 q 265 1214 265 1203 q 288 1236 265 1236 l 324 1236 q 346 1233 338 1236 q 367 1221 354 1229 l 472 1150 l 578 1221 q 599 1233 590 1229 q 621 1236 607 1236 l 657 1236 q 679 1214 679 1236 q 672 1196 679 1203 l 544 1068 q 519 1047 531 1053 q 493 1042 508 1042 l 451 1042 z "},"Ç":{"ha":926,"x_min":79,"x_max":864,"o":"m 215 603 q 213 486 213 540 q 215 369 213 432 q 285 183 219 254 q 475 111 351 111 q 588 128 542 111 q 663 171 633 144 q 709 231 693 197 q 733 300 725 265 q 747 323 736 315 q 769 331 758 331 l 833 331 q 855 322 846 331 q 864 300 864 313 q 841 201 863 256 q 774 100 819 147 q 656 20 728 53 q 482 -14 583 -12 l 453 -78 q 501 -67 471 -67 q 577 -100 547 -67 q 607 -183 607 -133 q 575 -269 607 -233 q 469 -306 543 -306 q 422 -298 444 -306 q 382 -279 399 -290 q 359 -256 365 -268 q 363 -235 353 -244 l 382 -217 q 401 -208 393 -207 q 417 -216 408 -210 q 438 -228 426 -222 q 469 -235 450 -235 q 529 -186 529 -235 q 469 -137 529 -137 q 442 -141 453 -137 q 423 -147 431 -144 q 409 -149 415 -150 q 394 -140 403 -149 l 371 -115 q 367 -96 364 -107 q 374 -74 369 -85 l 401 -8 q 270 35 328 3 q 172 115 213 67 q 108 226 131 164 q 83 363 85 289 q 83 610 79 486 q 114 760 86 690 q 192 879 142 829 q 314 958 243 929 q 475 986 385 986 q 652 954 579 986 q 772 874 725 922 q 840 772 818 826 q 864 672 863 718 q 855 651 864 660 q 833 642 846 642 l 769 642 q 747 649 758 642 q 733 672 736 657 q 709 741 725 707 q 663 801 693 775 q 588 844 633 828 q 475 861 542 861 q 285 790 351 861 q 215 603 219 718 z "},"Ĉ":{"ha":926,"x_min":79,"x_max":864,"o":"m 215 603 q 213 486 213 540 q 215 369 213 432 q 285 183 219 254 q 475 111 351 111 q 588 128 542 111 q 663 171 633 144 q 709 231 693 197 q 733 300 725 265 q 747 323 736 315 q 769 331 758 331 l 833 331 q 855 322 846 331 q 864 300 864 313 q 840 200 863 254 q 772 98 818 146 q 652 18 725 50 q 475 -14 579 -14 q 314 15 385 -14 q 192 93 243 43 q 114 212 142 143 q 83 363 86 281 q 83 610 79 486 q 114 760 86 690 q 192 879 142 829 q 314 958 243 929 q 475 986 385 986 q 652 954 579 986 q 772 874 725 922 q 840 772 818 826 q 864 672 863 718 q 855 651 864 660 q 833 642 846 642 l 769 642 q 747 649 758 642 q 733 672 736 657 q 709 741 725 707 q 663 801 693 775 q 588 844 633 828 q 475 861 542 861 q 285 790 351 861 q 215 603 219 718 m 493 1236 q 519 1231 508 1236 q 544 1210 531 1225 l 672 1082 q 679 1064 679 1075 q 657 1042 679 1042 l 621 1042 q 599 1045 607 1042 q 578 1057 590 1049 l 472 1128 l 367 1057 q 346 1045 354 1049 q 324 1042 338 1042 l 288 1042 q 265 1064 265 1042 q 272 1082 265 1075 l 400 1210 q 425 1231 414 1225 q 451 1236 436 1236 l 493 1236 z "},"Ċ":{"ha":926,"x_min":79,"x_max":864,"o":"m 215 603 q 213 486 213 540 q 215 369 213 432 q 285 183 219 254 q 475 111 351 111 q 588 128 542 111 q 663 171 633 144 q 709 231 693 197 q 733 300 725 265 q 747 323 736 315 q 769 331 758 331 l 833 331 q 855 322 846 331 q 864 300 864 313 q 840 200 863 254 q 772 98 818 146 q 652 18 725 50 q 475 -14 579 -14 q 314 15 385 -14 q 192 93 243 43 q 114 212 142 143 q 83 363 86 281 q 83 610 79 486 q 114 760 86 690 q 192 879 142 829 q 314 958 243 929 q 475 986 385 986 q 652 954 579 986 q 772 874 725 922 q 840 772 818 826 q 864 672 863 718 q 855 651 864 660 q 833 642 846 642 l 769 642 q 747 649 758 642 q 733 672 736 657 q 709 741 725 707 q 663 801 693 775 q 588 844 633 828 q 475 861 542 861 q 285 790 351 861 q 215 603 219 718 m 542 1079 q 531 1053 542 1064 q 504 1042 519 1042 l 425 1042 q 399 1053 410 1042 q 388 1079 388 1064 l 388 1158 q 399 1185 388 1174 q 425 1196 410 1196 l 504 1196 q 531 1185 519 1196 q 542 1158 542 1174 l 542 1079 z "},"D":{"ha":956,"x_min":119,"x_max":875,"o":"m 874 596 q 875 486 875 533 q 874 376 875 439 q 843 219 872 289 q 763 100 814 149 q 640 26 711 51 q 483 0 569 0 l 157 0 q 131 11 142 0 q 119 38 119 22 l 119 935 q 131 961 119 950 q 157 972 142 972 l 475 972 q 634 947 561 972 q 760 872 707 921 q 842 753 813 824 q 874 596 872 683 m 742 589 q 726 685 740 639 q 679 768 711 732 q 596 826 647 804 q 469 847 544 847 l 251 847 l 251 125 l 476 125 q 602 147 551 125 q 683 204 653 168 q 727 287 714 240 q 742 383 740 333 q 742 438 742 414 q 743 485 743 463 q 742 533 743 508 q 742 589 742 557 z "},"Ď":{"ha":956,"x_min":119,"x_max":875,"o":"m 874 596 q 875 486 875 533 q 874 376 875 439 q 843 219 872 289 q 763 100 814 149 q 640 26 711 51 q 483 0 569 0 l 157 0 q 131 11 142 0 q 119 38 119 22 l 119 935 q 131 961 119 950 q 157 972 142 972 l 475 972 q 634 947 561 972 q 760 872 707 921 q 842 753 813 824 q 874 596 872 683 m 742 589 q 726 685 740 639 q 679 768 711 732 q 596 826 647 804 q 469 847 544 847 l 251 847 l 251 125 l 476 125 q 602 147 551 125 q 683 204 653 168 q 727 287 714 240 q 742 383 740 333 q 742 438 742 414 q 743 485 743 463 q 742 533 743 508 q 742 589 742 557 m 435 1042 q 408 1047 419 1042 q 383 1068 397 1053 l 256 1196 q 249 1214 249 1203 q 271 1236 249 1236 l 307 1236 q 329 1233 321 1236 q 350 1221 338 1229 l 456 1150 l 561 1221 q 582 1233 574 1229 q 604 1236 590 1236 l 640 1236 q 663 1214 663 1236 q 656 1196 663 1203 l 528 1068 q 503 1047 514 1053 q 476 1042 492 1042 l 435 1042 z "},"Đ":{"ha":975,"x_min":21,"x_max":894,"o":"m 893 596 q 894 486 894 533 q 893 376 894 439 q 863 219 892 289 q 782 100 833 149 q 660 26 731 51 q 503 0 589 0 l 176 0 q 150 11 161 0 q 139 38 139 22 l 139 433 l 58 433 q 32 444 43 433 q 21 471 21 456 l 21 514 q 32 540 21 529 q 58 551 43 551 l 139 551 l 139 935 q 150 961 139 950 q 176 972 161 972 l 494 972 q 653 947 581 972 q 779 872 726 921 q 862 753 832 824 q 893 596 892 683 m 761 589 q 745 685 760 639 q 699 768 731 732 q 615 826 667 804 q 489 847 564 847 l 271 847 l 271 551 l 458 551 q 485 540 474 551 q 496 514 496 529 l 496 471 q 485 444 496 456 q 458 433 474 433 l 271 433 l 271 125 l 496 125 q 622 147 571 125 q 703 204 672 168 q 747 287 733 240 q 761 383 760 333 q 762 438 761 414 q 763 485 763 463 q 762 533 763 508 q 761 589 761 557 z "},"E":{"ha":822,"x_min":119,"x_max":756,"o":"m 718 125 q 744 114 733 125 q 756 88 756 103 l 756 38 q 744 11 756 22 q 718 0 733 0 l 157 0 q 131 11 142 0 q 119 38 119 22 l 119 935 q 131 961 119 950 q 157 972 142 972 l 707 972 q 733 961 722 972 q 744 935 744 950 l 744 885 q 733 858 744 869 q 707 847 722 847 l 251 847 l 251 554 l 676 554 q 703 543 692 554 q 714 517 714 532 l 714 467 q 703 440 714 451 q 676 429 692 429 l 251 429 l 251 125 l 718 125 z "},"É":{"ha":822,"x_min":119,"x_max":756,"o":"m 718 125 q 744 114 733 125 q 756 88 756 103 l 756 38 q 744 11 756 22 q 718 0 733 0 l 157 0 q 131 11 142 0 q 119 38 119 22 l 119 935 q 131 961 119 950 q 157 972 142 972 l 707 972 q 733 961 722 972 q 744 935 744 950 l 744 885 q 733 858 744 869 q 707 847 722 847 l 251 847 l 251 554 l 676 554 q 703 543 692 554 q 714 517 714 532 l 714 467 q 703 440 714 451 q 676 429 692 429 l 251 429 l 251 125 l 718 125 m 460 1210 q 485 1232 475 1228 q 511 1236 496 1236 l 621 1236 q 647 1208 647 1236 q 640 1192 647 1199 l 486 1065 q 463 1049 475 1056 q 428 1042 450 1042 l 369 1042 q 347 1064 347 1042 q 354 1082 347 1075 l 460 1210 z "},"Ĕ":{"ha":822,"x_min":119,"x_max":756,"o":"m 718 125 q 744 114 733 125 q 756 88 756 103 l 756 38 q 744 11 756 22 q 718 0 733 0 l 157 0 q 131 11 142 0 q 119 38 119 22 l 119 935 q 131 961 119 950 q 157 972 142 972 l 707 972 q 733 961 722 972 q 744 935 744 950 l 744 885 q 733 858 744 869 q 707 847 722 847 l 251 847 l 251 554 l 676 554 q 703 543 692 554 q 714 517 714 532 l 714 467 q 703 440 714 451 q 676 429 692 429 l 251 429 l 251 125 l 718 125 m 438 1035 q 356 1050 390 1035 q 301 1090 322 1065 q 269 1147 279 1115 q 258 1210 258 1178 q 265 1228 258 1221 q 285 1236 272 1236 l 329 1236 q 349 1228 342 1236 q 356 1210 356 1221 q 378 1150 356 1174 q 438 1126 400 1126 q 497 1150 475 1126 q 519 1210 519 1174 q 526 1228 519 1221 q 546 1236 533 1236 l 590 1236 q 610 1228 603 1236 q 617 1210 617 1221 q 606 1147 617 1178 q 574 1090 596 1115 q 519 1050 553 1065 q 438 1035 485 1035 z "},"Ě":{"ha":822,"x_min":119,"x_max":756,"o":"m 718 125 q 744 114 733 125 q 756 88 756 103 l 756 38 q 744 11 756 22 q 718 0 733 0 l 157 0 q 131 11 142 0 q 119 38 119 22 l 119 935 q 131 961 119 950 q 157 972 142 972 l 707 972 q 733 961 722 972 q 744 935 744 950 l 744 885 q 733 858 744 869 q 707 847 722 847 l 251 847 l 251 554 l 676 554 q 703 543 692 554 q 714 517 714 532 l 714 467 q 703 440 714 451 q 676 429 692 429 l 251 429 l 251 125 l 718 125 m 417 1042 q 390 1047 401 1042 q 365 1068 379 1053 l 238 1196 q 231 1214 231 1203 q 253 1236 231 1236 l 289 1236 q 311 1233 303 1236 q 332 1221 319 1229 l 438 1150 l 543 1221 q 564 1233 556 1229 q 586 1236 572 1236 l 622 1236 q 644 1214 644 1236 q 638 1196 644 1203 l 510 1068 q 485 1047 496 1053 q 458 1042 474 1042 l 417 1042 z "},"Ê":{"ha":822,"x_min":119,"x_max":756,"o":"m 718 125 q 744 114 733 125 q 756 88 756 103 l 756 38 q 744 11 756 22 q 718 0 733 0 l 157 0 q 131 11 142 0 q 119 38 119 22 l 119 935 q 131 961 119 950 q 157 972 142 972 l 707 972 q 733 961 722 972 q 744 935 744 950 l 744 885 q 733 858 744 869 q 707 847 722 847 l 251 847 l 251 554 l 676 554 q 703 543 692 554 q 714 517 714 532 l 714 467 q 703 440 714 451 q 676 429 692 429 l 251 429 l 251 125 l 718 125 m 458 1236 q 485 1231 474 1236 q 510 1210 496 1225 l 638 1082 q 644 1064 644 1075 q 622 1042 644 1042 l 586 1042 q 564 1045 572 1042 q 543 1057 556 1049 l 438 1128 l 332 1057 q 311 1045 319 1049 q 289 1042 303 1042 l 253 1042 q 231 1064 231 1042 q 238 1082 231 1075 l 365 1210 q 390 1231 379 1225 q 417 1236 401 1236 l 458 1236 z "},"Ë":{"ha":822,"x_min":119,"x_max":756,"o":"m 718 125 q 744 114 733 125 q 756 88 756 103 l 756 38 q 744 11 756 22 q 718 0 733 0 l 157 0 q 131 11 142 0 q 119 38 119 22 l 119 935 q 131 961 119 950 q 157 972 142 972 l 707 972 q 733 961 722 972 q 744 935 744 950 l 744 885 q 733 858 744 869 q 707 847 722 847 l 251 847 l 251 554 l 676 554 q 703 543 692 554 q 714 517 714 532 l 714 467 q 703 440 714 451 q 676 429 692 429 l 251 429 l 251 125 l 718 125 m 368 1079 q 357 1053 368 1064 q 331 1042 346 1042 l 251 1042 q 225 1053 236 1042 q 214 1079 214 1064 l 214 1158 q 225 1185 214 1174 q 251 1196 236 1196 l 331 1196 q 357 1185 346 1196 q 368 1158 368 1174 l 368 1079 m 661 1079 q 650 1053 661 1064 q 624 1042 639 1042 l 544 1042 q 518 1053 529 1042 q 507 1079 507 1064 l 507 1158 q 518 1185 507 1174 q 544 1196 529 1196 l 624 1196 q 650 1185 639 1196 q 661 1158 661 1174 l 661 1079 z "},"Ė":{"ha":822,"x_min":119,"x_max":756,"o":"m 718 125 q 744 114 733 125 q 756 88 756 103 l 756 38 q 744 11 756 22 q 718 0 733 0 l 157 0 q 131 11 142 0 q 119 38 119 22 l 119 935 q 131 961 119 950 q 157 972 142 972 l 707 972 q 733 961 722 972 q 744 935 744 950 l 744 885 q 733 858 744 869 q 707 847 722 847 l 251 847 l 251 554 l 676 554 q 703 543 692 554 q 714 517 714 532 l 714 467 q 703 440 714 451 q 676 429 692 429 l 251 429 l 251 125 l 718 125 m 515 1079 q 504 1053 515 1064 q 478 1042 493 1042 l 399 1042 q 372 1053 383 1042 q 361 1079 361 1064 l 361 1158 q 372 1185 361 1174 q 399 1196 383 1196 l 478 1196 q 504 1185 493 1196 q 515 1158 515 1174 l 515 1079 z "},"È":{"ha":822,"x_min":119,"x_max":756,"o":"m 718 125 q 744 114 733 125 q 756 88 756 103 l 756 38 q 744 11 756 22 q 718 0 733 0 l 157 0 q 131 11 142 0 q 119 38 119 22 l 119 935 q 131 961 119 950 q 157 972 142 972 l 707 972 q 733 961 722 972 q 744 935 744 950 l 744 885 q 733 858 744 869 q 707 847 722 847 l 251 847 l 251 554 l 676 554 q 703 543 692 554 q 714 517 714 532 l 714 467 q 703 440 714 451 q 676 429 692 429 l 251 429 l 251 125 l 718 125 m 497 1082 q 504 1064 504 1075 q 482 1042 504 1042 l 424 1042 q 389 1049 401 1042 q 365 1065 376 1056 l 211 1192 q 204 1208 204 1199 q 231 1236 204 1236 l 340 1236 q 366 1232 356 1236 q 392 1210 376 1228 l 497 1082 z "},"Ē":{"ha":822,"x_min":119,"x_max":756,"o":"m 718 125 q 744 114 733 125 q 756 88 756 103 l 756 38 q 744 11 756 22 q 718 0 733 0 l 157 0 q 131 11 142 0 q 119 38 119 22 l 119 935 q 131 961 119 950 q 157 972 142 972 l 707 972 q 733 961 722 972 q 744 935 744 950 l 744 885 q 733 858 744 869 q 707 847 722 847 l 251 847 l 251 554 l 676 554 q 703 543 692 554 q 714 517 714 532 l 714 467 q 703 440 714 451 q 676 429 692 429 l 251 429 l 251 125 l 718 125 m 279 1042 q 253 1053 264 1042 q 242 1079 242 1064 l 242 1129 q 253 1156 242 1144 q 279 1167 264 1167 l 597 1167 q 624 1156 613 1167 q 635 1129 635 1144 l 635 1079 q 624 1053 635 1064 q 597 1042 613 1042 l 279 1042 z "},"Ę":{"ha":822,"x_min":119,"x_max":756,"o":"m 699 -306 q 620 -292 657 -306 q 557 -253 583 -279 q 515 -190 531 -228 q 500 -103 500 -153 q 521 0 500 -42 l 157 0 q 131 11 142 0 q 119 38 119 22 l 119 935 q 131 961 119 950 q 157 972 142 972 l 707 972 q 733 961 722 972 q 744 935 744 950 l 744 885 q 733 858 744 869 q 707 847 722 847 l 251 847 l 251 554 l 676 554 q 703 543 692 554 q 714 517 714 532 l 714 467 q 703 440 714 451 q 676 429 692 429 l 251 429 l 251 125 l 718 125 q 744 114 733 125 q 756 88 756 103 l 756 38 q 744 11 756 22 q 718 0 733 0 l 704 0 q 613 -103 613 0 q 704 -206 613 -206 l 725 -206 q 756 -236 756 -206 l 756 -275 q 725 -306 756 -306 l 699 -306 z "},"F":{"ha":801,"x_min":119,"x_max":746,"o":"m 708 972 q 735 961 724 972 q 746 935 746 950 l 746 885 q 735 858 746 869 q 708 847 724 847 l 251 847 l 251 526 l 681 526 q 707 515 696 526 q 718 489 718 504 l 718 439 q 707 413 718 424 q 681 401 696 401 l 251 401 l 251 38 q 240 11 251 22 q 214 0 229 0 l 157 0 q 131 11 142 0 q 119 38 119 22 l 119 935 q 131 961 119 950 q 157 972 142 972 l 708 972 z "},"G":{"ha":950,"x_min":79,"x_max":878,"o":"m 83 613 q 110 757 86 689 q 184 876 135 825 q 307 957 233 928 q 481 986 381 986 q 647 958 575 986 q 766 890 718 931 q 838 802 814 849 q 864 718 863 756 q 856 697 865 706 q 833 688 846 688 l 776 688 q 736 703 743 688 q 698 765 719 736 q 647 815 676 794 q 577 849 618 836 q 481 861 536 861 q 376 845 424 861 q 293 797 328 829 q 238 717 258 765 q 215 606 217 669 q 213 490 213 543 q 215 375 213 438 q 238 258 217 308 q 293 176 258 208 q 376 127 328 143 q 481 111 424 111 q 585 125 536 111 q 669 170 633 139 q 726 251 706 201 q 746 374 746 301 l 746 413 l 546 413 q 519 424 531 413 q 508 450 508 435 l 508 500 q 519 526 508 515 q 546 538 531 538 l 840 538 q 867 526 856 538 q 878 500 878 515 l 878 368 q 851 215 878 285 q 774 94 825 144 q 649 15 724 43 q 481 -14 575 -14 q 307 16 381 -14 q 185 97 233 46 q 111 218 136 149 q 83 368 86 288 q 83 613 79 490 z "},"Ğ":{"ha":950,"x_min":79,"x_max":878,"o":"m 83 613 q 110 757 86 689 q 184 876 135 825 q 307 957 233 928 q 481 986 381 986 q 647 958 575 986 q 766 890 718 931 q 838 802 814 849 q 864 718 863 756 q 856 697 865 706 q 833 688 846 688 l 776 688 q 736 703 743 688 q 698 765 719 736 q 647 815 676 794 q 577 849 618 836 q 481 861 536 861 q 376 845 424 861 q 293 797 328 829 q 238 717 258 765 q 215 606 217 669 q 213 490 213 543 q 215 375 213 438 q 238 258 217 308 q 293 176 258 208 q 376 127 328 143 q 481 111 424 111 q 585 125 536 111 q 669 170 633 139 q 726 251 706 201 q 746 374 746 301 l 746 413 l 546 413 q 519 424 531 413 q 508 450 508 435 l 508 500 q 519 526 508 515 q 546 538 531 538 l 840 538 q 867 526 856 538 q 878 500 878 515 l 878 368 q 851 215 878 285 q 774 94 825 144 q 649 15 724 43 q 481 -14 575 -14 q 307 16 381 -14 q 185 97 233 46 q 111 218 136 149 q 83 368 86 288 q 83 613 79 490 m 479 1035 q 398 1050 432 1035 q 342 1090 364 1065 q 310 1147 321 1115 q 300 1210 300 1178 q 307 1228 300 1221 q 326 1236 314 1236 l 371 1236 q 390 1228 383 1236 q 397 1210 397 1221 q 419 1150 397 1174 q 479 1126 442 1126 q 539 1150 517 1126 q 561 1210 561 1174 q 568 1228 561 1221 q 588 1236 575 1236 l 632 1236 q 651 1228 644 1236 q 658 1210 658 1221 q 648 1147 658 1178 q 616 1090 638 1115 q 560 1050 594 1065 q 479 1035 526 1035 z "},"Ĝ":{"ha":950,"x_min":79,"x_max":878,"o":"m 83 613 q 110 757 86 689 q 184 876 135 825 q 307 957 233 928 q 481 986 381 986 q 647 958 575 986 q 766 890 718 931 q 838 802 814 849 q 864 718 863 756 q 856 697 865 706 q 833 688 846 688 l 776 688 q 736 703 743 688 q 698 765 719 736 q 647 815 676 794 q 577 849 618 836 q 481 861 536 861 q 376 845 424 861 q 293 797 328 829 q 238 717 258 765 q 215 606 217 669 q 213 490 213 543 q 215 375 213 438 q 238 258 217 308 q 293 176 258 208 q 376 127 328 143 q 481 111 424 111 q 585 125 536 111 q 669 170 633 139 q 726 251 706 201 q 746 374 746 301 l 746 413 l 546 413 q 519 424 531 413 q 508 450 508 435 l 508 500 q 519 526 508 515 q 546 538 531 538 l 840 538 q 867 526 856 538 q 878 500 878 515 l 878 368 q 851 215 878 285 q 774 94 825 144 q 649 15 724 43 q 481 -14 575 -14 q 307 16 381 -14 q 185 97 233 46 q 111 218 136 149 q 83 368 86 288 q 83 613 79 490 m 500 1236 q 526 1231 515 1236 q 551 1210 538 1225 l 679 1082 q 686 1064 686 1075 q 664 1042 686 1042 l 628 1042 q 606 1045 614 1042 q 585 1057 597 1049 l 479 1128 l 374 1057 q 353 1045 361 1049 q 331 1042 344 1042 l 294 1042 q 272 1064 272 1042 q 279 1082 272 1075 l 407 1210 q 432 1231 421 1225 q 458 1236 443 1236 l 500 1236 z "},"Ģ":{"ha":950,"x_min":79,"x_max":878,"o":"m 83 613 q 110 757 86 689 q 184 876 135 825 q 307 957 233 928 q 481 986 381 986 q 647 958 575 986 q 766 890 718 931 q 838 802 814 849 q 864 718 863 756 q 856 697 865 706 q 833 688 846 688 l 776 688 q 736 703 743 688 q 698 765 719 736 q 647 815 676 794 q 577 849 618 836 q 481 861 536 861 q 376 845 424 861 q 293 797 328 829 q 238 717 258 765 q 215 606 217 669 q 213 490 213 543 q 215 375 213 438 q 238 258 217 308 q 293 176 258 208 q 376 127 328 143 q 481 111 424 111 q 585 125 536 111 q 669 170 633 139 q 726 251 706 201 q 746 374 746 301 l 746 413 l 546 413 q 519 424 531 413 q 508 450 508 435 l 508 500 q 519 526 508 515 q 546 538 531 538 l 840 538 q 867 526 856 538 q 878 500 878 515 l 878 368 q 851 215 878 285 q 774 94 825 144 q 649 15 724 43 q 481 -14 575 -14 q 307 16 381 -14 q 185 97 233 46 q 111 218 136 149 q 83 368 86 288 q 83 613 79 490 m 389 -124 q 406 -87 392 -104 q 449 -69 421 -69 l 529 -69 q 551 -78 542 -69 q 560 -100 560 -87 q 558 -110 560 -106 l 483 -303 q 465 -332 478 -317 q 424 -347 451 -347 l 390 -347 q 369 -338 378 -347 q 360 -317 360 -329 l 360 -314 l 389 -124 z "},"Ġ":{"ha":950,"x_min":79,"x_max":878,"o":"m 83 613 q 110 757 86 689 q 184 876 135 825 q 307 957 233 928 q 481 986 381 986 q 647 958 575 986 q 766 890 718 931 q 838 802 814 849 q 864 718 863 756 q 856 697 865 706 q 833 688 846 688 l 776 688 q 736 703 743 688 q 698 765 719 736 q 647 815 676 794 q 577 849 618 836 q 481 861 536 861 q 376 845 424 861 q 293 797 328 829 q 238 717 258 765 q 215 606 217 669 q 213 490 213 543 q 215 375 213 438 q 238 258 217 308 q 293 176 258 208 q 376 127 328 143 q 481 111 424 111 q 585 125 536 111 q 669 170 633 139 q 726 251 706 201 q 746 374 746 301 l 746 413 l 546 413 q 519 424 531 413 q 508 450 508 435 l 508 500 q 519 526 508 515 q 546 538 531 538 l 840 538 q 867 526 856 538 q 878 500 878 515 l 878 368 q 851 215 878 285 q 774 94 825 144 q 649 15 724 43 q 481 -14 575 -14 q 307 16 381 -14 q 185 97 233 46 q 111 218 136 149 q 83 368 86 288 q 83 613 79 490 m 557 1079 q 546 1053 557 1064 q 519 1042 535 1042 l 440 1042 q 414 1053 425 1042 q 403 1079 403 1064 l 403 1158 q 414 1185 403 1174 q 440 1196 425 1196 l 519 1196 q 546 1185 535 1196 q 557 1158 557 1174 l 557 1079 z "},"H":{"ha":992,"x_min":119,"x_max":872,"o":"m 835 972 q 861 961 850 972 q 872 935 872 950 l 872 38 q 861 11 872 22 q 835 0 850 0 l 778 0 q 751 11 763 0 q 740 38 740 22 l 740 429 l 251 429 l 251 38 q 240 11 251 22 q 214 0 229 0 l 157 0 q 131 10 142 0 q 119 38 119 21 l 119 935 q 131 961 119 950 q 157 972 142 972 l 214 972 q 240 961 229 972 q 251 935 251 950 l 251 554 l 740 554 l 740 935 q 751 961 740 950 q 778 972 763 972 l 835 972 z "},"Ħ":{"ha":1011,"x_min":32,"x_max":979,"o":"m 844 972 q 871 961 860 972 q 882 935 882 950 l 882 825 l 942 825 q 968 814 957 825 q 979 788 979 803 l 979 738 q 968 711 979 722 q 942 700 957 700 l 882 700 l 882 38 q 871 11 882 22 q 844 0 860 0 l 788 0 q 761 11 772 0 q 750 38 750 22 l 750 429 l 261 429 l 261 38 q 250 11 261 22 q 224 0 239 0 l 167 0 q 140 10 151 0 q 129 38 129 21 l 129 700 l 69 700 q 43 711 54 700 q 32 738 32 722 l 32 788 q 43 814 32 803 q 69 825 54 825 l 129 825 l 129 935 q 140 961 129 950 q 167 972 151 972 l 224 972 q 250 961 239 972 q 261 935 261 950 l 261 825 l 750 825 l 750 935 q 761 961 750 950 q 788 972 772 972 l 844 972 m 750 554 l 750 700 l 261 700 l 261 554 l 750 554 z "},"Ĥ":{"ha":992,"x_min":119,"x_max":872,"o":"m 835 972 q 861 961 850 972 q 872 935 872 950 l 872 38 q 861 11 872 22 q 835 0 850 0 l 778 0 q 751 11 763 0 q 740 38 740 22 l 740 429 l 251 429 l 251 38 q 240 11 251 22 q 214 0 229 0 l 157 0 q 131 10 142 0 q 119 38 119 21 l 119 935 q 131 961 119 950 q 157 972 142 972 l 214 972 q 240 961 229 972 q 251 935 251 950 l 251 554 l 740 554 l 740 935 q 751 961 740 950 q 778 972 763 972 l 835 972 m 517 1236 q 543 1231 532 1236 q 568 1210 554 1225 l 696 1082 q 703 1064 703 1075 q 681 1042 703 1042 l 644 1042 q 622 1045 631 1042 q 601 1057 614 1049 l 496 1128 l 390 1057 q 369 1045 378 1049 q 347 1042 361 1042 l 311 1042 q 289 1064 289 1042 q 296 1082 289 1075 l 424 1210 q 449 1231 438 1225 q 475 1236 460 1236 l 517 1236 z "},"I":{"ha":371,"x_min":119,"x_max":251,"o":"m 157 0 q 131 11 142 0 q 119 38 119 22 l 119 935 q 131 961 119 950 q 157 972 142 972 l 214 972 q 240 961 229 972 q 251 935 251 950 l 251 38 q 240 11 251 22 q 214 0 229 0 l 157 0 z "},"Í":{"ha":371,"x_min":118,"x_max":418,"o":"m 157 0 q 131 11 142 0 q 119 38 119 22 l 119 935 q 131 961 119 950 q 157 972 142 972 l 214 972 q 240 961 229 972 q 251 935 251 950 l 251 38 q 240 11 251 22 q 214 0 229 0 l 157 0 m 231 1210 q 256 1232 246 1228 q 282 1236 267 1236 l 392 1236 q 418 1208 418 1236 q 411 1192 418 1199 l 257 1065 q 233 1049 246 1056 q 199 1042 221 1042 l 140 1042 q 118 1064 118 1042 q 125 1082 118 1075 l 231 1210 z "},"Ĭ":{"ha":371,"x_min":6,"x_max":364,"o":"m 157 0 q 131 11 142 0 q 119 38 119 22 l 119 935 q 131 961 119 950 q 157 972 142 972 l 214 972 q 240 961 229 972 q 251 935 251 950 l 251 38 q 240 11 251 22 q 214 0 229 0 l 157 0 m 185 1035 q 103 1050 138 1035 q 48 1090 69 1065 q 16 1147 26 1115 q 6 1210 6 1178 q 13 1228 6 1221 q 32 1236 19 1236 l 76 1236 q 96 1228 89 1236 q 103 1210 103 1221 q 125 1150 103 1174 q 185 1126 147 1126 q 244 1150 222 1126 q 267 1210 267 1174 q 274 1228 267 1221 q 293 1236 281 1236 l 338 1236 q 357 1228 350 1236 q 364 1210 364 1221 q 353 1147 364 1178 q 322 1090 343 1115 q 266 1050 300 1065 q 185 1035 232 1035 z "},"Î":{"ha":371,"x_min":-22,"x_max":392,"o":"m 157 0 q 131 11 142 0 q 119 38 119 22 l 119 935 q 131 961 119 950 q 157 972 142 972 l 214 972 q 240 961 229 972 q 251 935 251 950 l 251 38 q 240 11 251 22 q 214 0 229 0 l 157 0 m 206 1236 q 232 1231 221 1236 q 257 1210 243 1225 l 385 1082 q 392 1064 392 1075 q 369 1042 392 1042 l 333 1042 q 311 1045 319 1042 q 290 1057 303 1049 l 185 1128 l 79 1057 q 58 1045 67 1049 q 36 1042 50 1042 l 0 1042 q -22 1064 -22 1042 q -15 1082 -22 1075 l 113 1210 q 138 1231 126 1225 q 164 1236 149 1236 l 206 1236 z "},"Ï":{"ha":371,"x_min":-39,"x_max":408,"o":"m 157 0 q 131 11 142 0 q 119 38 119 22 l 119 935 q 131 961 119 950 q 157 972 142 972 l 214 972 q 240 961 229 972 q 251 935 251 950 l 251 38 q 240 11 251 22 q 214 0 229 0 l 157 0 m 115 1079 q 104 1053 115 1064 q 78 1042 93 1042 l -1 1042 q -28 1053 -17 1042 q -39 1079 -39 1064 l -39 1158 q -28 1185 -39 1174 q -1 1196 -17 1196 l 78 1196 q 104 1185 93 1196 q 115 1158 115 1174 l 115 1079 m 408 1079 q 397 1053 408 1064 q 371 1042 386 1042 l 292 1042 q 265 1053 276 1042 q 254 1079 254 1064 l 254 1158 q 265 1185 254 1174 q 292 1196 276 1196 l 371 1196 q 397 1185 386 1196 q 408 1158 408 1174 l 408 1079 z "},"İ":{"ha":371,"x_min":108,"x_max":263,"o":"m 157 0 q 131 11 142 0 q 119 38 119 22 l 119 935 q 131 961 119 950 q 157 972 142 972 l 214 972 q 240 961 229 972 q 251 935 251 950 l 251 38 q 240 11 251 22 q 214 0 229 0 l 157 0 m 263 1079 q 251 1053 263 1064 q 225 1042 240 1042 l 146 1042 q 119 1053 131 1042 q 108 1079 108 1064 l 108 1158 q 119 1185 108 1174 q 146 1196 131 1196 l 225 1196 q 251 1185 240 1196 q 263 1158 263 1174 l 263 1079 z "},"Ì":{"ha":371,"x_min":-51,"x_max":251,"o":"m 157 0 q 131 11 142 0 q 119 38 119 22 l 119 935 q 131 961 119 950 q 157 972 142 972 l 214 972 q 240 961 229 972 q 251 935 251 950 l 251 38 q 240 11 251 22 q 214 0 229 0 l 157 0 m 242 1082 q 249 1064 249 1075 q 226 1042 249 1042 l 168 1042 q 133 1049 146 1042 q 110 1065 121 1056 l -44 1192 q -51 1208 -51 1199 q -25 1236 -51 1236 l 85 1236 q 110 1232 100 1236 q 136 1210 121 1228 l 242 1082 z "},"Ī":{"ha":371,"x_min":-11,"x_max":382,"o":"m 157 0 q 131 11 142 0 q 119 38 119 22 l 119 935 q 131 961 119 950 q 157 972 142 972 l 214 972 q 240 961 229 972 q 251 935 251 950 l 251 38 q 240 11 251 22 q 214 0 229 0 l 157 0 m 26 1042 q 0 1053 11 1042 q -11 1079 -11 1064 l -11 1129 q 0 1156 -11 1144 q 26 1167 11 1167 l 344 1167 q 371 1156 360 1167 q 382 1129 382 1144 l 382 1079 q 371 1053 382 1064 q 344 1042 360 1042 l 26 1042 z "},"Į":{"ha":396,"x_min":21,"x_max":276,"o":"m 215 0 q 133 -103 133 -4 q 225 -206 133 -206 l 246 -206 q 276 -236 276 -206 l 276 -275 q 246 -306 276 -306 l 219 -306 q 141 -292 178 -306 q 78 -253 104 -279 q 36 -190 51 -228 q 21 -103 21 -153 q 55 21 21 -26 q 144 88 89 68 l 144 935 q 156 961 144 950 q 182 972 167 972 l 239 972 q 265 961 254 972 q 276 935 276 950 l 276 38 q 265 11 276 22 q 239 0 254 0 l 215 0 z "},"Ĩ":{"ha":371,"x_min":-22,"x_max":393,"o":"m 157 0 q 131 11 142 0 q 119 38 119 22 l 119 935 q 131 961 119 950 q 157 972 142 972 l 214 972 q 240 961 229 972 q 251 935 251 950 l 251 38 q 240 11 251 22 q 214 0 229 0 l 157 0 m 274 1035 q 220 1042 242 1035 q 181 1057 199 1049 q 149 1072 164 1065 q 115 1079 133 1079 q 92 1074 99 1079 q 81 1060 85 1068 q 72 1047 76 1053 q 56 1042 67 1042 l 4 1042 q -15 1049 -8 1042 q -22 1068 -22 1057 q -16 1106 -22 1083 q 5 1150 -10 1129 q 42 1186 19 1171 q 97 1201 65 1201 q 151 1194 129 1201 q 189 1179 172 1188 q 221 1164 206 1171 q 256 1157 236 1157 q 279 1163 272 1157 q 290 1176 286 1168 q 299 1189 294 1183 q 315 1194 304 1194 l 367 1194 q 386 1187 379 1194 q 393 1168 393 1179 q 387 1130 393 1153 q 366 1086 381 1107 q 328 1050 351 1065 q 274 1035 306 1035 z "},"J":{"ha":874,"x_min":47,"x_max":763,"o":"m 763 340 q 740 197 763 261 q 672 85 717 132 q 560 12 626 38 q 406 -14 493 -14 q 255 11 321 -14 q 143 78 189 36 q 73 174 97 119 q 47 286 49 228 q 56 308 47 299 q 78 317 65 317 l 149 317 q 179 286 172 317 q 202 219 186 251 q 245 164 218 188 q 312 126 272 140 q 406 111 351 111 q 579 175 528 111 q 631 356 631 239 l 631 847 l 151 847 q 125 858 136 847 q 114 885 114 869 l 114 935 q 125 961 114 950 q 151 972 136 972 l 725 972 q 751 961 740 972 q 763 935 763 950 l 763 340 z "},"Ĵ":{"ha":874,"x_min":47,"x_max":763,"o":"m 763 340 q 740 197 763 261 q 672 85 717 132 q 560 12 626 38 q 406 -14 493 -14 q 255 11 321 -14 q 143 78 189 36 q 73 174 97 119 q 47 286 49 228 q 56 308 47 299 q 78 317 65 317 l 149 317 q 179 286 172 317 q 202 219 186 251 q 245 164 218 188 q 312 126 272 140 q 406 111 351 111 q 579 175 528 111 q 631 356 631 239 l 631 847 l 151 847 q 125 858 136 847 q 114 885 114 869 l 114 935 q 125 961 114 950 q 151 972 136 972 l 725 972 q 751 961 740 972 q 763 935 763 950 l 763 340 m 471 1236 q 497 1231 486 1236 q 522 1210 508 1225 l 650 1082 q 657 1064 657 1075 q 635 1042 657 1042 l 599 1042 q 576 1045 585 1042 q 556 1057 568 1049 l 450 1128 l 344 1057 q 324 1045 332 1049 q 301 1042 315 1042 l 265 1042 q 243 1064 243 1042 q 250 1082 243 1075 l 378 1210 q 403 1231 392 1225 q 429 1236 414 1236 l 471 1236 z "},"K":{"ha":832,"x_min":119,"x_max":811,"o":"m 324 507 l 797 56 q 808 41 806 47 q 811 31 811 35 q 802 9 811 18 q 781 0 793 0 l 694 0 q 663 8 675 0 q 644 21 650 15 l 251 396 l 251 38 q 240 11 251 22 q 214 0 229 0 l 157 0 q 131 11 142 0 q 119 38 119 22 l 119 935 q 131 961 119 950 q 157 972 142 972 l 214 972 q 240 961 229 972 q 251 935 251 950 l 251 611 l 622 951 q 640 965 628 957 q 672 972 653 972 l 753 972 q 774 963 765 972 q 783 942 783 954 q 781 931 783 938 q 769 917 778 925 l 324 507 z "},"Ķ":{"ha":832,"x_min":119,"x_max":811,"o":"m 324 507 l 797 56 q 808 41 806 47 q 811 31 811 35 q 802 9 811 18 q 781 0 793 0 l 694 0 q 663 8 675 0 q 644 21 650 15 l 251 396 l 251 38 q 240 11 251 22 q 214 0 229 0 l 157 0 q 131 11 142 0 q 119 38 119 22 l 119 935 q 131 961 119 950 q 157 972 142 972 l 214 972 q 240 961 229 972 q 251 935 251 950 l 251 611 l 622 951 q 640 965 628 957 q 672 972 653 972 l 753 972 q 774 963 765 972 q 783 942 783 954 q 781 931 783 938 q 769 917 778 925 l 324 507 m 319 -124 q 337 -87 322 -104 q 379 -69 351 -69 l 460 -69 q 481 -78 472 -69 q 490 -100 490 -87 q 489 -110 490 -106 l 414 -303 q 395 -332 408 -317 q 354 -347 382 -347 l 321 -347 q 299 -338 308 -347 q 290 -317 290 -329 l 290 -314 l 319 -124 z "},"L":{"ha":786,"x_min":119,"x_max":760,"o":"m 722 125 q 749 114 738 125 q 760 88 760 103 l 760 38 q 749 11 760 22 q 722 0 738 0 l 157 0 q 131 11 142 0 q 119 38 119 22 l 119 935 q 131 961 119 950 q 157 972 142 972 l 214 972 q 240 961 229 972 q 251 935 251 950 l 251 125 l 722 125 z "},"Ĺ":{"ha":786,"x_min":117,"x_max":760,"o":"m 722 125 q 749 114 738 125 q 760 88 760 103 l 760 38 q 749 11 760 22 q 722 0 738 0 l 157 0 q 131 11 142 0 q 119 38 119 22 l 119 935 q 131 961 119 950 q 157 972 142 972 l 214 972 q 240 961 229 972 q 251 935 251 950 l 251 125 l 722 125 m 229 1210 q 255 1232 244 1228 q 281 1236 265 1236 l 390 1236 q 417 1208 417 1236 q 410 1192 417 1199 l 256 1065 q 232 1049 244 1056 q 197 1042 219 1042 l 139 1042 q 117 1064 117 1042 q 124 1082 117 1075 l 229 1210 z "},"Ľ":{"ha":786,"x_min":119,"x_max":760,"o":"m 722 125 q 749 114 738 125 q 760 88 760 103 l 760 38 q 749 11 760 22 q 722 0 738 0 l 157 0 q 131 11 142 0 q 119 38 119 22 l 119 935 q 131 961 119 950 q 157 972 142 972 l 214 972 q 240 961 229 972 q 251 935 251 950 l 251 125 l 722 125 m 446 931 q 463 967 449 950 q 506 985 478 985 l 586 985 q 608 976 599 985 q 617 954 617 967 q 615 944 617 949 l 540 751 q 522 722 535 738 q 481 707 508 707 l 447 707 q 426 716 435 707 q 417 738 417 725 l 417 740 l 446 931 z "},"Ļ":{"ha":786,"x_min":119,"x_max":760,"o":"m 722 125 q 749 114 738 125 q 760 88 760 103 l 760 38 q 749 11 760 22 q 722 0 738 0 l 157 0 q 131 11 142 0 q 119 38 119 22 l 119 935 q 131 961 119 950 q 157 972 142 972 l 214 972 q 240 961 229 972 q 251 935 251 950 l 251 125 l 722 125 m 357 -124 q 374 -87 360 -104 q 417 -69 389 -69 l 497 -69 q 519 -78 510 -69 q 528 -100 528 -87 q 526 -110 528 -106 l 451 -303 q 433 -332 446 -317 q 392 -347 419 -347 l 358 -347 q 337 -338 346 -347 q 328 -317 328 -329 l 328 -314 l 357 -124 z "},"Ŀ":{"ha":786,"x_min":119,"x_max":760,"o":"m 722 125 q 749 114 738 125 q 760 88 760 103 l 760 38 q 749 11 760 22 q 722 0 738 0 l 157 0 q 131 11 142 0 q 119 38 119 22 l 119 935 q 131 961 119 950 q 157 972 142 972 l 214 972 q 240 961 229 972 q 251 935 251 950 l 251 125 l 722 125 m 567 461 q 556 435 567 446 q 529 424 544 424 l 450 424 q 424 435 435 424 q 413 461 413 446 l 413 540 q 424 567 413 556 q 450 578 435 578 l 529 578 q 556 567 544 578 q 567 540 567 556 l 567 461 z "},"Ł":{"ha":804,"x_min":26,"x_max":778,"o":"m 740 125 q 767 114 756 125 q 778 88 778 103 l 778 38 q 767 11 778 22 q 740 0 756 0 l 175 0 q 149 11 160 0 q 138 38 138 22 l 138 374 l 71 349 q 56 344 60 344 q 35 353 43 344 q 26 374 26 361 l 26 413 q 57 458 26 447 l 138 489 l 138 935 q 149 961 138 950 q 175 972 160 972 l 232 972 q 258 961 247 972 q 269 935 269 950 l 269 540 l 481 624 q 496 628 490 628 q 517 619 508 628 q 525 599 525 611 l 525 560 q 494 514 525 525 l 269 425 l 269 125 l 740 125 z "},"M":{"ha":1103,"x_min":119,"x_max":983,"o":"m 551 385 l 832 928 q 855 958 840 944 q 893 972 869 972 l 946 972 q 972 961 961 972 q 983 935 983 950 l 983 38 q 972 11 983 22 q 946 0 961 0 l 889 0 q 863 11 874 0 q 851 38 851 22 l 851 696 l 635 278 q 611 245 624 257 q 578 233 599 233 l 525 233 q 492 245 504 233 q 468 278 479 257 l 251 696 l 251 38 q 240 11 251 22 q 214 0 229 0 l 157 0 q 131 11 142 0 q 119 38 119 22 l 119 935 q 131 961 119 950 q 157 972 142 972 l 210 972 q 248 958 233 972 q 271 928 263 944 l 551 385 z "},"N":{"ha":964,"x_min":119,"x_max":844,"o":"m 758 0 q 726 13 739 0 q 703 42 713 26 l 251 721 l 251 38 q 240 11 251 22 q 214 0 229 0 l 157 0 q 131 11 142 0 q 119 38 119 22 l 119 935 q 131 961 119 950 q 157 972 142 972 l 206 972 q 238 959 225 972 q 261 931 251 946 l 713 251 l 713 935 q 724 961 713 950 q 750 972 735 972 l 807 972 q 833 961 822 972 q 844 935 844 950 l 844 38 q 833 11 844 22 q 807 0 822 0 l 758 0 z "},"Ń":{"ha":964,"x_min":119,"x_max":844,"o":"m 758 0 q 726 13 739 0 q 703 42 713 26 l 251 721 l 251 38 q 240 11 251 22 q 214 0 229 0 l 157 0 q 131 11 142 0 q 119 38 119 22 l 119 935 q 131 961 119 950 q 157 972 142 972 l 206 972 q 238 959 225 972 q 261 931 251 946 l 713 251 l 713 935 q 724 961 713 950 q 750 972 735 972 l 807 972 q 833 961 822 972 q 844 935 844 950 l 844 38 q 833 11 844 22 q 807 0 822 0 l 758 0 m 528 1210 q 553 1232 543 1228 q 579 1236 564 1236 l 689 1236 q 715 1208 715 1236 q 708 1192 715 1199 l 554 1065 q 531 1049 543 1056 q 496 1042 518 1042 l 438 1042 q 415 1064 415 1042 q 422 1082 415 1075 l 528 1210 z "},"Ň":{"ha":964,"x_min":119,"x_max":844,"o":"m 758 0 q 726 13 739 0 q 703 42 713 26 l 251 721 l 251 38 q 240 11 251 22 q 214 0 229 0 l 157 0 q 131 11 142 0 q 119 38 119 22 l 119 935 q 131 961 119 950 q 157 972 142 972 l 206 972 q 238 959 225 972 q 261 931 251 946 l 713 251 l 713 935 q 724 961 713 950 q 750 972 735 972 l 807 972 q 833 961 822 972 q 844 935 844 950 l 844 38 q 833 11 844 22 q 807 0 822 0 l 758 0 m 461 1042 q 435 1047 446 1042 q 410 1068 424 1053 l 282 1196 q 275 1214 275 1203 q 297 1236 275 1236 l 333 1236 q 356 1233 347 1236 q 376 1221 364 1229 l 482 1150 l 588 1221 q 608 1233 600 1229 q 631 1236 617 1236 l 667 1236 q 689 1214 689 1236 q 682 1196 689 1203 l 554 1068 q 529 1047 540 1053 q 503 1042 518 1042 l 461 1042 z "},"Ņ":{"ha":964,"x_min":119,"x_max":844,"o":"m 758 0 q 726 13 739 0 q 703 42 713 26 l 251 721 l 251 38 q 240 11 251 22 q 214 0 229 0 l 157 0 q 131 11 142 0 q 119 38 119 22 l 119 935 q 131 961 119 950 q 157 972 142 972 l 206 972 q 238 959 225 972 q 261 931 251 946 l 713 251 l 713 935 q 724 961 713 950 q 750 972 735 972 l 807 972 q 833 961 822 972 q 844 935 844 950 l 844 38 q 833 11 844 22 q 807 0 822 0 l 758 0 m 399 -124 q 416 -87 401 -104 q 458 -69 431 -69 l 539 -69 q 560 -78 551 -69 q 569 -100 569 -87 q 568 -110 569 -106 l 493 -303 q 474 -332 488 -317 q 433 -347 461 -347 l 400 -347 q 378 -338 388 -347 q 369 -317 369 -329 l 369 -314 l 399 -124 z "},"Ñ":{"ha":964,"x_min":119,"x_max":844,"o":"m 758 0 q 726 13 739 0 q 703 42 713 26 l 251 721 l 251 38 q 240 11 251 22 q 214 0 229 0 l 157 0 q 131 11 142 0 q 119 38 119 22 l 119 935 q 131 961 119 950 q 157 972 142 972 l 206 972 q 238 959 225 972 q 261 931 251 946 l 713 251 l 713 935 q 724 961 713 950 q 750 972 735 972 l 807 972 q 833 961 822 972 q 844 935 844 950 l 844 38 q 833 11 844 22 q 807 0 822 0 l 758 0 m 571 1035 q 517 1042 539 1035 q 478 1057 496 1049 q 446 1072 461 1065 q 413 1079 431 1079 q 389 1074 396 1079 q 378 1060 382 1068 q 369 1047 374 1053 q 353 1042 364 1042 l 301 1042 q 282 1049 289 1042 q 275 1068 275 1057 q 281 1106 275 1083 q 302 1150 288 1129 q 340 1186 317 1171 q 394 1201 363 1201 q 448 1194 426 1201 q 486 1179 469 1188 q 518 1164 503 1171 q 553 1157 533 1157 q 576 1163 569 1157 q 588 1176 583 1168 q 597 1189 592 1183 q 613 1194 601 1194 l 664 1194 q 683 1187 676 1194 q 690 1168 690 1179 q 684 1130 690 1153 q 663 1086 678 1107 q 626 1050 649 1065 q 571 1035 603 1035 z "},"O":{"ha":933,"x_min":79,"x_max":854,"o":"m 83 610 q 110 756 85 688 q 185 876 136 825 q 304 956 233 926 q 467 986 375 986 q 629 956 558 986 q 749 876 700 926 q 823 756 797 825 q 850 610 849 688 q 850 363 854 486 q 822 216 847 285 q 747 96 796 147 q 628 15 699 44 q 467 -14 558 -14 q 305 15 375 -14 q 186 96 235 44 q 112 216 138 147 q 83 363 86 285 q 83 610 79 486 m 718 603 q 697 717 715 668 q 644 797 678 765 q 566 845 611 829 q 467 861 521 861 q 367 845 413 861 q 289 797 322 829 q 236 717 256 765 q 215 603 217 668 q 213 486 213 540 q 215 369 213 432 q 236 256 217 304 q 289 175 256 207 q 367 127 322 143 q 467 111 413 111 q 566 127 521 111 q 644 175 611 143 q 697 256 678 207 q 718 369 715 304 q 721 486 721 432 q 718 603 721 540 z "},"Ó":{"ha":933,"x_min":79,"x_max":854,"o":"m 83 610 q 110 756 85 688 q 185 876 136 825 q 304 956 233 926 q 467 986 375 986 q 629 956 558 986 q 749 876 700 926 q 823 756 797 825 q 850 610 849 688 q 850 363 854 486 q 822 216 847 285 q 747 96 796 147 q 628 15 699 44 q 467 -14 558 -14 q 305 15 375 -14 q 186 96 235 44 q 112 216 138 147 q 83 363 86 285 q 83 610 79 486 m 718 603 q 697 717 715 668 q 644 797 678 765 q 566 845 611 829 q 467 861 521 861 q 367 845 413 861 q 289 797 322 829 q 236 717 256 765 q 215 603 217 668 q 213 486 213 540 q 215 369 213 432 q 236 256 217 304 q 289 175 256 207 q 367 127 322 143 q 467 111 413 111 q 566 127 521 111 q 644 175 611 143 q 697 256 678 207 q 718 369 715 304 q 721 486 721 432 q 718 603 721 540 m 517 1210 q 542 1232 532 1228 q 568 1236 553 1236 l 678 1236 q 704 1208 704 1236 q 697 1192 704 1199 l 543 1065 q 519 1049 532 1056 q 485 1042 507 1042 l 426 1042 q 404 1064 404 1042 q 411 1082 404 1075 l 517 1210 z "},"Ŏ":{"ha":933,"x_min":79,"x_max":854,"o":"m 83 610 q 110 756 85 688 q 185 876 136 825 q 304 956 233 926 q 467 986 375 986 q 629 956 558 986 q 749 876 700 926 q 823 756 797 825 q 850 610 849 688 q 850 363 854 486 q 822 216 847 285 q 747 96 796 147 q 628 15 699 44 q 467 -14 558 -14 q 305 15 375 -14 q 186 96 235 44 q 112 216 138 147 q 83 363 86 285 q 83 610 79 486 m 718 603 q 697 717 715 668 q 644 797 678 765 q 566 845 611 829 q 467 861 521 861 q 367 845 413 861 q 289 797 322 829 q 236 717 256 765 q 215 603 217 668 q 213 486 213 540 q 215 369 213 432 q 236 256 217 304 q 289 175 256 207 q 367 127 322 143 q 467 111 413 111 q 566 127 521 111 q 644 175 611 143 q 697 256 678 207 q 718 369 715 304 q 721 486 721 432 q 718 603 721 540 m 467 1035 q 385 1050 419 1035 q 330 1090 351 1065 q 298 1147 308 1115 q 288 1210 288 1178 q 294 1228 288 1221 q 314 1236 301 1236 l 358 1236 q 378 1228 371 1236 q 385 1210 385 1221 q 407 1150 385 1174 q 467 1126 429 1126 q 526 1150 504 1126 q 549 1210 549 1174 q 556 1228 549 1221 q 575 1236 563 1236 l 619 1236 q 639 1228 632 1236 q 646 1210 646 1221 q 635 1147 646 1178 q 603 1090 625 1115 q 548 1050 582 1065 q 467 1035 514 1035 z "},"Ô":{"ha":933,"x_min":79,"x_max":854,"o":"m 83 610 q 110 756 85 688 q 185 876 136 825 q 304 956 233 926 q 467 986 375 986 q 629 956 558 986 q 749 876 700 926 q 823 756 797 825 q 850 610 849 688 q 850 363 854 486 q 822 216 847 285 q 747 96 796 147 q 628 15 699 44 q 467 -14 558 -14 q 305 15 375 -14 q 186 96 235 44 q 112 216 138 147 q 83 363 86 285 q 83 610 79 486 m 718 603 q 697 717 715 668 q 644 797 678 765 q 566 845 611 829 q 467 861 521 861 q 367 845 413 861 q 289 797 322 829 q 236 717 256 765 q 215 603 217 668 q 213 486 213 540 q 215 369 213 432 q 236 256 217 304 q 289 175 256 207 q 367 127 322 143 q 467 111 413 111 q 566 127 521 111 q 644 175 611 143 q 697 256 678 207 q 718 369 715 304 q 721 486 721 432 q 718 603 721 540 m 488 1236 q 514 1231 503 1236 q 539 1210 525 1225 l 667 1082 q 674 1064 674 1075 q 651 1042 674 1042 l 615 1042 q 593 1045 601 1042 q 572 1057 585 1049 l 467 1128 l 361 1057 q 340 1045 349 1049 q 318 1042 332 1042 l 282 1042 q 260 1064 260 1042 q 267 1082 260 1075 l 394 1210 q 419 1231 408 1225 q 446 1236 431 1236 l 488 1236 z "},"Ö":{"ha":933,"x_min":79,"x_max":854,"o":"m 83 610 q 110 756 85 688 q 185 876 136 825 q 304 956 233 926 q 467 986 375 986 q 629 956 558 986 q 749 876 700 926 q 823 756 797 825 q 850 610 849 688 q 850 363 854 486 q 822 216 847 285 q 747 96 796 147 q 628 15 699 44 q 467 -14 558 -14 q 305 15 375 -14 q 186 96 235 44 q 112 216 138 147 q 83 363 86 285 q 83 610 79 486 m 718 603 q 697 717 715 668 q 644 797 678 765 q 566 845 611 829 q 467 861 521 861 q 367 845 413 861 q 289 797 322 829 q 236 717 256 765 q 215 603 217 668 q 213 486 213 540 q 215 369 213 432 q 236 256 217 304 q 289 175 256 207 q 367 127 322 143 q 467 111 413 111 q 566 127 521 111 q 644 175 611 143 q 697 256 678 207 q 718 369 715 304 q 721 486 721 432 q 718 603 721 540 m 397 1079 q 386 1053 397 1064 q 360 1042 375 1042 l 281 1042 q 254 1053 265 1042 q 243 1079 243 1064 l 243 1158 q 254 1185 243 1174 q 281 1196 265 1196 l 360 1196 q 386 1185 375 1196 q 397 1158 397 1174 l 397 1079 m 690 1079 q 679 1053 690 1064 q 653 1042 668 1042 l 574 1042 q 547 1053 558 1042 q 536 1079 536 1064 l 536 1158 q 547 1185 536 1174 q 574 1196 558 1196 l 653 1196 q 679 1185 668 1196 q 690 1158 690 1174 l 690 1079 z "},"Ò":{"ha":933,"x_min":79,"x_max":854,"o":"m 83 610 q 110 756 85 688 q 185 876 136 825 q 304 956 233 926 q 467 986 375 986 q 629 956 558 986 q 749 876 700 926 q 823 756 797 825 q 850 610 849 688 q 850 363 854 486 q 822 216 847 285 q 747 96 796 147 q 628 15 699 44 q 467 -14 558 -14 q 305 15 375 -14 q 186 96 235 44 q 112 216 138 147 q 83 363 86 285 q 83 610 79 486 m 718 603 q 697 717 715 668 q 644 797 678 765 q 566 845 611 829 q 467 861 521 861 q 367 845 413 861 q 289 797 322 829 q 236 717 256 765 q 215 603 217 668 q 213 486 213 540 q 215 369 213 432 q 236 256 217 304 q 289 175 256 207 q 367 127 322 143 q 467 111 413 111 q 566 127 521 111 q 644 175 611 143 q 697 256 678 207 q 718 369 715 304 q 721 486 721 432 q 718 603 721 540 m 526 1082 q 533 1064 533 1075 q 511 1042 533 1042 l 453 1042 q 418 1049 431 1042 q 394 1065 406 1056 l 240 1192 q 233 1208 233 1199 q 260 1236 233 1236 l 369 1236 q 395 1232 385 1236 q 421 1210 406 1228 l 526 1082 z "},"Ő":{"ha":933,"x_min":79,"x_max":854,"o":"m 83 610 q 110 756 85 688 q 185 876 136 825 q 304 956 233 926 q 467 986 375 986 q 629 956 558 986 q 749 876 700 926 q 823 756 797 825 q 850 610 849 688 q 850 363 854 486 q 822 216 847 285 q 747 96 796 147 q 628 15 699 44 q 467 -14 558 -14 q 305 15 375 -14 q 186 96 235 44 q 112 216 138 147 q 83 363 86 285 q 83 610 79 486 m 718 603 q 697 717 715 668 q 644 797 678 765 q 566 845 611 829 q 467 861 521 861 q 367 845 413 861 q 289 797 322 829 q 236 717 256 765 q 215 603 217 668 q 213 486 213 540 q 215 369 213 432 q 236 256 217 304 q 289 175 256 207 q 367 127 322 143 q 467 111 413 111 q 566 127 521 111 q 644 175 611 143 q 697 256 678 207 q 718 369 715 304 q 721 486 721 432 q 718 603 721 540 m 336 1210 q 354 1230 343 1224 q 388 1236 365 1236 l 490 1236 q 518 1210 518 1236 q 510 1192 518 1200 l 389 1061 q 342 1042 372 1042 l 296 1042 q 274 1064 274 1042 q 276 1075 274 1069 q 281 1085 278 1081 l 336 1210 m 589 1210 q 607 1230 596 1224 q 640 1236 618 1236 l 743 1236 q 771 1210 771 1236 q 763 1192 771 1200 l 642 1061 q 594 1042 625 1042 l 549 1042 q 526 1064 526 1042 q 528 1075 526 1069 q 533 1085 531 1081 l 589 1210 z "},"Ō":{"ha":933,"x_min":79,"x_max":854,"o":"m 83 610 q 110 756 85 688 q 185 876 136 825 q 304 956 233 926 q 467 986 375 986 q 629 956 558 986 q 749 876 700 926 q 823 756 797 825 q 850 610 849 688 q 850 363 854 486 q 822 216 847 285 q 747 96 796 147 q 628 15 699 44 q 467 -14 558 -14 q 305 15 375 -14 q 186 96 235 44 q 112 216 138 147 q 83 363 86 285 q 83 610 79 486 m 718 603 q 697 717 715 668 q 644 797 678 765 q 566 845 611 829 q 467 861 521 861 q 367 845 413 861 q 289 797 322 829 q 236 717 256 765 q 215 603 217 668 q 213 486 213 540 q 215 369 213 432 q 236 256 217 304 q 289 175 256 207 q 367 127 322 143 q 467 111 413 111 q 566 127 521 111 q 644 175 611 143 q 697 256 678 207 q 718 369 715 304 q 721 486 721 432 q 718 603 721 540 m 308 1042 q 282 1053 293 1042 q 271 1079 271 1064 l 271 1129 q 282 1156 271 1144 q 308 1167 293 1167 l 626 1167 q 653 1156 642 1167 q 664 1129 664 1144 l 664 1079 q 653 1053 664 1064 q 626 1042 642 1042 l 308 1042 z "},"Ø":{"ha":957,"x_min":11,"x_max":944,"o":"m 96 603 q 123 753 97 683 q 197 875 149 824 q 317 956 246 926 q 479 986 388 986 q 622 964 558 986 q 732 902 685 942 q 810 808 779 863 q 853 690 840 754 l 900 708 q 915 713 910 713 q 936 704 928 713 q 944 683 944 696 l 944 644 q 914 599 944 610 l 863 579 q 865 475 865 524 q 863 369 865 426 q 834 219 860 289 q 760 97 808 149 q 641 16 711 46 q 479 -14 571 -14 q 337 8 400 -14 q 226 69 274 31 q 149 163 179 108 q 106 282 119 217 l 56 263 q 40 258 44 258 q 19 267 28 258 q 11 288 11 275 l 11 326 q 42 372 11 361 l 94 393 q 93 496 93 447 q 96 603 93 544 m 228 603 q 225 522 225 560 q 225 444 225 483 l 728 640 q 646 807 713 753 q 479 861 579 861 q 380 845 425 861 q 301 797 335 829 q 249 717 268 765 q 228 603 229 668 m 731 369 q 733 450 732 413 q 732 528 733 488 l 231 331 q 312 165 244 218 q 479 111 379 111 q 578 127 533 111 q 657 175 624 143 q 709 256 690 207 q 731 369 728 304 z "},"Ǿ":{"ha":957,"x_min":11,"x_max":944,"o":"m 518 1210 q 544 1232 533 1228 q 569 1236 554 1236 l 679 1236 q 706 1208 706 1236 q 699 1192 706 1199 l 544 1065 q 521 1049 533 1056 q 486 1042 508 1042 l 428 1042 q 406 1064 406 1042 q 413 1082 406 1075 l 518 1210 m 96 603 q 123 753 97 683 q 197 875 149 824 q 317 956 246 926 q 479 986 388 986 q 622 964 558 986 q 732 902 685 942 q 810 808 779 863 q 853 690 840 754 l 900 708 q 915 713 910 713 q 936 704 928 713 q 944 683 944 696 l 944 644 q 914 599 944 610 l 863 579 q 865 475 865 524 q 863 369 865 426 q 834 219 860 289 q 760 97 808 149 q 641 16 711 46 q 479 -14 571 -14 q 337 8 400 -14 q 226 69 274 31 q 149 163 179 108 q 106 282 119 217 l 56 263 q 40 258 44 258 q 19 267 28 258 q 11 288 11 275 l 11 326 q 42 372 11 361 l 94 393 q 93 496 93 447 q 96 603 93 544 m 228 603 q 225 522 225 560 q 225 444 225 483 l 728 640 q 646 807 713 753 q 479 861 579 861 q 380 845 425 861 q 301 797 335 829 q 249 717 268 765 q 228 603 229 668 m 731 369 q 733 450 732 413 q 732 528 733 488 l 231 331 q 312 165 244 218 q 479 111 379 111 q 578 127 533 111 q 657 175 624 143 q 709 256 690 207 q 731 369 728 304 z "},"Õ":{"ha":933,"x_min":79,"x_max":854,"o":"m 83 610 q 110 756 85 688 q 185 876 136 825 q 304 956 233 926 q 467 986 375 986 q 629 956 558 986 q 749 876 700 926 q 823 756 797 825 q 850 610 849 688 q 850 363 854 486 q 822 216 847 285 q 747 96 796 147 q 628 15 699 44 q 467 -14 558 -14 q 305 15 375 -14 q 186 96 235 44 q 112 216 138 147 q 83 363 86 285 q 83 610 79 486 m 718 603 q 697 717 715 668 q 644 797 678 765 q 566 845 611 829 q 467 861 521 861 q 367 845 413 861 q 289 797 322 829 q 236 717 256 765 q 215 603 217 668 q 213 486 213 540 q 215 369 213 432 q 236 256 217 304 q 289 175 256 207 q 367 127 322 143 q 467 111 413 111 q 566 127 521 111 q 644 175 611 143 q 697 256 678 207 q 718 369 715 304 q 721 486 721 432 q 718 603 721 540 m 556 1035 q 502 1042 524 1035 q 463 1057 481 1049 q 431 1072 446 1065 q 397 1079 415 1079 q 374 1074 381 1079 q 363 1060 367 1068 q 353 1047 358 1053 q 338 1042 349 1042 l 286 1042 q 267 1049 274 1042 q 260 1068 260 1057 q 266 1106 260 1083 q 287 1150 272 1129 q 324 1186 301 1171 q 379 1201 347 1201 q 433 1194 411 1201 q 471 1179 454 1188 q 503 1164 488 1171 q 538 1157 518 1157 q 561 1163 554 1157 q 572 1176 568 1168 q 581 1189 576 1183 q 597 1194 586 1194 l 649 1194 q 668 1187 661 1194 q 675 1168 675 1179 q 669 1130 675 1153 q 648 1086 663 1107 q 610 1050 633 1065 q 556 1035 588 1035 z "},"Œ":{"ha":1278,"x_min":81,"x_max":1211,"o":"m 1174 125 q 1200 114 1189 125 q 1211 88 1211 103 l 1211 38 q 1200 11 1211 22 q 1174 0 1189 0 l 472 0 q 315 26 386 0 q 193 100 244 51 q 113 219 142 149 q 82 376 83 289 q 81 486 81 439 q 82 596 81 533 q 113 753 83 683 q 196 872 143 824 q 322 947 249 921 q 481 972 394 972 l 1163 972 q 1189 961 1178 972 q 1200 935 1200 950 l 1200 885 q 1189 858 1200 869 q 1163 847 1178 847 l 707 847 l 707 554 l 1132 554 q 1158 543 1147 554 q 1169 517 1169 532 l 1169 467 q 1158 440 1169 451 q 1132 429 1147 429 l 707 429 l 707 125 l 1174 125 m 214 589 q 213 533 214 557 q 213 485 213 508 q 213 438 213 463 q 214 383 214 414 q 228 287 215 333 q 272 204 242 240 q 353 147 303 168 q 479 125 404 125 l 575 125 l 575 847 l 486 847 q 360 826 411 847 q 276 768 308 804 q 230 685 244 732 q 214 589 215 639 z "},"P":{"ha":889,"x_min":119,"x_max":842,"o":"m 507 972 q 635 955 575 972 q 742 901 696 938 q 815 810 788 865 q 842 678 842 754 q 815 545 842 601 q 742 451 788 489 q 635 396 696 414 q 507 378 575 378 l 251 378 l 251 38 q 240 11 251 22 q 214 0 229 0 l 157 0 q 131 11 142 0 q 119 38 119 22 l 119 935 q 131 961 119 950 q 157 972 142 972 l 507 972 m 251 503 l 500 503 q 655 546 600 503 q 710 678 710 589 q 655 807 710 767 q 500 847 600 847 l 251 847 l 251 503 z "},"Q":{"ha":933,"x_min":79,"x_max":854,"o":"m 83 610 q 110 756 85 688 q 185 876 136 825 q 304 956 233 926 q 467 986 375 986 q 629 956 558 986 q 749 876 700 926 q 823 756 797 825 q 850 610 849 688 q 850 363 854 486 q 820 214 847 283 q 743 93 793 144 l 846 -47 q 849 -53 847 -50 q 850 -61 850 -57 q 842 -82 850 -74 q 822 -90 835 -90 l 757 -90 q 718 -78 731 -90 q 699 -58 706 -67 l 640 21 q 467 -14 564 -14 q 305 15 375 -14 q 186 96 235 44 q 112 216 138 147 q 83 363 86 285 q 83 610 79 486 m 718 603 q 697 717 715 668 q 644 797 678 765 q 566 845 611 829 q 467 861 521 861 q 367 845 413 861 q 289 797 322 829 q 236 717 256 765 q 215 603 217 668 q 213 486 213 540 q 215 369 213 432 q 236 256 217 304 q 289 175 256 207 q 367 127 322 143 q 467 111 413 111 q 566 127 521 111 q 644 175 611 143 q 697 256 678 207 q 718 369 715 304 q 721 486 721 432 q 718 603 721 540 z "},"R":{"ha":904,"x_min":119,"x_max":842,"o":"m 493 972 q 622 956 561 972 q 728 904 682 939 q 801 815 774 869 q 828 685 828 761 q 772 506 828 572 q 628 411 715 439 l 838 46 q 842 31 842 38 q 833 9 842 18 q 811 0 824 0 l 751 0 q 710 14 724 0 q 692 38 697 28 l 490 392 l 251 392 l 251 38 q 240 11 251 22 q 214 0 229 0 l 157 0 q 131 11 142 0 q 119 38 119 22 l 119 935 q 131 961 119 950 q 157 972 142 972 l 493 972 m 251 517 l 486 517 q 641 556 586 517 q 696 685 696 596 q 641 810 696 774 q 486 847 586 847 l 251 847 l 251 517 z "},"Ŕ":{"ha":904,"x_min":119,"x_max":842,"o":"m 493 972 q 622 956 561 972 q 728 904 682 939 q 801 815 774 869 q 828 685 828 761 q 772 506 828 572 q 628 411 715 439 l 838 46 q 842 31 842 38 q 833 9 842 18 q 811 0 824 0 l 751 0 q 710 14 724 0 q 692 38 697 28 l 490 392 l 251 392 l 251 38 q 240 11 251 22 q 214 0 229 0 l 157 0 q 131 11 142 0 q 119 38 119 22 l 119 935 q 131 961 119 950 q 157 972 142 972 l 493 972 m 251 517 l 486 517 q 641 556 586 517 q 696 685 696 596 q 641 810 696 774 q 486 847 586 847 l 251 847 l 251 517 m 446 1210 q 472 1232 461 1228 q 497 1236 482 1236 l 607 1236 q 633 1208 633 1236 q 626 1192 633 1199 l 472 1065 q 449 1049 461 1056 q 414 1042 436 1042 l 356 1042 q 333 1064 333 1042 q 340 1082 333 1075 l 446 1210 z "},"Ř":{"ha":904,"x_min":119,"x_max":842,"o":"m 493 972 q 622 956 561 972 q 728 904 682 939 q 801 815 774 869 q 828 685 828 761 q 772 506 828 572 q 628 411 715 439 l 838 46 q 842 31 842 38 q 833 9 842 18 q 811 0 824 0 l 751 0 q 710 14 724 0 q 692 38 697 28 l 490 392 l 251 392 l 251 38 q 240 11 251 22 q 214 0 229 0 l 157 0 q 131 11 142 0 q 119 38 119 22 l 119 935 q 131 961 119 950 q 157 972 142 972 l 493 972 m 251 517 l 486 517 q 641 556 586 517 q 696 685 696 596 q 641 810 696 774 q 486 847 586 847 l 251 847 l 251 517 m 410 1042 q 383 1047 394 1042 q 358 1068 372 1053 l 231 1196 q 224 1214 224 1203 q 246 1236 224 1236 l 282 1236 q 304 1233 296 1236 q 325 1221 313 1229 l 431 1150 l 536 1221 q 557 1233 549 1229 q 579 1236 565 1236 l 615 1236 q 638 1214 638 1236 q 631 1196 638 1203 l 503 1068 q 478 1047 489 1053 q 451 1042 467 1042 l 410 1042 z "},"Ŗ":{"ha":904,"x_min":119,"x_max":842,"o":"m 493 972 q 622 956 561 972 q 728 904 682 939 q 801 815 774 869 q 828 685 828 761 q 772 506 828 572 q 628 411 715 439 l 838 46 q 842 31 842 38 q 833 9 842 18 q 811 0 824 0 l 751 0 q 710 14 724 0 q 692 38 697 28 l 490 392 l 251 392 l 251 38 q 240 11 251 22 q 214 0 229 0 l 157 0 q 131 11 142 0 q 119 38 119 22 l 119 935 q 131 961 119 950 q 157 972 142 972 l 493 972 m 251 517 l 486 517 q 641 556 586 517 q 696 685 696 596 q 641 810 696 774 q 486 847 586 847 l 251 847 l 251 517 m 357 -124 q 374 -87 360 -104 q 417 -69 389 -69 l 497 -69 q 519 -78 510 -69 q 528 -100 528 -87 q 526 -110 528 -106 l 451 -303 q 433 -332 446 -317 q 392 -347 419 -347 l 358 -347 q 337 -338 346 -347 q 328 -317 328 -329 l 328 -314 l 357 -124 z "},"S":{"ha":858,"x_min":53,"x_max":799,"o":"m 418 986 q 567 960 503 986 q 677 895 632 933 q 746 813 722 857 q 771 735 769 769 q 763 713 772 722 q 740 704 753 704 l 683 704 q 659 710 668 704 q 640 735 650 715 q 617 770 633 749 q 574 812 601 792 q 508 847 547 832 q 418 861 469 861 q 344 852 379 861 q 281 825 308 843 q 236 780 253 807 q 219 717 219 753 q 235 656 219 681 q 287 610 251 631 q 376 574 322 590 q 508 536 431 557 q 642 490 588 515 q 732 434 697 465 q 783 362 767 403 q 799 269 799 321 q 772 155 799 207 q 696 65 744 103 q 578 7 647 28 q 425 -14 510 -14 q 276 10 344 -14 q 160 71 208 33 q 83 154 111 108 q 53 244 54 200 q 62 266 53 257 q 83 275 71 275 l 140 275 q 165 269 154 275 q 183 244 175 264 q 209 202 192 225 q 256 159 226 179 q 326 125 285 139 q 425 111 368 111 q 517 122 474 111 q 594 154 561 133 q 647 204 628 175 q 667 269 667 233 q 644 331 667 306 q 581 378 622 357 q 478 416 539 399 q 342 453 418 433 q 224 497 272 471 q 144 556 175 522 q 101 629 114 589 q 88 717 88 669 q 108 817 88 768 q 170 903 129 865 q 273 963 211 940 q 418 986 335 986 z "},"Ś":{"ha":858,"x_min":53,"x_max":799,"o":"m 418 986 q 567 960 503 986 q 677 895 632 933 q 746 813 722 857 q 771 735 769 769 q 763 713 772 722 q 740 704 753 704 l 683 704 q 659 710 668 704 q 640 735 650 715 q 617 770 633 749 q 574 812 601 792 q 508 847 547 832 q 418 861 469 861 q 344 852 379 861 q 281 825 308 843 q 236 780 253 807 q 219 717 219 753 q 235 656 219 681 q 287 610 251 631 q 376 574 322 590 q 508 536 431 557 q 642 490 588 515 q 732 434 697 465 q 783 362 767 403 q 799 269 799 321 q 772 155 799 207 q 696 65 744 103 q 578 7 647 28 q 425 -14 510 -14 q 276 10 344 -14 q 160 71 208 33 q 83 154 111 108 q 53 244 54 200 q 62 266 53 257 q 83 275 71 275 l 140 275 q 165 269 154 275 q 183 244 175 264 q 209 202 192 225 q 256 159 226 179 q 326 125 285 139 q 425 111 368 111 q 517 122 474 111 q 594 154 561 133 q 647 204 628 175 q 667 269 667 233 q 644 331 667 306 q 581 378 622 357 q 478 416 539 399 q 342 453 418 433 q 224 497 272 471 q 144 556 175 522 q 101 629 114 589 q 88 717 88 669 q 108 817 88 768 q 170 903 129 865 q 273 963 211 940 q 418 986 335 986 m 471 1210 q 497 1232 486 1228 q 522 1236 507 1236 l 632 1236 q 658 1208 658 1236 q 651 1192 658 1199 l 497 1065 q 474 1049 486 1056 q 439 1042 461 1042 l 381 1042 q 358 1064 358 1042 q 365 1082 358 1075 l 471 1210 z "},"Š":{"ha":858,"x_min":53,"x_max":799,"o":"m 418 986 q 567 960 503 986 q 677 895 632 933 q 746 813 722 857 q 771 735 769 769 q 763 713 772 722 q 740 704 753 704 l 683 704 q 659 710 668 704 q 640 735 650 715 q 617 770 633 749 q 574 812 601 792 q 508 847 547 832 q 418 861 469 861 q 344 852 379 861 q 281 825 308 843 q 236 780 253 807 q 219 717 219 753 q 235 656 219 681 q 287 610 251 631 q 376 574 322 590 q 508 536 431 557 q 642 490 588 515 q 732 434 697 465 q 783 362 767 403 q 799 269 799 321 q 772 155 799 207 q 696 65 744 103 q 578 7 647 28 q 425 -14 510 -14 q 276 10 344 -14 q 160 71 208 33 q 83 154 111 108 q 53 244 54 200 q 62 266 53 257 q 83 275 71 275 l 140 275 q 165 269 154 275 q 183 244 175 264 q 209 202 192 225 q 256 159 226 179 q 326 125 285 139 q 425 111 368 111 q 517 122 474 111 q 594 154 561 133 q 647 204 628 175 q 667 269 667 233 q 644 331 667 306 q 581 378 622 357 q 478 416 539 399 q 342 453 418 433 q 224 497 272 471 q 144 556 175 522 q 101 629 114 589 q 88 717 88 669 q 108 817 88 768 q 170 903 129 865 q 273 963 211 940 q 418 986 335 986 m 404 1042 q 378 1047 389 1042 q 353 1068 367 1053 l 225 1196 q 218 1214 218 1203 q 240 1236 218 1236 l 276 1236 q 299 1233 290 1236 q 319 1221 307 1229 l 425 1150 l 531 1221 q 551 1233 543 1229 q 574 1236 560 1236 l 610 1236 q 632 1214 632 1236 q 625 1196 632 1203 l 497 1068 q 472 1047 483 1053 q 446 1042 461 1042 l 404 1042 z "},"Ş":{"ha":858,"x_min":53,"x_max":799,"o":"m 418 986 q 567 960 503 986 q 677 895 632 933 q 746 813 722 857 q 771 735 769 769 q 763 713 772 722 q 740 704 753 704 l 683 704 q 659 710 668 704 q 640 735 650 715 q 617 770 633 749 q 574 812 601 792 q 508 847 547 832 q 418 861 469 861 q 344 852 379 861 q 281 825 308 843 q 236 780 253 807 q 219 717 219 753 q 235 656 219 681 q 287 610 251 631 q 376 574 322 590 q 508 536 431 557 q 642 490 588 515 q 732 434 697 465 q 783 362 767 403 q 799 269 799 321 q 772 156 799 207 q 697 67 746 104 q 581 8 649 29 q 429 -14 513 -14 l 400 -78 q 449 -67 418 -67 q 524 -100 494 -67 q 554 -183 554 -133 q 522 -269 554 -233 q 417 -306 490 -306 q 369 -298 392 -306 q 329 -279 346 -290 q 306 -256 313 -268 q 310 -235 300 -244 l 329 -217 q 348 -208 340 -207 q 365 -216 356 -210 q 385 -228 374 -222 q 417 -235 397 -235 q 476 -186 476 -235 q 417 -137 476 -137 q 389 -141 400 -137 q 370 -147 378 -144 q 356 -149 363 -150 q 342 -140 350 -149 l 318 -115 q 314 -96 311 -107 q 321 -74 317 -85 l 349 -7 q 229 29 283 3 q 136 90 175 56 q 76 165 97 125 q 53 244 54 206 q 62 266 53 257 q 83 275 71 275 l 140 275 q 165 269 154 275 q 183 244 175 264 q 209 202 192 225 q 256 159 226 179 q 326 125 285 139 q 425 111 368 111 q 517 122 474 111 q 594 154 561 133 q 647 204 628 175 q 667 269 667 233 q 644 331 667 306 q 581 378 622 357 q 478 416 539 399 q 342 453 418 433 q 224 497 272 471 q 144 556 175 522 q 101 629 114 589 q 88 717 88 669 q 108 817 88 768 q 170 903 129 865 q 273 963 211 940 q 418 986 335 986 z "},"Ŝ":{"ha":858,"x_min":53,"x_max":799,"o":"m 418 986 q 567 960 503 986 q 677 895 632 933 q 746 813 722 857 q 771 735 769 769 q 763 713 772 722 q 740 704 753 704 l 683 704 q 659 710 668 704 q 640 735 650 715 q 617 770 633 749 q 574 812 601 792 q 508 847 547 832 q 418 861 469 861 q 344 852 379 861 q 281 825 308 843 q 236 780 253 807 q 219 717 219 753 q 235 656 219 681 q 287 610 251 631 q 376 574 322 590 q 508 536 431 557 q 642 490 588 515 q 732 434 697 465 q 783 362 767 403 q 799 269 799 321 q 772 155 799 207 q 696 65 744 103 q 578 7 647 28 q 425 -14 510 -14 q 276 10 344 -14 q 160 71 208 33 q 83 154 111 108 q 53 244 54 200 q 62 266 53 257 q 83 275 71 275 l 140 275 q 165 269 154 275 q 183 244 175 264 q 209 202 192 225 q 256 159 226 179 q 326 125 285 139 q 425 111 368 111 q 517 122 474 111 q 594 154 561 133 q 647 204 628 175 q 667 269 667 233 q 644 331 667 306 q 581 378 622 357 q 478 416 539 399 q 342 453 418 433 q 224 497 272 471 q 144 556 175 522 q 101 629 114 589 q 88 717 88 669 q 108 817 88 768 q 170 903 129 865 q 273 963 211 940 q 418 986 335 986 m 446 1236 q 472 1231 461 1236 q 497 1210 483 1225 l 625 1082 q 632 1064 632 1075 q 610 1042 632 1042 l 574 1042 q 551 1045 560 1042 q 531 1057 543 1049 l 425 1128 l 319 1057 q 299 1045 307 1049 q 276 1042 290 1042 l 240 1042 q 218 1064 218 1042 q 225 1082 218 1075 l 353 1210 q 378 1231 367 1225 q 404 1236 389 1236 l 446 1236 z "},"Ș":{"ha":858,"x_min":53,"x_max":799,"o":"m 418 986 q 567 960 503 986 q 677 895 632 933 q 746 813 722 857 q 771 735 769 769 q 763 713 772 722 q 740 704 753 704 l 683 704 q 659 710 668 704 q 640 735 650 715 q 617 770 633 749 q 574 812 601 792 q 508 847 547 832 q 418 861 469 861 q 344 852 379 861 q 281 825 308 843 q 236 780 253 807 q 219 717 219 753 q 235 656 219 681 q 287 610 251 631 q 376 574 322 590 q 508 536 431 557 q 642 490 588 515 q 732 434 697 465 q 783 362 767 403 q 799 269 799 321 q 772 155 799 207 q 696 65 744 103 q 578 7 647 28 q 425 -14 510 -14 q 276 10 344 -14 q 160 71 208 33 q 83 154 111 108 q 53 244 54 200 q 62 266 53 257 q 83 275 71 275 l 140 275 q 165 269 154 275 q 183 244 175 264 q 209 202 192 225 q 256 159 226 179 q 326 125 285 139 q 425 111 368 111 q 517 122 474 111 q 594 154 561 133 q 647 204 628 175 q 667 269 667 233 q 644 331 667 306 q 581 378 622 357 q 478 416 539 399 q 342 453 418 433 q 224 497 272 471 q 144 556 175 522 q 101 629 114 589 q 88 717 88 669 q 108 817 88 768 q 170 903 129 865 q 273 963 211 940 q 418 986 335 986 m 338 -124 q 355 -87 340 -104 q 397 -69 369 -69 l 478 -69 q 499 -78 490 -69 q 508 -100 508 -87 q 507 -110 508 -106 l 432 -303 q 413 -332 426 -317 q 372 -347 400 -347 l 339 -347 q 317 -338 326 -347 q 308 -317 308 -329 l 308 -314 l 338 -124 z "},"T":{"ha":790,"x_min":32,"x_max":758,"o":"m 721 972 q 747 961 736 972 q 758 935 758 950 l 758 885 q 747 858 758 869 q 721 847 736 847 l 461 847 l 461 38 q 450 11 461 22 q 424 0 439 0 l 367 0 q 340 11 351 0 q 329 38 329 22 l 329 847 l 69 847 q 43 858 54 847 q 32 885 32 869 l 32 935 q 43 961 32 950 q 69 972 54 972 l 721 972 z "},"Ŧ":{"ha":804,"x_min":39,"x_max":765,"o":"m 728 972 q 754 961 743 972 q 765 935 765 950 l 765 885 q 754 858 765 869 q 728 847 743 847 l 468 847 l 468 574 l 617 574 q 643 563 632 574 q 654 536 654 551 l 654 493 q 643 467 654 478 q 617 456 632 456 l 468 456 l 468 38 q 457 11 468 22 q 431 0 446 0 l 374 0 q 347 11 358 0 q 336 38 336 22 l 336 456 l 188 456 q 161 467 172 456 q 150 493 150 478 l 150 536 q 161 563 150 551 q 188 574 172 574 l 336 574 l 336 847 l 76 847 q 50 858 61 847 q 39 885 39 869 l 39 935 q 50 961 39 950 q 76 972 61 972 l 728 972 z "},"Ť":{"ha":790,"x_min":32,"x_max":758,"o":"m 721 972 q 747 961 736 972 q 758 935 758 950 l 758 885 q 747 858 758 869 q 721 847 736 847 l 461 847 l 461 38 q 450 11 461 22 q 424 0 439 0 l 367 0 q 340 11 351 0 q 329 38 329 22 l 329 847 l 69 847 q 43 858 54 847 q 32 885 32 869 l 32 935 q 43 961 32 950 q 69 972 54 972 l 721 972 m 374 1042 q 347 1047 358 1042 q 322 1068 336 1053 l 194 1196 q 188 1214 188 1203 q 210 1236 188 1236 l 246 1236 q 268 1233 260 1236 q 289 1221 276 1229 l 394 1150 l 500 1221 q 521 1233 513 1229 q 543 1236 529 1236 l 579 1236 q 601 1214 601 1236 q 594 1196 601 1203 l 467 1068 q 442 1047 453 1053 q 415 1042 431 1042 l 374 1042 z "},"Ţ":{"ha":790,"x_min":32,"x_max":758,"o":"m 721 972 q 747 961 736 972 q 758 935 758 950 l 758 885 q 747 858 758 869 q 721 847 736 847 l 461 847 l 461 38 q 450 11 461 22 q 424 0 439 0 l 367 0 q 340 11 351 0 q 329 38 329 22 l 329 847 l 69 847 q 43 858 54 847 q 32 885 32 869 l 32 935 q 43 961 32 950 q 69 972 54 972 l 721 972 m 307 -124 q 324 -87 310 -104 q 367 -69 339 -69 l 447 -69 q 469 -78 460 -69 q 478 -100 478 -87 q 476 -110 478 -106 l 401 -303 q 383 -332 396 -317 q 342 -347 369 -347 l 308 -347 q 287 -338 296 -347 q 278 -317 278 -329 l 278 -314 l 307 -124 z "},"U":{"ha":969,"x_min":111,"x_max":858,"o":"m 821 972 q 847 961 836 972 q 858 935 858 950 l 858 379 q 837 222 858 293 q 770 97 815 150 q 654 15 725 44 q 485 -14 583 -14 q 314 15 385 -14 q 198 97 243 44 q 132 222 153 150 q 111 379 111 293 l 111 935 q 122 961 111 950 q 149 972 133 972 l 206 972 q 232 961 221 972 q 243 935 243 950 l 243 372 q 307 170 243 236 q 485 104 371 104 q 663 170 599 104 q 728 372 728 236 l 728 935 q 739 961 728 950 q 765 972 750 972 l 821 972 z "},"Ú":{"ha":969,"x_min":111,"x_max":858,"o":"m 821 972 q 847 961 836 972 q 858 935 858 950 l 858 379 q 837 222 858 293 q 770 97 815 150 q 654 15 725 44 q 485 -14 583 -14 q 314 15 385 -14 q 198 97 243 44 q 132 222 153 150 q 111 379 111 293 l 111 935 q 122 961 111 950 q 149 972 133 972 l 206 972 q 232 961 221 972 q 243 935 243 950 l 243 372 q 307 170 243 236 q 485 104 371 104 q 663 170 599 104 q 728 372 728 236 l 728 935 q 739 961 728 950 q 765 972 750 972 l 821 972 m 532 1210 q 558 1232 547 1228 q 583 1236 568 1236 l 693 1236 q 719 1208 719 1236 q 713 1192 719 1199 l 558 1065 q 535 1049 547 1056 q 500 1042 522 1042 l 442 1042 q 419 1064 419 1042 q 426 1082 419 1075 l 532 1210 z "},"Ŭ":{"ha":969,"x_min":111,"x_max":858,"o":"m 821 972 q 847 961 836 972 q 858 935 858 950 l 858 379 q 837 222 858 293 q 770 97 815 150 q 654 15 725 44 q 485 -14 583 -14 q 314 15 385 -14 q 198 97 243 44 q 132 222 153 150 q 111 379 111 293 l 111 935 q 122 961 111 950 q 149 972 133 972 l 206 972 q 232 961 221 972 q 243 935 243 950 l 243 372 q 307 170 243 236 q 485 104 371 104 q 663 170 599 104 q 728 372 728 236 l 728 935 q 739 961 728 950 q 765 972 750 972 l 821 972 m 485 1035 q 403 1050 438 1035 q 348 1090 369 1065 q 316 1147 326 1115 q 306 1210 306 1178 q 313 1228 306 1221 q 332 1236 319 1236 l 376 1236 q 396 1228 389 1236 q 403 1210 403 1221 q 425 1150 403 1174 q 485 1126 447 1126 q 544 1150 522 1126 q 567 1210 567 1174 q 574 1228 567 1221 q 593 1236 581 1236 l 638 1236 q 657 1228 650 1236 q 664 1210 664 1221 q 653 1147 664 1178 q 622 1090 643 1115 q 566 1050 600 1065 q 485 1035 532 1035 z "},"Û":{"ha":969,"x_min":111,"x_max":858,"o":"m 821 972 q 847 961 836 972 q 858 935 858 950 l 858 379 q 837 222 858 293 q 770 97 815 150 q 654 15 725 44 q 485 -14 583 -14 q 314 15 385 -14 q 198 97 243 44 q 132 222 153 150 q 111 379 111 293 l 111 935 q 122 961 111 950 q 149 972 133 972 l 206 972 q 232 961 221 972 q 243 935 243 950 l 243 372 q 307 170 243 236 q 485 104 371 104 q 663 170 599 104 q 728 372 728 236 l 728 935 q 739 961 728 950 q 765 972 750 972 l 821 972 m 506 1236 q 532 1231 521 1236 q 557 1210 543 1225 l 685 1082 q 692 1064 692 1075 q 669 1042 692 1042 l 633 1042 q 611 1045 619 1042 q 590 1057 603 1049 l 485 1128 l 379 1057 q 358 1045 367 1049 q 336 1042 350 1042 l 300 1042 q 278 1064 278 1042 q 285 1082 278 1075 l 413 1210 q 438 1231 426 1225 q 464 1236 449 1236 l 506 1236 z "},"Ü":{"ha":969,"x_min":111,"x_max":858,"o":"m 821 972 q 847 961 836 972 q 858 935 858 950 l 858 379 q 837 222 858 293 q 770 97 815 150 q 654 15 725 44 q 485 -14 583 -14 q 314 15 385 -14 q 198 97 243 44 q 132 222 153 150 q 111 379 111 293 l 111 935 q 122 961 111 950 q 149 972 133 972 l 206 972 q 232 961 221 972 q 243 935 243 950 l 243 372 q 307 170 243 236 q 485 104 371 104 q 663 170 599 104 q 728 372 728 236 l 728 935 q 739 961 728 950 q 765 972 750 972 l 821 972 m 415 1079 q 404 1053 415 1064 q 378 1042 393 1042 l 299 1042 q 272 1053 283 1042 q 261 1079 261 1064 l 261 1158 q 272 1185 261 1174 q 299 1196 283 1196 l 378 1196 q 404 1185 393 1196 q 415 1158 415 1174 l 415 1079 m 708 1079 q 697 1053 708 1064 q 671 1042 686 1042 l 592 1042 q 565 1053 576 1042 q 554 1079 554 1064 l 554 1158 q 565 1185 554 1174 q 592 1196 576 1196 l 671 1196 q 697 1185 686 1196 q 708 1158 708 1174 l 708 1079 z "},"Ù":{"ha":969,"x_min":111,"x_max":858,"o":"m 821 972 q 847 961 836 972 q 858 935 858 950 l 858 379 q 837 222 858 293 q 770 97 815 150 q 654 15 725 44 q 485 -14 583 -14 q 314 15 385 -14 q 198 97 243 44 q 132 222 153 150 q 111 379 111 293 l 111 935 q 122 961 111 950 q 149 972 133 972 l 206 972 q 232 961 221 972 q 243 935 243 950 l 243 372 q 307 170 243 236 q 485 104 371 104 q 663 170 599 104 q 728 372 728 236 l 728 935 q 739 961 728 950 q 765 972 750 972 l 821 972 m 550 1082 q 557 1064 557 1075 q 535 1042 557 1042 l 476 1042 q 442 1049 454 1042 q 418 1065 429 1056 l 264 1192 q 257 1208 257 1199 q 283 1236 257 1236 l 393 1236 q 419 1232 408 1236 q 444 1210 429 1228 l 550 1082 z "},"Ű":{"ha":969,"x_min":111,"x_max":858,"o":"m 821 972 q 847 961 836 972 q 858 935 858 950 l 858 379 q 837 222 858 293 q 770 97 815 150 q 654 15 725 44 q 485 -14 583 -14 q 314 15 385 -14 q 198 97 243 44 q 132 222 153 150 q 111 379 111 293 l 111 935 q 122 961 111 950 q 149 972 133 972 l 206 972 q 232 961 221 972 q 243 935 243 950 l 243 372 q 307 170 243 236 q 485 104 371 104 q 663 170 599 104 q 728 372 728 236 l 728 935 q 739 961 728 950 q 765 972 750 972 l 821 972 m 343 1210 q 361 1230 350 1224 q 394 1236 372 1236 l 497 1236 q 525 1210 525 1236 q 517 1192 525 1200 l 396 1061 q 349 1042 379 1042 l 303 1042 q 281 1064 281 1042 q 283 1075 281 1069 q 288 1085 285 1081 l 343 1210 m 596 1210 q 614 1230 603 1224 q 647 1236 625 1236 l 750 1236 q 778 1210 778 1236 q 769 1192 778 1200 l 649 1061 q 601 1042 632 1042 l 556 1042 q 533 1064 533 1042 q 535 1075 533 1069 q 540 1085 538 1081 l 596 1210 z "},"Ū":{"ha":969,"x_min":111,"x_max":858,"o":"m 821 972 q 847 961 836 972 q 858 935 858 950 l 858 379 q 837 222 858 293 q 770 97 815 150 q 654 15 725 44 q 485 -14 583 -14 q 314 15 385 -14 q 198 97 243 44 q 132 222 153 150 q 111 379 111 293 l 111 935 q 122 961 111 950 q 149 972 133 972 l 206 972 q 232 961 221 972 q 243 935 243 950 l 243 372 q 307 170 243 236 q 485 104 371 104 q 663 170 599 104 q 728 372 728 236 l 728 935 q 739 961 728 950 q 765 972 750 972 l 821 972 m 326 1042 q 300 1053 311 1042 q 289 1079 289 1064 l 289 1129 q 300 1156 289 1144 q 326 1167 311 1167 l 644 1167 q 671 1156 660 1167 q 682 1129 682 1144 l 682 1079 q 671 1053 682 1064 q 644 1042 660 1042 l 326 1042 z "},"Ų":{"ha":969,"x_min":111,"x_max":858,"o":"m 821 972 q 847 961 836 972 q 858 935 858 950 l 858 379 q 842 240 858 304 q 790 125 825 175 q 702 41 756 75 q 575 -6 649 7 q 513 -34 533 -12 q 493 -103 493 -56 q 585 -206 493 -206 l 606 -206 q 636 -236 636 -206 l 636 -275 q 606 -306 636 -306 l 579 -306 q 501 -292 538 -306 q 438 -253 464 -279 q 396 -190 411 -228 q 381 -103 381 -153 q 385 -51 381 -75 q 399 -7 390 -28 q 267 39 322 6 q 178 123 213 72 q 127 239 143 174 q 111 379 111 304 l 111 935 q 122 961 111 950 q 149 972 133 972 l 206 972 q 232 961 221 972 q 243 935 243 950 l 243 372 q 307 170 243 236 q 485 104 371 104 q 663 170 599 104 q 728 372 728 236 l 728 935 q 739 961 728 950 q 765 972 750 972 l 821 972 z "},"Ů":{"ha":969,"x_min":111,"x_max":858,"o":"m 821 972 q 847 961 836 972 q 858 935 858 950 l 858 379 q 837 222 858 293 q 770 97 815 150 q 654 15 725 44 q 485 -14 583 -14 q 314 15 385 -14 q 198 97 243 44 q 132 222 153 150 q 111 379 111 293 l 111 935 q 122 961 111 950 q 149 972 133 972 l 206 972 q 232 961 221 972 q 243 935 243 950 l 243 372 q 307 170 243 236 q 485 104 371 104 q 663 170 599 104 q 728 372 728 236 l 728 935 q 739 961 728 950 q 765 972 750 972 l 821 972 m 443 1139 q 455 1109 443 1121 q 485 1097 467 1097 q 515 1109 503 1097 q 526 1139 526 1121 q 515 1169 526 1157 q 485 1181 503 1181 q 455 1169 467 1181 q 443 1139 443 1157 m 367 1139 q 401 1219 367 1188 q 485 1250 436 1250 q 568 1219 533 1250 q 603 1139 603 1188 q 568 1059 603 1090 q 485 1028 533 1028 q 401 1059 436 1028 q 367 1139 367 1090 z "},"Ũ":{"ha":969,"x_min":111,"x_max":858,"o":"m 821 972 q 847 961 836 972 q 858 935 858 950 l 858 379 q 837 222 858 293 q 770 97 815 150 q 654 15 725 44 q 485 -14 583 -14 q 314 15 385 -14 q 198 97 243 44 q 132 222 153 150 q 111 379 111 293 l 111 935 q 122 961 111 950 q 149 972 133 972 l 206 972 q 232 961 221 972 q 243 935 243 950 l 243 372 q 307 170 243 236 q 485 104 371 104 q 663 170 599 104 q 728 372 728 236 l 728 935 q 739 961 728 950 q 765 972 750 972 l 821 972 m 574 1035 q 520 1042 542 1035 q 481 1057 499 1049 q 449 1072 464 1065 q 415 1079 433 1079 q 392 1074 399 1079 q 381 1060 385 1068 q 372 1047 376 1053 q 356 1042 367 1042 l 304 1042 q 285 1049 292 1042 q 278 1068 278 1057 q 284 1106 278 1083 q 305 1150 290 1129 q 342 1186 319 1171 q 397 1201 365 1201 q 451 1194 429 1201 q 489 1179 472 1188 q 521 1164 506 1171 q 556 1157 536 1157 q 579 1163 572 1157 q 590 1176 586 1168 q 599 1189 594 1183 q 615 1194 604 1194 l 667 1194 q 686 1187 679 1194 q 693 1168 693 1179 q 687 1130 693 1153 q 666 1086 681 1107 q 628 1050 651 1065 q 574 1035 606 1035 z "},"V":{"ha":899,"x_min":44,"x_max":853,"o":"m 717 938 q 732 960 721 949 q 771 972 743 972 l 822 972 q 844 963 835 972 q 853 942 853 954 q 850 928 853 935 l 550 56 q 523 15 542 31 q 476 0 504 0 l 421 0 q 375 15 393 0 q 349 56 357 31 l 47 928 q 44 942 44 935 q 53 963 44 954 q 75 972 63 972 l 126 972 q 165 960 154 972 q 181 938 176 949 l 449 139 l 717 938 z "},"W":{"ha":1100,"x_min":56,"x_max":1044,"o":"m 574 757 q 608 742 599 757 q 621 717 618 726 l 774 167 l 915 935 q 932 964 919 956 q 958 972 944 972 l 1014 972 q 1035 963 1026 972 q 1044 942 1044 954 q 1043 931 1044 938 l 872 72 q 851 19 865 38 q 804 0 838 0 l 749 0 q 701 20 717 0 q 678 72 686 40 l 550 536 l 422 72 q 399 20 414 40 q 351 0 383 0 l 296 0 q 249 19 263 0 q 228 72 235 38 l 57 931 q 56 942 56 938 q 65 963 56 954 q 86 972 74 972 l 142 972 q 168 964 156 972 q 185 935 181 956 l 326 167 l 479 717 q 492 742 482 726 q 526 757 501 757 l 574 757 l 574 757 z "},"Ẃ":{"ha":1100,"x_min":56,"x_max":1044,"o":"m 574 757 q 608 742 599 757 q 621 717 618 726 l 774 167 l 915 935 q 932 964 919 956 q 958 972 944 972 l 1014 972 q 1035 963 1026 972 q 1044 942 1044 954 q 1043 931 1044 938 l 872 72 q 851 19 865 38 q 804 0 838 0 l 749 0 q 701 20 717 0 q 678 72 686 40 l 550 536 l 422 72 q 399 20 414 40 q 351 0 383 0 l 296 0 q 249 19 263 0 q 228 72 235 38 l 57 931 q 56 942 56 938 q 65 963 56 954 q 86 972 74 972 l 142 972 q 168 964 156 972 q 185 935 181 956 l 326 167 l 479 717 q 492 742 482 726 q 526 757 501 757 l 574 757 l 574 757 m 596 1210 q 622 1232 611 1228 q 647 1236 632 1236 l 757 1236 q 783 1208 783 1236 q 776 1192 783 1199 l 622 1065 q 599 1049 611 1056 q 564 1042 586 1042 l 506 1042 q 483 1064 483 1042 q 490 1082 483 1075 l 596 1210 z "},"Ŵ":{"ha":1100,"x_min":56,"x_max":1044,"o":"m 574 757 q 608 742 599 757 q 621 717 618 726 l 774 167 l 915 935 q 932 964 919 956 q 958 972 944 972 l 1014 972 q 1035 963 1026 972 q 1044 942 1044 954 q 1043 931 1044 938 l 872 72 q 851 19 865 38 q 804 0 838 0 l 749 0 q 701 20 717 0 q 678 72 686 40 l 550 536 l 422 72 q 399 20 414 40 q 351 0 383 0 l 296 0 q 249 19 263 0 q 228 72 235 38 l 57 931 q 56 942 56 938 q 65 963 56 954 q 86 972 74 972 l 142 972 q 168 964 156 972 q 185 935 181 956 l 326 167 l 479 717 q 492 742 482 726 q 526 757 501 757 l 574 757 l 574 757 m 571 1236 q 597 1231 586 1236 q 622 1210 608 1225 l 750 1082 q 757 1064 757 1075 q 735 1042 757 1042 l 699 1042 q 676 1045 685 1042 q 656 1057 668 1049 l 550 1128 l 444 1057 q 424 1045 432 1049 q 401 1042 415 1042 l 365 1042 q 343 1064 343 1042 q 350 1082 343 1075 l 478 1210 q 503 1231 492 1225 q 529 1236 514 1236 l 571 1236 z "},"Ẅ":{"ha":1100,"x_min":56,"x_max":1044,"o":"m 574 757 q 608 742 599 757 q 621 717 618 726 l 774 167 l 915 935 q 932 964 919 956 q 958 972 944 972 l 1014 972 q 1035 963 1026 972 q 1044 942 1044 954 q 1043 931 1044 938 l 872 72 q 851 19 865 38 q 804 0 838 0 l 749 0 q 701 20 717 0 q 678 72 686 40 l 550 536 l 422 72 q 399 20 414 40 q 351 0 383 0 l 296 0 q 249 19 263 0 q 228 72 235 38 l 57 931 q 56 942 56 938 q 65 963 56 954 q 86 972 74 972 l 142 972 q 168 964 156 972 q 185 935 181 956 l 326 167 l 479 717 q 492 742 482 726 q 526 757 501 757 l 574 757 l 574 757 m 481 1079 q 469 1053 481 1064 q 443 1042 458 1042 l 364 1042 q 338 1053 349 1042 q 326 1079 326 1064 l 326 1158 q 338 1185 326 1174 q 364 1196 349 1196 l 443 1196 q 469 1185 458 1196 q 481 1158 481 1174 l 481 1079 m 774 1079 q 763 1053 774 1064 q 736 1042 751 1042 l 657 1042 q 631 1053 642 1042 q 619 1079 619 1064 l 619 1158 q 631 1185 619 1174 q 657 1196 642 1196 l 736 1196 q 763 1185 751 1196 q 774 1158 774 1174 l 774 1079 z "},"Ẁ":{"ha":1100,"x_min":56,"x_max":1044,"o":"m 574 757 q 608 742 599 757 q 621 717 618 726 l 774 167 l 915 935 q 932 964 919 956 q 958 972 944 972 l 1014 972 q 1035 963 1026 972 q 1044 942 1044 954 q 1043 931 1044 938 l 872 72 q 851 19 865 38 q 804 0 838 0 l 749 0 q 701 20 717 0 q 678 72 686 40 l 550 536 l 422 72 q 399 20 414 40 q 351 0 383 0 l 296 0 q 249 19 263 0 q 228 72 235 38 l 57 931 q 56 942 56 938 q 65 963 56 954 q 86 972 74 972 l 142 972 q 168 964 156 972 q 185 935 181 956 l 326 167 l 479 717 q 492 742 482 726 q 526 757 501 757 l 574 757 l 574 757 m 608 1082 q 615 1064 615 1075 q 593 1042 615 1042 l 535 1042 q 500 1049 513 1042 q 476 1065 488 1056 l 322 1192 q 315 1208 315 1199 q 342 1236 315 1236 l 451 1236 q 477 1232 467 1236 q 503 1210 488 1228 l 608 1082 z "},"X":{"ha":886,"x_min":32,"x_max":854,"o":"m 440 390 l 179 32 q 161 12 172 24 q 122 0 150 0 l 63 0 q 41 9 50 0 q 32 31 32 18 q 33 37 32 33 q 36 46 33 40 l 364 496 l 50 926 q 46 942 46 935 q 55 963 46 954 q 76 972 64 972 l 142 972 q 182 958 169 972 q 200 938 194 944 l 447 599 l 689 936 q 707 958 694 943 q 747 972 719 972 l 807 972 q 828 963 819 972 q 838 942 838 954 q 833 926 838 935 l 524 493 l 850 46 q 853 37 853 40 q 854 31 854 33 q 845 9 854 18 q 824 0 836 0 l 758 0 q 719 12 731 0 q 701 32 708 24 l 440 390 z "},"Y":{"ha":893,"x_min":42,"x_max":851,"o":"m 513 38 q 501 11 513 22 q 475 0 490 0 l 418 0 q 392 11 403 0 q 381 38 381 22 l 381 363 l 49 922 q 42 942 42 935 q 51 963 42 954 q 72 972 60 972 l 132 972 q 172 961 160 972 q 190 938 183 950 l 446 496 l 703 938 q 722 961 710 950 q 761 972 733 972 l 821 972 q 842 963 833 972 q 851 942 851 954 q 844 922 851 935 l 513 363 l 513 38 z "},"Ý":{"ha":893,"x_min":42,"x_max":851,"o":"m 513 38 q 501 11 513 22 q 475 0 490 0 l 418 0 q 392 11 403 0 q 381 38 381 22 l 381 363 l 49 922 q 42 942 42 935 q 51 963 42 954 q 72 972 60 972 l 132 972 q 172 961 160 972 q 190 938 183 950 l 446 496 l 703 938 q 722 961 710 950 q 761 972 733 972 l 821 972 q 842 963 833 972 q 851 942 851 954 q 844 922 851 935 l 513 363 l 513 38 m 489 1210 q 515 1232 504 1228 q 540 1236 525 1236 l 650 1236 q 676 1208 676 1236 q 669 1192 676 1199 l 515 1065 q 492 1049 504 1056 q 457 1042 479 1042 l 399 1042 q 376 1064 376 1042 q 383 1082 376 1075 l 489 1210 z "},"Ŷ":{"ha":893,"x_min":42,"x_max":851,"o":"m 513 38 q 501 11 513 22 q 475 0 490 0 l 418 0 q 392 11 403 0 q 381 38 381 22 l 381 363 l 49 922 q 42 942 42 935 q 51 963 42 954 q 72 972 60 972 l 132 972 q 172 961 160 972 q 190 938 183 950 l 446 496 l 703 938 q 722 961 710 950 q 761 972 733 972 l 821 972 q 842 963 833 972 q 851 942 851 954 q 844 922 851 935 l 513 363 l 513 38 m 467 1236 q 493 1231 482 1236 q 518 1210 504 1225 l 646 1082 q 653 1064 653 1075 q 631 1042 653 1042 l 594 1042 q 572 1045 581 1042 q 551 1057 564 1049 l 446 1128 l 340 1057 q 319 1045 328 1049 q 297 1042 311 1042 l 261 1042 q 239 1064 239 1042 q 246 1082 239 1075 l 374 1210 q 399 1231 388 1225 q 425 1236 410 1236 l 467 1236 z "},"Ÿ":{"ha":893,"x_min":42,"x_max":851,"o":"m 513 38 q 501 11 513 22 q 475 0 490 0 l 418 0 q 392 11 403 0 q 381 38 381 22 l 381 363 l 49 922 q 42 942 42 935 q 51 963 42 954 q 72 972 60 972 l 132 972 q 172 961 160 972 q 190 938 183 950 l 446 496 l 703 938 q 722 961 710 950 q 761 972 733 972 l 821 972 q 842 963 833 972 q 851 942 851 954 q 844 922 851 935 l 513 363 l 513 38 m 376 1079 q 365 1053 376 1064 q 339 1042 354 1042 l 260 1042 q 233 1053 244 1042 q 222 1079 222 1064 l 222 1158 q 233 1185 222 1174 q 260 1196 244 1196 l 339 1196 q 365 1185 354 1196 q 376 1158 376 1174 l 376 1079 m 669 1079 q 658 1053 669 1064 q 632 1042 647 1042 l 553 1042 q 526 1053 538 1042 q 515 1079 515 1064 l 515 1158 q 526 1185 515 1174 q 553 1196 538 1196 l 632 1196 q 658 1185 647 1196 q 669 1158 669 1174 l 669 1079 z "},"Ỳ":{"ha":893,"x_min":42,"x_max":851,"o":"m 513 38 q 501 11 513 22 q 475 0 490 0 l 418 0 q 392 11 403 0 q 381 38 381 22 l 381 363 l 49 922 q 42 942 42 935 q 51 963 42 954 q 72 972 60 972 l 132 972 q 172 961 160 972 q 190 938 183 950 l 446 496 l 703 938 q 722 961 710 950 q 761 972 733 972 l 821 972 q 842 963 833 972 q 851 942 851 954 q 844 922 851 935 l 513 363 l 513 38 m 506 1082 q 513 1064 513 1075 q 490 1042 513 1042 l 432 1042 q 397 1049 410 1042 q 374 1065 385 1056 l 219 1192 q 213 1208 213 1199 q 239 1236 213 1236 l 349 1236 q 374 1232 364 1236 q 400 1210 385 1228 l 506 1082 z "},"Z":{"ha":831,"x_min":54,"x_max":776,"o":"m 739 125 q 765 114 754 125 q 776 88 776 103 l 776 38 q 765 11 776 22 q 739 0 754 0 l 92 0 q 65 11 76 0 q 54 38 54 22 l 54 88 q 63 117 54 106 q 75 136 71 129 l 590 847 l 106 847 q 79 858 90 847 q 68 885 68 869 l 68 935 q 79 961 68 950 q 106 972 90 972 l 725 972 q 751 961 740 972 q 763 935 763 950 l 763 885 q 757 859 763 869 q 744 839 751 849 l 226 125 l 739 125 z "},"Ź":{"ha":831,"x_min":54,"x_max":776,"o":"m 739 125 q 765 114 754 125 q 776 88 776 103 l 776 38 q 765 11 776 22 q 739 0 754 0 l 92 0 q 65 11 76 0 q 54 38 54 22 l 54 88 q 63 117 54 106 q 75 136 71 129 l 590 847 l 106 847 q 79 858 90 847 q 68 885 68 869 l 68 935 q 79 961 68 950 q 106 972 90 972 l 725 972 q 751 961 740 972 q 763 935 763 950 l 763 885 q 757 859 763 869 q 744 839 751 849 l 226 125 l 739 125 m 458 1210 q 484 1232 474 1228 q 510 1236 494 1236 l 619 1236 q 646 1208 646 1236 q 639 1192 646 1199 l 485 1065 q 461 1049 474 1056 q 426 1042 449 1042 l 368 1042 q 346 1064 346 1042 q 353 1082 346 1075 l 458 1210 z "},"Ž":{"ha":831,"x_min":54,"x_max":776,"o":"m 739 125 q 765 114 754 125 q 776 88 776 103 l 776 38 q 765 11 776 22 q 739 0 754 0 l 92 0 q 65 11 76 0 q 54 38 54 22 l 54 88 q 63 117 54 106 q 75 136 71 129 l 590 847 l 106 847 q 79 858 90 847 q 68 885 68 869 l 68 935 q 79 961 68 950 q 106 972 90 972 l 725 972 q 751 961 740 972 q 763 935 763 950 l 763 885 q 757 859 763 869 q 744 839 751 849 l 226 125 l 739 125 m 394 1042 q 368 1047 379 1042 q 343 1068 357 1053 l 215 1196 q 208 1214 208 1203 q 231 1236 208 1236 l 267 1236 q 289 1233 281 1236 q 310 1221 297 1229 l 415 1150 l 521 1221 q 542 1233 533 1229 q 564 1236 550 1236 l 600 1236 q 622 1214 622 1236 q 615 1196 622 1203 l 488 1068 q 463 1047 474 1053 q 436 1042 451 1042 l 394 1042 z "},"Ż":{"ha":831,"x_min":54,"x_max":776,"o":"m 739 125 q 765 114 754 125 q 776 88 776 103 l 776 38 q 765 11 776 22 q 739 0 754 0 l 92 0 q 65 11 76 0 q 54 38 54 22 l 54 88 q 63 117 54 106 q 75 136 71 129 l 590 847 l 106 847 q 79 858 90 847 q 68 885 68 869 l 68 935 q 79 961 68 950 q 106 972 90 972 l 725 972 q 751 961 740 972 q 763 935 763 950 l 763 885 q 757 859 763 869 q 744 839 751 849 l 226 125 l 739 125 m 493 1079 q 482 1053 493 1064 q 456 1042 471 1042 l 376 1042 q 350 1053 361 1042 q 339 1079 339 1064 l 339 1158 q 350 1185 339 1174 q 376 1196 361 1196 l 456 1196 q 482 1185 471 1196 q 493 1158 493 1174 l 493 1079 z "},"a":{"ha":758,"x_min":53,"x_max":660,"o":"m 53 182 q 75 279 53 238 q 136 350 97 321 q 227 397 175 379 q 338 425 279 415 l 533 457 l 533 475 q 487 581 533 546 q 371 617 440 617 q 278 594 310 617 q 225 542 247 572 q 207 526 217 531 q 181 522 197 522 l 139 522 q 112 533 124 522 q 101 560 100 544 q 126 622 104 590 q 184 679 147 654 q 269 720 221 704 q 371 736 317 736 q 487 718 433 736 q 578 665 540 700 q 638 579 617 631 q 660 461 660 528 l 660 38 q 649 11 660 22 q 622 0 638 0 l 571 0 q 544 11 556 0 q 533 38 533 22 l 533 94 q 494 48 521 68 q 434 14 468 28 q 363 -7 400 0 q 294 -14 326 -14 q 195 1 240 -14 q 119 42 150 17 q 70 104 88 68 q 53 182 53 140 m 308 106 q 400 121 358 106 q 472 163 442 136 q 517 228 501 190 q 533 311 533 265 l 533 346 l 369 319 q 231 275 282 306 q 179 196 179 244 q 186 165 179 181 q 208 136 193 150 q 248 114 224 122 q 308 106 272 106 z "},"á":{"ha":758,"x_min":53,"x_max":660,"o":"m 53 182 q 75 279 53 238 q 136 350 97 321 q 227 397 175 379 q 338 425 279 415 l 533 457 l 533 475 q 487 581 533 546 q 371 617 440 617 q 278 594 310 617 q 225 542 247 572 q 207 526 217 531 q 181 522 197 522 l 139 522 q 112 533 124 522 q 101 560 100 544 q 126 622 104 590 q 184 679 147 654 q 269 720 221 704 q 371 736 317 736 q 487 718 433 736 q 578 665 540 700 q 638 579 617 631 q 660 461 660 528 l 660 38 q 649 11 660 22 q 622 0 638 0 l 571 0 q 544 11 556 0 q 533 38 533 22 l 533 94 q 494 48 521 68 q 434 14 468 28 q 363 -7 400 0 q 294 -14 326 -14 q 195 1 240 -14 q 119 42 150 17 q 70 104 88 68 q 53 182 53 140 m 308 106 q 400 121 358 106 q 472 163 442 136 q 517 228 501 190 q 533 311 533 265 l 533 346 l 369 319 q 231 275 282 306 q 179 196 179 244 q 186 165 179 181 q 208 136 193 150 q 248 114 224 122 q 308 106 272 106 m 414 994 q 440 1017 429 1013 q 465 1021 450 1021 l 568 1021 q 594 993 594 1021 q 588 976 594 983 l 433 850 q 410 833 422 840 q 375 826 397 826 l 324 826 q 301 849 301 826 q 308 867 301 860 l 414 994 z "},"ă":{"ha":758,"x_min":53,"x_max":660,"o":"m 53 182 q 75 279 53 238 q 136 350 97 321 q 227 397 175 379 q 338 425 279 415 l 533 457 l 533 475 q 487 581 533 546 q 371 617 440 617 q 278 594 310 617 q 225 542 247 572 q 207 526 217 531 q 181 522 197 522 l 139 522 q 112 533 124 522 q 101 560 100 544 q 126 622 104 590 q 184 679 147 654 q 269 720 221 704 q 371 736 317 736 q 487 718 433 736 q 578 665 540 700 q 638 579 617 631 q 660 461 660 528 l 660 38 q 649 11 660 22 q 622 0 638 0 l 571 0 q 544 11 556 0 q 533 38 533 22 l 533 94 q 494 48 521 68 q 434 14 468 28 q 363 -7 400 0 q 294 -14 326 -14 q 195 1 240 -14 q 119 42 150 17 q 70 104 88 68 q 53 182 53 140 m 308 106 q 400 121 358 106 q 472 163 442 136 q 517 228 501 190 q 533 311 533 265 l 533 346 l 369 319 q 231 275 282 306 q 179 196 179 244 q 186 165 179 181 q 208 136 193 150 q 248 114 224 122 q 308 106 272 106 m 369 819 q 292 835 325 819 q 239 875 260 850 q 208 931 218 900 q 197 994 197 963 q 204 1013 197 1006 q 224 1021 211 1021 l 268 1021 q 288 1013 281 1021 q 294 994 294 1006 q 314 935 294 958 q 369 911 333 911 q 425 935 406 911 q 444 994 444 958 q 451 1013 444 1006 q 471 1021 458 1021 l 515 1021 q 535 1013 528 1021 q 542 994 542 1006 q 531 931 542 963 q 500 875 521 900 q 447 835 479 850 q 369 819 414 819 z "},"â":{"ha":758,"x_min":53,"x_max":660,"o":"m 53 182 q 75 279 53 238 q 136 350 97 321 q 227 397 175 379 q 338 425 279 415 l 533 457 l 533 475 q 487 581 533 546 q 371 617 440 617 q 278 594 310 617 q 225 542 247 572 q 207 526 217 531 q 181 522 197 522 l 139 522 q 112 533 124 522 q 101 560 100 544 q 126 622 104 590 q 184 679 147 654 q 269 720 221 704 q 371 736 317 736 q 487 718 433 736 q 578 665 540 700 q 638 579 617 631 q 660 461 660 528 l 660 38 q 649 11 660 22 q 622 0 638 0 l 571 0 q 544 11 556 0 q 533 38 533 22 l 533 94 q 494 48 521 68 q 434 14 468 28 q 363 -7 400 0 q 294 -14 326 -14 q 195 1 240 -14 q 119 42 150 17 q 70 104 88 68 q 53 182 53 140 m 308 106 q 400 121 358 106 q 472 163 442 136 q 517 228 501 190 q 533 311 533 265 l 533 346 l 369 319 q 231 275 282 306 q 179 196 179 244 q 186 165 179 181 q 208 136 193 150 q 248 114 224 122 q 308 106 272 106 m 383 1021 q 410 1015 399 1021 q 435 994 421 1010 l 563 867 q 569 849 569 860 q 547 826 569 826 l 518 826 q 496 830 504 826 q 475 842 488 833 l 369 913 l 264 842 q 243 830 251 833 q 221 826 235 826 l 192 826 q 169 849 169 826 q 176 867 169 860 l 304 994 q 329 1015 318 1010 q 356 1021 340 1021 l 383 1021 z "},"ä":{"ha":758,"x_min":53,"x_max":660,"o":"m 53 182 q 75 279 53 238 q 136 350 97 321 q 227 397 175 379 q 338 425 279 415 l 533 457 l 533 475 q 487 581 533 546 q 371 617 440 617 q 278 594 310 617 q 225 542 247 572 q 207 526 217 531 q 181 522 197 522 l 139 522 q 112 533 124 522 q 101 560 100 544 q 126 622 104 590 q 184 679 147 654 q 269 720 221 704 q 371 736 317 736 q 487 718 433 736 q 578 665 540 700 q 638 579 617 631 q 660 461 660 528 l 660 38 q 649 11 660 22 q 622 0 638 0 l 571 0 q 544 11 556 0 q 533 38 533 22 l 533 94 q 494 48 521 68 q 434 14 468 28 q 363 -7 400 0 q 294 -14 326 -14 q 195 1 240 -14 q 119 42 150 17 q 70 104 88 68 q 53 182 53 140 m 308 106 q 400 121 358 106 q 472 163 442 136 q 517 228 501 190 q 533 311 533 265 l 533 346 l 369 319 q 231 275 282 306 q 179 196 179 244 q 186 165 179 181 q 208 136 193 150 q 248 114 224 122 q 308 106 272 106 m 321 871 q 310 844 321 856 q 283 833 299 833 l 204 833 q 178 844 189 833 q 167 871 167 856 l 167 950 q 178 976 167 965 q 204 988 189 988 l 283 988 q 310 976 299 988 q 321 950 321 965 l 321 871 m 572 871 q 561 844 572 856 q 535 833 550 833 l 456 833 q 429 844 440 833 q 418 871 418 856 l 418 950 q 429 976 418 965 q 456 988 440 988 l 535 988 q 561 976 550 988 q 572 950 572 965 l 572 871 z "},"à":{"ha":758,"x_min":53,"x_max":660,"o":"m 53 182 q 75 279 53 238 q 136 350 97 321 q 227 397 175 379 q 338 425 279 415 l 533 457 l 533 475 q 487 581 533 546 q 371 617 440 617 q 278 594 310 617 q 225 542 247 572 q 207 526 217 531 q 181 522 197 522 l 139 522 q 112 533 124 522 q 101 560 100 544 q 126 622 104 590 q 184 679 147 654 q 269 720 221 704 q 371 736 317 736 q 487 718 433 736 q 578 665 540 700 q 638 579 617 631 q 660 461 660 528 l 660 38 q 649 11 660 22 q 622 0 638 0 l 571 0 q 544 11 556 0 q 533 38 533 22 l 533 94 q 494 48 521 68 q 434 14 468 28 q 363 -7 400 0 q 294 -14 326 -14 q 195 1 240 -14 q 119 42 150 17 q 70 104 88 68 q 53 182 53 140 m 308 106 q 400 121 358 106 q 472 163 442 136 q 517 228 501 190 q 533 311 533 265 l 533 346 l 369 319 q 231 275 282 306 q 179 196 179 244 q 186 165 179 181 q 208 136 193 150 q 248 114 224 122 q 308 106 272 106 m 433 867 q 440 849 440 860 q 418 826 440 826 l 367 826 q 332 833 344 826 q 308 850 319 840 l 154 976 q 147 993 147 983 q 174 1021 147 1021 l 276 1021 q 302 1017 292 1021 q 328 994 313 1013 l 433 867 z "},"ā":{"ha":758,"x_min":53,"x_max":660,"o":"m 53 182 q 75 279 53 238 q 136 350 97 321 q 227 397 175 379 q 338 425 279 415 l 533 457 l 533 475 q 487 581 533 546 q 371 617 440 617 q 278 594 310 617 q 225 542 247 572 q 207 526 217 531 q 181 522 197 522 l 139 522 q 112 533 124 522 q 101 560 100 544 q 126 622 104 590 q 184 679 147 654 q 269 720 221 704 q 371 736 317 736 q 487 718 433 736 q 578 665 540 700 q 638 579 617 631 q 660 461 660 528 l 660 38 q 649 11 660 22 q 622 0 638 0 l 571 0 q 544 11 556 0 q 533 38 533 22 l 533 94 q 494 48 521 68 q 434 14 468 28 q 363 -7 400 0 q 294 -14 326 -14 q 195 1 240 -14 q 119 42 150 17 q 70 104 88 68 q 53 182 53 140 m 308 106 q 400 121 358 106 q 472 163 442 136 q 517 228 501 190 q 533 311 533 265 l 533 346 l 369 319 q 231 275 282 306 q 179 196 179 244 q 186 165 179 181 q 208 136 193 150 q 248 114 224 122 q 308 106 272 106 m 218 840 q 192 851 203 840 q 181 878 181 863 l 181 922 q 192 949 181 938 q 218 960 203 960 l 522 960 q 549 949 538 960 q 560 922 560 938 l 560 878 q 549 851 560 863 q 522 840 538 840 l 218 840 z "},"ą":{"ha":758,"x_min":53,"x_max":660,"o":"m 53 182 q 75 279 53 238 q 136 350 97 321 q 227 397 175 379 q 338 425 279 415 l 533 457 l 533 475 q 487 581 533 546 q 371 617 440 617 q 278 594 310 617 q 225 542 247 572 q 207 526 217 531 q 181 522 197 522 l 139 522 q 112 533 124 522 q 101 560 100 544 q 126 622 104 590 q 184 679 147 654 q 269 720 221 704 q 371 736 317 736 q 487 718 433 736 q 578 665 540 700 q 638 579 617 631 q 660 461 660 528 l 660 28 q 647 0 660 10 q 615 -23 632 -12 q 582 -46 597 -33 q 556 -75 567 -58 q 546 -117 546 -92 q 619 -206 546 -206 l 628 -206 q 658 -236 658 -206 l 658 -275 q 628 -306 658 -306 l 614 -306 q 481 -256 529 -306 q 433 -117 433 -206 q 443 -62 433 -87 q 468 -18 453 -37 q 501 17 483 1 q 533 42 518 32 l 533 94 q 494 48 521 68 q 434 14 468 28 q 363 -7 400 0 q 294 -14 326 -14 q 195 1 240 -14 q 119 42 150 17 q 70 104 88 68 q 53 182 53 140 m 308 106 q 400 121 358 106 q 472 163 442 136 q 517 228 501 190 q 533 311 533 265 l 533 346 l 369 319 q 231 275 282 306 q 179 196 179 244 q 186 165 179 181 q 208 136 193 150 q 248 114 224 122 q 308 106 272 106 z "},"å":{"ha":758,"x_min":53,"x_max":660,"o":"m 53 182 q 75 279 53 238 q 136 350 97 321 q 227 397 175 379 q 338 425 279 415 l 533 457 l 533 475 q 487 581 533 546 q 371 617 440 617 q 278 594 310 617 q 225 542 247 572 q 207 526 217 531 q 181 522 197 522 l 139 522 q 112 533 124 522 q 101 560 100 544 q 126 622 104 590 q 184 679 147 654 q 269 720 221 704 q 371 736 317 736 q 487 718 433 736 q 578 665 540 700 q 638 579 617 631 q 660 461 660 528 l 660 38 q 649 11 660 22 q 622 0 638 0 l 571 0 q 544 11 556 0 q 533 38 533 22 l 533 94 q 494 48 521 68 q 434 14 468 28 q 363 -7 400 0 q 294 -14 326 -14 q 195 1 240 -14 q 119 42 150 17 q 70 104 88 68 q 53 182 53 140 m 308 106 q 400 121 358 106 q 472 163 442 136 q 517 228 501 190 q 533 311 533 265 l 533 346 l 369 319 q 231 275 282 306 q 179 196 179 244 q 186 165 179 181 q 208 136 193 150 q 248 114 224 122 q 308 106 272 106 m 328 931 q 340 901 328 913 q 369 889 351 889 q 399 901 388 889 q 411 931 411 913 q 399 960 411 949 q 369 972 388 972 q 340 960 351 972 q 328 931 328 949 m 251 931 q 286 1010 251 979 q 369 1042 321 1042 q 453 1010 418 1042 q 488 931 488 979 q 453 851 488 882 q 369 819 418 819 q 286 851 321 819 q 251 931 251 882 z "},"ã":{"ha":758,"x_min":53,"x_max":660,"o":"m 53 182 q 75 279 53 238 q 136 350 97 321 q 227 397 175 379 q 338 425 279 415 l 533 457 l 533 475 q 487 581 533 546 q 371 617 440 617 q 278 594 310 617 q 225 542 247 572 q 207 526 217 531 q 181 522 197 522 l 139 522 q 112 533 124 522 q 101 560 100 544 q 126 622 104 590 q 184 679 147 654 q 269 720 221 704 q 371 736 317 736 q 487 718 433 736 q 578 665 540 700 q 638 579 617 631 q 660 461 660 528 l 660 38 q 649 11 660 22 q 622 0 638 0 l 571 0 q 544 11 556 0 q 533 38 533 22 l 533 94 q 494 48 521 68 q 434 14 468 28 q 363 -7 400 0 q 294 -14 326 -14 q 195 1 240 -14 q 119 42 150 17 q 70 104 88 68 q 53 182 53 140 m 308 106 q 400 121 358 106 q 472 163 442 136 q 517 228 501 190 q 533 311 533 265 l 533 346 l 369 319 q 231 275 282 306 q 179 196 179 244 q 186 165 179 181 q 208 136 193 150 q 248 114 224 122 q 308 106 272 106 m 454 819 q 403 826 424 819 q 365 842 382 833 q 335 857 349 850 q 304 864 321 864 q 281 858 288 864 q 269 845 274 853 q 260 832 265 838 q 244 826 256 826 l 193 826 q 174 834 181 826 q 167 853 167 842 q 173 891 167 868 q 194 935 179 914 q 231 971 208 956 q 286 986 254 986 q 338 979 317 986 q 374 964 358 972 q 403 949 389 956 q 436 942 418 942 q 460 947 453 942 q 471 960 467 953 q 480 974 475 968 q 496 979 485 979 l 547 979 q 567 972 560 979 q 574 953 574 964 q 567 915 574 938 q 547 871 561 892 q 509 835 532 850 q 454 819 486 819 z "},"æ":{"ha":1240,"x_min":53,"x_max":1176,"o":"m 53 182 q 75 279 53 238 q 136 350 97 321 q 227 397 175 379 q 338 425 279 415 l 533 457 l 533 475 q 487 581 533 546 q 371 617 440 617 q 278 594 310 617 q 225 542 247 572 q 207 526 217 531 q 181 522 197 522 l 139 522 q 112 533 124 522 q 101 560 100 544 q 126 622 104 590 q 184 679 147 654 q 269 720 221 704 q 371 736 317 736 q 513 708 450 736 q 614 625 576 679 q 715 706 654 676 q 856 736 776 736 q 990 712 931 736 q 1090 642 1049 688 q 1154 531 1132 596 q 1176 385 1176 465 l 1176 347 q 1165 321 1176 332 q 1139 310 1154 310 l 661 310 l 661 301 q 719 156 664 207 q 856 106 774 106 q 970 127 932 106 q 1032 175 1008 149 q 1051 190 1043 186 q 1076 194 1060 194 l 1118 194 q 1146 183 1133 194 q 1156 157 1158 172 q 1132 102 1151 132 q 1076 47 1113 72 q 984 3 1039 21 q 856 -14 929 -14 q 702 24 768 -14 q 594 126 636 61 q 476 23 544 60 q 294 -14 407 -14 q 195 1 240 -14 q 119 42 150 17 q 70 104 88 68 q 53 182 53 140 m 308 106 q 400 121 358 106 q 472 163 442 136 q 517 228 501 190 q 533 311 533 265 l 533 346 l 369 319 q 231 275 282 306 q 179 196 179 244 q 186 165 179 181 q 208 136 193 150 q 248 114 224 122 q 308 106 272 106 m 661 426 l 1051 426 l 1051 431 q 998 566 1051 515 q 856 617 944 617 q 781 603 815 617 q 719 566 746 590 q 678 507 693 542 q 661 431 663 472 l 661 426 z "},"ǽ":{"ha":1240,"x_min":53,"x_max":1176,"o":"m 53 182 q 75 279 53 238 q 136 350 97 321 q 227 397 175 379 q 338 425 279 415 l 533 457 l 533 475 q 487 581 533 546 q 371 617 440 617 q 278 594 310 617 q 225 542 247 572 q 207 526 217 531 q 181 522 197 522 l 139 522 q 112 533 124 522 q 101 560 100 544 q 126 622 104 590 q 184 679 147 654 q 269 720 221 704 q 371 736 317 736 q 513 708 450 736 q 614 625 576 679 q 715 706 654 676 q 856 736 776 736 q 990 712 931 736 q 1090 642 1049 688 q 1154 531 1132 596 q 1176 385 1176 465 l 1176 347 q 1165 321 1176 332 q 1139 310 1154 310 l 661 310 l 661 301 q 719 156 664 207 q 856 106 774 106 q 970 127 932 106 q 1032 175 1008 149 q 1051 190 1043 186 q 1076 194 1060 194 l 1118 194 q 1146 183 1133 194 q 1156 157 1158 172 q 1132 102 1151 132 q 1076 47 1113 72 q 984 3 1039 21 q 856 -14 929 -14 q 702 24 768 -14 q 594 126 636 61 q 476 23 544 60 q 294 -14 407 -14 q 195 1 240 -14 q 119 42 150 17 q 70 104 88 68 q 53 182 53 140 m 308 106 q 400 121 358 106 q 472 163 442 136 q 517 228 501 190 q 533 311 533 265 l 533 346 l 369 319 q 231 275 282 306 q 179 196 179 244 q 186 165 179 181 q 208 136 193 150 q 248 114 224 122 q 308 106 272 106 m 661 426 l 1051 426 l 1051 431 q 998 566 1051 515 q 856 617 944 617 q 781 603 815 617 q 719 566 746 590 q 678 507 693 542 q 661 431 663 472 l 661 426 m 658 994 q 684 1017 674 1013 q 710 1021 694 1021 l 813 1021 q 839 993 839 1021 q 832 976 839 983 l 678 850 q 654 833 667 840 q 619 826 642 826 l 568 826 q 546 849 546 826 q 553 867 546 860 l 658 994 z "},"b":{"ha":831,"x_min":104,"x_max":763,"o":"m 446 736 q 567 713 511 736 q 665 648 624 690 q 732 544 707 606 q 761 407 757 483 q 763 362 763 386 q 761 317 763 338 q 732 179 757 240 q 665 75 707 118 q 567 9 624 32 q 446 -14 511 -14 q 310 15 361 -14 q 231 81 258 43 l 231 38 q 219 11 231 22 q 193 0 208 0 l 142 0 q 115 11 126 0 q 104 38 104 22 l 104 949 q 115 975 104 964 q 142 986 126 986 l 193 986 q 219 975 208 986 q 231 949 231 964 l 231 642 q 308 706 257 676 q 446 736 360 736 m 231 301 q 292 158 238 211 q 432 106 346 106 q 576 164 524 106 q 635 322 628 222 q 635 400 636 361 q 576 558 628 500 q 432 617 524 617 q 292 563 344 617 q 231 411 239 510 q 228 356 228 390 q 231 301 228 322 z "},"c":{"ha":771,"x_min":68,"x_max":710,"o":"m 197 313 q 222 218 203 257 q 267 154 240 179 q 328 117 294 129 q 396 106 361 106 q 510 131 463 106 q 583 214 557 156 q 603 244 593 236 q 629 251 614 251 l 671 251 q 698 240 686 251 q 708 214 710 229 q 687 141 707 181 q 627 67 667 101 q 530 10 588 33 q 396 -14 472 -14 q 260 11 319 -14 q 160 79 201 36 q 97 181 119 122 q 71 306 74 239 q 69 360 69 328 q 71 417 68 393 q 99 542 76 483 q 163 643 122 600 q 261 711 203 686 q 396 736 319 736 q 530 713 472 736 q 627 655 588 689 q 687 581 667 621 q 708 508 707 542 q 698 482 710 493 q 671 471 686 471 l 629 471 q 603 478 614 471 q 583 508 593 486 q 510 592 557 567 q 396 617 463 617 q 327 605 361 617 q 266 568 293 593 q 220 504 239 543 q 197 410 201 465 q 197 313 193 358 z "},"ć":{"ha":771,"x_min":68,"x_max":710,"o":"m 197 313 q 222 218 203 257 q 267 154 240 179 q 328 117 294 129 q 396 106 361 106 q 510 131 463 106 q 583 214 557 156 q 603 244 593 236 q 629 251 614 251 l 671 251 q 698 240 686 251 q 708 214 710 229 q 687 141 707 181 q 627 67 667 101 q 530 10 588 33 q 396 -14 472 -14 q 260 11 319 -14 q 160 79 201 36 q 97 181 119 122 q 71 306 74 239 q 69 360 69 328 q 71 417 68 393 q 99 542 76 483 q 163 643 122 600 q 261 711 203 686 q 396 736 319 736 q 530 713 472 736 q 627 655 588 689 q 687 581 667 621 q 708 508 707 542 q 698 482 710 493 q 671 471 686 471 l 629 471 q 603 478 614 471 q 583 508 593 486 q 510 592 557 567 q 396 617 463 617 q 327 605 361 617 q 266 568 293 593 q 220 504 239 543 q 197 410 201 465 q 197 313 193 358 m 438 994 q 463 1017 453 1013 q 489 1021 474 1021 l 592 1021 q 618 993 618 1021 q 611 976 618 983 l 457 850 q 433 833 446 840 q 399 826 421 826 l 347 826 q 325 849 325 826 q 332 867 325 860 l 438 994 z "},"č":{"ha":771,"x_min":68,"x_max":710,"o":"m 197 313 q 222 218 203 257 q 267 154 240 179 q 328 117 294 129 q 396 106 361 106 q 510 131 463 106 q 583 214 557 156 q 603 244 593 236 q 629 251 614 251 l 671 251 q 698 240 686 251 q 708 214 710 229 q 687 141 707 181 q 627 67 667 101 q 530 10 588 33 q 396 -14 472 -14 q 260 11 319 -14 q 160 79 201 36 q 97 181 119 122 q 71 306 74 239 q 69 360 69 328 q 71 417 68 393 q 99 542 76 483 q 163 643 122 600 q 261 711 203 686 q 396 736 319 736 q 530 713 472 736 q 627 655 588 689 q 687 581 667 621 q 708 508 707 542 q 698 482 710 493 q 671 471 686 471 l 629 471 q 603 478 614 471 q 583 508 593 486 q 510 592 557 567 q 396 617 463 617 q 327 605 361 617 q 266 568 293 593 q 220 504 239 543 q 197 410 201 465 q 197 313 193 358 m 375 826 q 349 832 360 826 q 324 853 338 838 l 196 981 q 189 999 189 988 q 211 1021 189 1021 l 240 1021 q 263 1017 254 1021 q 283 1006 271 1014 l 389 935 l 494 1006 q 515 1017 507 1014 q 538 1021 524 1021 l 567 1021 q 589 999 589 1021 q 582 981 589 988 l 454 853 q 429 832 440 838 q 403 826 418 826 l 375 826 z "},"ç":{"ha":771,"x_min":68,"x_max":710,"o":"m 197 313 q 222 218 203 257 q 267 154 240 179 q 328 117 294 129 q 396 106 361 106 q 510 131 463 106 q 583 214 557 156 q 603 244 593 236 q 629 251 614 251 l 671 251 q 698 240 686 251 q 708 214 710 229 q 687 143 707 182 q 629 70 667 104 q 535 12 592 36 q 406 -14 479 -12 l 376 -78 q 425 -67 394 -67 q 501 -100 471 -67 q 531 -183 531 -133 q 499 -269 531 -233 q 393 -306 467 -306 q 345 -298 368 -306 q 306 -279 322 -290 q 283 -256 289 -268 q 286 -235 276 -244 l 306 -217 q 324 -208 317 -207 q 341 -216 332 -210 q 362 -228 350 -222 q 393 -235 374 -235 q 453 -186 453 -235 q 393 -137 453 -137 q 365 -141 376 -137 q 347 -147 354 -144 q 333 -149 339 -150 q 318 -140 326 -149 l 294 -115 q 290 -96 288 -107 q 297 -74 293 -85 l 325 -8 q 219 30 265 1 q 140 100 172 58 q 91 194 108 142 q 71 306 74 247 q 69 360 69 328 q 71 417 68 393 q 99 542 76 483 q 163 643 122 600 q 261 711 203 686 q 396 736 319 736 q 530 713 472 736 q 627 655 588 689 q 687 581 667 621 q 708 508 707 542 q 698 482 710 493 q 671 471 686 471 l 629 471 q 603 478 614 471 q 583 508 593 486 q 510 592 557 567 q 396 617 463 617 q 327 605 361 617 q 266 568 293 593 q 220 504 239 543 q 197 410 201 465 q 197 313 193 358 z "},"ĉ":{"ha":771,"x_min":68,"x_max":710,"o":"m 197 313 q 222 218 203 257 q 267 154 240 179 q 328 117 294 129 q 396 106 361 106 q 510 131 463 106 q 583 214 557 156 q 603 244 593 236 q 629 251 614 251 l 671 251 q 698 240 686 251 q 708 214 710 229 q 687 141 707 181 q 627 67 667 101 q 530 10 588 33 q 396 -14 472 -14 q 260 11 319 -14 q 160 79 201 36 q 97 181 119 122 q 71 306 74 239 q 69 360 69 328 q 71 417 68 393 q 99 542 76 483 q 163 643 122 600 q 261 711 203 686 q 396 736 319 736 q 530 713 472 736 q 627 655 588 689 q 687 581 667 621 q 708 508 707 542 q 698 482 710 493 q 671 471 686 471 l 629 471 q 603 478 614 471 q 583 508 593 486 q 510 592 557 567 q 396 617 463 617 q 327 605 361 617 q 266 568 293 593 q 220 504 239 543 q 197 410 201 465 q 197 313 193 358 m 403 1021 q 429 1015 418 1021 q 454 994 440 1010 l 582 867 q 589 849 589 860 q 567 826 589 826 l 538 826 q 515 830 524 826 q 494 842 507 833 l 389 913 l 283 842 q 263 830 271 833 q 240 826 254 826 l 211 826 q 189 849 189 826 q 196 867 189 860 l 324 994 q 349 1015 338 1010 q 375 1021 360 1021 l 403 1021 z "},"ċ":{"ha":771,"x_min":68,"x_max":710,"o":"m 197 313 q 222 218 203 257 q 267 154 240 179 q 328 117 294 129 q 396 106 361 106 q 510 131 463 106 q 583 214 557 156 q 603 244 593 236 q 629 251 614 251 l 671 251 q 698 240 686 251 q 708 214 710 229 q 687 141 707 181 q 627 67 667 101 q 530 10 588 33 q 396 -14 472 -14 q 260 11 319 -14 q 160 79 201 36 q 97 181 119 122 q 71 306 74 239 q 69 360 69 328 q 71 417 68 393 q 99 542 76 483 q 163 643 122 600 q 261 711 203 686 q 396 736 319 736 q 530 713 472 736 q 627 655 588 689 q 687 581 667 621 q 708 508 707 542 q 698 482 710 493 q 671 471 686 471 l 629 471 q 603 478 614 471 q 583 508 593 486 q 510 592 557 567 q 396 617 463 617 q 327 605 361 617 q 266 568 293 593 q 220 504 239 543 q 197 410 201 465 q 197 313 193 358 m 467 871 q 456 844 467 856 q 429 833 444 833 l 350 833 q 324 844 335 833 q 313 871 313 856 l 313 950 q 324 976 313 965 q 350 988 335 988 l 429 988 q 456 976 444 988 q 467 950 467 965 l 467 871 z "},"d":{"ha":831,"x_min":68,"x_max":726,"o":"m 385 736 q 522 706 471 736 q 600 642 574 676 l 600 949 q 611 975 600 964 q 638 986 622 986 l 689 986 q 715 975 704 986 q 726 949 726 964 l 726 38 q 715 11 726 22 q 689 0 704 0 l 638 0 q 611 11 622 0 q 600 38 600 22 l 600 81 q 521 15 572 43 q 385 -14 469 -14 q 263 9 319 -14 q 165 75 207 32 q 99 179 124 118 q 69 317 74 240 q 68 362 68 338 q 69 407 68 386 q 99 544 74 483 q 165 648 124 606 q 263 713 207 690 q 385 736 319 736 m 600 301 q 601 356 601 322 q 600 411 601 390 q 541 563 596 510 q 399 617 486 617 q 254 558 307 617 q 196 400 201 500 q 196 322 194 361 q 254 164 201 222 q 399 106 307 106 q 540 158 485 106 q 600 301 596 211 z "},"ď":{"ha":911,"x_min":68,"x_max":992,"o":"m 385 736 q 522 706 471 736 q 600 642 574 676 l 600 949 q 611 975 600 964 q 638 986 622 986 l 689 986 q 715 975 704 986 q 726 949 726 964 l 726 38 q 715 11 726 22 q 689 0 704 0 l 638 0 q 611 11 622 0 q 600 38 600 22 l 600 81 q 521 15 572 43 q 385 -14 469 -14 q 263 9 319 -14 q 165 75 207 32 q 99 179 124 118 q 69 317 74 240 q 68 362 68 338 q 69 407 68 386 q 99 544 74 483 q 165 648 124 606 q 263 713 207 690 q 385 736 319 736 m 600 301 q 601 356 601 322 q 600 411 601 390 q 541 563 596 510 q 399 617 486 617 q 254 558 307 617 q 196 400 201 500 q 196 322 194 361 q 254 164 201 222 q 399 106 307 106 q 540 158 485 106 q 600 301 596 211 m 829 932 q 847 969 832 951 q 889 986 861 986 l 961 986 q 983 977 974 986 q 992 956 992 968 q 990 946 992 950 l 915 753 q 897 724 910 739 q 856 708 883 708 l 831 708 q 809 717 818 708 q 800 739 800 726 l 800 742 l 829 932 z "},"đ":{"ha":831,"x_min":68,"x_max":838,"o":"m 385 736 q 522 706 471 736 q 600 642 574 676 l 600 785 l 519 785 q 489 815 489 785 l 489 851 q 519 882 489 882 l 600 882 l 600 949 q 611 975 600 964 q 638 986 622 986 l 689 986 q 715 975 704 986 q 726 949 726 964 l 726 882 l 807 882 q 838 851 838 882 l 838 815 q 807 785 838 785 l 726 785 l 726 38 q 715 11 726 22 q 689 0 704 0 l 638 0 q 611 11 622 0 q 600 38 600 22 l 600 81 q 521 15 572 43 q 385 -14 469 -14 q 263 9 319 -14 q 165 75 207 32 q 99 179 124 118 q 69 317 74 240 q 68 362 68 338 q 69 407 68 386 q 99 544 74 483 q 165 648 124 606 q 263 713 207 690 q 385 736 319 736 m 600 301 q 601 356 601 322 q 600 411 601 390 q 541 563 596 510 q 399 617 486 617 q 254 558 307 617 q 196 400 201 500 q 196 322 194 361 q 254 164 201 222 q 399 106 307 106 q 540 158 485 106 q 600 301 596 211 z "},"e":{"ha":774,"x_min":64,"x_max":710,"o":"m 71 431 q 101 550 76 494 q 167 647 126 606 q 263 713 207 689 q 389 736 319 736 q 523 712 464 736 q 624 642 582 688 q 688 531 665 596 q 710 385 710 465 l 710 347 q 699 321 710 332 q 672 310 688 310 l 194 310 l 194 301 q 252 156 197 207 q 389 106 307 106 q 503 127 465 106 q 565 175 542 149 q 585 190 576 186 q 610 194 593 194 l 651 194 q 679 183 667 194 q 689 157 692 172 q 665 102 685 132 q 609 47 646 72 q 517 3 572 21 q 389 -14 463 -14 q 264 10 319 -14 q 167 77 208 35 q 101 177 126 119 q 71 303 76 235 q 71 431 64 367 m 194 426 l 585 426 l 585 431 q 531 566 585 515 q 389 617 478 617 q 314 603 349 617 q 253 566 279 590 q 211 507 226 542 q 194 431 196 472 l 194 426 z "},"é":{"ha":774,"x_min":64,"x_max":710,"o":"m 71 431 q 101 550 76 494 q 167 647 126 606 q 263 713 207 689 q 389 736 319 736 q 523 712 464 736 q 624 642 582 688 q 688 531 665 596 q 710 385 710 465 l 710 347 q 699 321 710 332 q 672 310 688 310 l 194 310 l 194 301 q 252 156 197 207 q 389 106 307 106 q 503 127 465 106 q 565 175 542 149 q 585 190 576 186 q 610 194 593 194 l 651 194 q 679 183 667 194 q 689 157 692 172 q 665 102 685 132 q 609 47 646 72 q 517 3 572 21 q 389 -14 463 -14 q 264 10 319 -14 q 167 77 208 35 q 101 177 126 119 q 71 303 76 235 q 71 431 64 367 m 194 426 l 585 426 l 585 431 q 531 566 585 515 q 389 617 478 617 q 314 603 349 617 q 253 566 279 590 q 211 507 226 542 q 194 431 196 472 l 194 426 m 432 994 q 458 1017 447 1013 q 483 1021 468 1021 l 586 1021 q 613 993 613 1021 q 606 976 613 983 l 451 850 q 428 833 440 840 q 393 826 415 826 l 342 826 q 319 849 319 826 q 326 867 319 860 l 432 994 z "},"ĕ":{"ha":774,"x_min":64,"x_max":710,"o":"m 71 431 q 101 550 76 494 q 167 647 126 606 q 263 713 207 689 q 389 736 319 736 q 523 712 464 736 q 624 642 582 688 q 688 531 665 596 q 710 385 710 465 l 710 347 q 699 321 710 332 q 672 310 688 310 l 194 310 l 194 301 q 252 156 197 207 q 389 106 307 106 q 503 127 465 106 q 565 175 542 149 q 585 190 576 186 q 610 194 593 194 l 651 194 q 679 183 667 194 q 689 157 692 172 q 665 102 685 132 q 609 47 646 72 q 517 3 572 21 q 389 -14 463 -14 q 264 10 319 -14 q 167 77 208 35 q 101 177 126 119 q 71 303 76 235 q 71 431 64 367 m 194 426 l 585 426 l 585 431 q 531 566 585 515 q 389 617 478 617 q 314 603 349 617 q 253 566 279 590 q 211 507 226 542 q 194 431 196 472 l 194 426 m 388 819 q 310 835 343 819 q 257 875 278 850 q 226 931 236 900 q 215 994 215 963 q 222 1013 215 1006 q 242 1021 229 1021 l 286 1021 q 306 1013 299 1021 q 313 994 313 1006 q 332 935 313 958 q 388 911 351 911 q 443 935 424 911 q 463 994 463 958 q 469 1013 463 1006 q 489 1021 476 1021 l 533 1021 q 553 1013 546 1021 q 560 994 560 1006 q 549 931 560 963 q 518 875 539 900 q 465 835 497 850 q 388 819 432 819 z "},"ě":{"ha":774,"x_min":64,"x_max":710,"o":"m 71 431 q 101 550 76 494 q 167 647 126 606 q 263 713 207 689 q 389 736 319 736 q 523 712 464 736 q 624 642 582 688 q 688 531 665 596 q 710 385 710 465 l 710 347 q 699 321 710 332 q 672 310 688 310 l 194 310 l 194 301 q 252 156 197 207 q 389 106 307 106 q 503 127 465 106 q 565 175 542 149 q 585 190 576 186 q 610 194 593 194 l 651 194 q 679 183 667 194 q 689 157 692 172 q 665 102 685 132 q 609 47 646 72 q 517 3 572 21 q 389 -14 463 -14 q 264 10 319 -14 q 167 77 208 35 q 101 177 126 119 q 71 303 76 235 q 71 431 64 367 m 194 426 l 585 426 l 585 431 q 531 566 585 515 q 389 617 478 617 q 314 603 349 617 q 253 566 279 590 q 211 507 226 542 q 194 431 196 472 l 194 426 m 374 826 q 347 832 358 826 q 322 853 336 838 l 194 981 q 188 999 188 988 q 210 1021 188 1021 l 239 1021 q 261 1017 253 1021 q 282 1006 269 1014 l 388 935 l 493 1006 q 514 1017 506 1014 q 536 1021 522 1021 l 565 1021 q 588 999 588 1021 q 581 981 588 988 l 453 853 q 428 832 439 838 q 401 826 417 826 l 374 826 z "},"ê":{"ha":774,"x_min":64,"x_max":710,"o":"m 71 431 q 101 550 76 494 q 167 647 126 606 q 263 713 207 689 q 389 736 319 736 q 523 712 464 736 q 624 642 582 688 q 688 531 665 596 q 710 385 710 465 l 710 347 q 699 321 710 332 q 672 310 688 310 l 194 310 l 194 301 q 252 156 197 207 q 389 106 307 106 q 503 127 465 106 q 565 175 542 149 q 585 190 576 186 q 610 194 593 194 l 651 194 q 679 183 667 194 q 689 157 692 172 q 665 102 685 132 q 609 47 646 72 q 517 3 572 21 q 389 -14 463 -14 q 264 10 319 -14 q 167 77 208 35 q 101 177 126 119 q 71 303 76 235 q 71 431 64 367 m 194 426 l 585 426 l 585 431 q 531 566 585 515 q 389 617 478 617 q 314 603 349 617 q 253 566 279 590 q 211 507 226 542 q 194 431 196 472 l 194 426 m 401 1021 q 428 1015 417 1021 q 453 994 439 1010 l 581 867 q 588 849 588 860 q 565 826 588 826 l 536 826 q 514 830 522 826 q 493 842 506 833 l 388 913 l 282 842 q 261 830 269 833 q 239 826 253 826 l 210 826 q 188 849 188 826 q 194 867 188 860 l 322 994 q 347 1015 336 1010 q 374 1021 358 1021 l 401 1021 z "},"ë":{"ha":774,"x_min":64,"x_max":710,"o":"m 71 431 q 101 550 76 494 q 167 647 126 606 q 263 713 207 689 q 389 736 319 736 q 523 712 464 736 q 624 642 582 688 q 688 531 665 596 q 710 385 710 465 l 710 347 q 699 321 710 332 q 672 310 688 310 l 194 310 l 194 301 q 252 156 197 207 q 389 106 307 106 q 503 127 465 106 q 565 175 542 149 q 585 190 576 186 q 610 194 593 194 l 651 194 q 679 183 667 194 q 689 157 692 172 q 665 102 685 132 q 609 47 646 72 q 517 3 572 21 q 389 -14 463 -14 q 264 10 319 -14 q 167 77 208 35 q 101 177 126 119 q 71 303 76 235 q 71 431 64 367 m 194 426 l 585 426 l 585 431 q 531 566 585 515 q 389 617 478 617 q 314 603 349 617 q 253 566 279 590 q 211 507 226 542 q 194 431 196 472 l 194 426 m 339 871 q 328 844 339 856 q 301 833 317 833 l 222 833 q 196 844 207 833 q 185 871 185 856 l 185 950 q 196 976 185 965 q 222 988 207 988 l 301 988 q 328 976 317 988 q 339 950 339 965 l 339 871 m 590 871 q 579 844 590 856 q 553 833 568 833 l 474 833 q 447 844 458 833 q 436 871 436 856 l 436 950 q 447 976 436 965 q 474 988 458 988 l 553 988 q 579 976 568 988 q 590 950 590 965 l 590 871 z "},"ė":{"ha":774,"x_min":64,"x_max":710,"o":"m 71 431 q 101 550 76 494 q 167 647 126 606 q 263 713 207 689 q 389 736 319 736 q 523 712 464 736 q 624 642 582 688 q 688 531 665 596 q 710 385 710 465 l 710 347 q 699 321 710 332 q 672 310 688 310 l 194 310 l 194 301 q 252 156 197 207 q 389 106 307 106 q 503 127 465 106 q 565 175 542 149 q 585 190 576 186 q 610 194 593 194 l 651 194 q 679 183 667 194 q 689 157 692 172 q 665 102 685 132 q 609 47 646 72 q 517 3 572 21 q 389 -14 463 -14 q 264 10 319 -14 q 167 77 208 35 q 101 177 126 119 q 71 303 76 235 q 71 431 64 367 m 194 426 l 585 426 l 585 431 q 531 566 585 515 q 389 617 478 617 q 314 603 349 617 q 253 566 279 590 q 211 507 226 542 q 194 431 196 472 l 194 426 m 465 871 q 454 844 465 856 q 428 833 443 833 l 349 833 q 322 844 333 833 q 311 871 311 856 l 311 950 q 322 976 311 965 q 349 988 333 988 l 428 988 q 454 976 443 988 q 465 950 465 965 l 465 871 z "},"è":{"ha":774,"x_min":64,"x_max":710,"o":"m 71 431 q 101 550 76 494 q 167 647 126 606 q 263 713 207 689 q 389 736 319 736 q 523 712 464 736 q 624 642 582 688 q 688 531 665 596 q 710 385 710 465 l 710 347 q 699 321 710 332 q 672 310 688 310 l 194 310 l 194 301 q 252 156 197 207 q 389 106 307 106 q 503 127 465 106 q 565 175 542 149 q 585 190 576 186 q 610 194 593 194 l 651 194 q 679 183 667 194 q 689 157 692 172 q 665 102 685 132 q 609 47 646 72 q 517 3 572 21 q 389 -14 463 -14 q 264 10 319 -14 q 167 77 208 35 q 101 177 126 119 q 71 303 76 235 q 71 431 64 367 m 194 426 l 585 426 l 585 431 q 531 566 585 515 q 389 617 478 617 q 314 603 349 617 q 253 566 279 590 q 211 507 226 542 q 194 431 196 472 l 194 426 m 456 867 q 463 849 463 860 q 440 826 463 826 l 389 826 q 354 833 367 826 q 331 850 342 840 l 176 976 q 169 993 169 983 q 196 1021 169 1021 l 299 1021 q 324 1017 314 1021 q 350 994 335 1013 l 456 867 z "},"ē":{"ha":774,"x_min":64,"x_max":710,"o":"m 71 431 q 101 550 76 494 q 167 647 126 606 q 263 713 207 689 q 389 736 319 736 q 523 712 464 736 q 624 642 582 688 q 688 531 665 596 q 710 385 710 465 l 710 347 q 699 321 710 332 q 672 310 688 310 l 194 310 l 194 301 q 252 156 197 207 q 389 106 307 106 q 503 127 465 106 q 565 175 542 149 q 585 190 576 186 q 610 194 593 194 l 651 194 q 679 183 667 194 q 689 157 692 172 q 665 102 685 132 q 609 47 646 72 q 517 3 572 21 q 389 -14 463 -14 q 264 10 319 -14 q 167 77 208 35 q 101 177 126 119 q 71 303 76 235 q 71 431 64 367 m 194 426 l 585 426 l 585 431 q 531 566 585 515 q 389 617 478 617 q 314 603 349 617 q 253 566 279 590 q 211 507 226 542 q 194 431 196 472 l 194 426 m 236 840 q 210 851 221 840 q 199 878 199 863 l 199 922 q 210 949 199 938 q 236 960 221 960 l 540 960 q 567 949 556 960 q 578 922 578 938 l 578 878 q 567 851 578 863 q 540 840 556 840 l 236 840 z "},"ę":{"ha":774,"x_min":64,"x_max":710,"o":"m 71 431 q 101 550 76 494 q 167 647 126 606 q 263 713 207 689 q 389 736 319 736 q 523 712 464 736 q 624 642 582 688 q 688 531 665 596 q 710 385 710 465 l 710 347 q 699 321 710 332 q 672 310 688 310 l 194 310 l 194 301 q 252 156 197 207 q 389 106 307 106 q 503 127 465 106 q 565 175 542 149 q 585 190 576 186 q 610 194 593 194 l 651 194 q 679 183 667 194 q 689 157 692 172 q 668 106 685 133 q 620 55 651 79 q 543 13 589 31 q 435 -11 497 -6 q 372 -36 393 -18 q 350 -103 350 -54 q 442 -206 350 -206 l 463 -206 q 493 -236 493 -206 l 493 -275 q 463 -306 493 -306 l 436 -306 q 358 -292 394 -306 q 294 -253 321 -279 q 253 -190 268 -228 q 238 -103 238 -153 q 264 10 238 -39 q 131 122 181 44 q 71 303 81 200 q 71 431 64 367 m 194 426 l 585 426 l 585 431 q 531 566 585 515 q 389 617 478 617 q 314 603 349 617 q 253 566 279 590 q 211 507 226 542 q 194 431 196 472 l 194 426 z "},"f":{"ha":542,"x_min":26,"x_max":535,"o":"m 307 722 l 483 722 q 510 711 499 722 q 521 685 521 700 l 521 640 q 510 614 521 625 q 483 603 499 603 l 307 603 l 307 38 q 296 11 307 22 q 269 0 285 0 l 218 0 q 192 11 203 0 q 181 38 181 22 l 181 603 l 64 603 q 38 614 49 603 q 26 640 26 625 l 26 685 q 38 711 26 700 q 64 722 49 722 l 181 722 l 181 792 q 235 969 181 910 q 410 1028 289 1028 l 497 1028 q 524 1017 513 1028 q 535 990 535 1006 l 535 946 q 524 919 535 931 q 497 908 513 908 l 424 908 q 365 899 388 908 q 329 874 342 890 q 312 834 317 857 q 307 785 307 811 l 307 722 z "},"g":{"ha":831,"x_min":68,"x_max":726,"o":"m 69 407 q 99 544 74 483 q 165 648 124 606 q 263 713 207 690 q 385 736 319 736 q 522 706 471 736 q 600 642 574 676 l 600 685 q 611 711 600 700 q 638 722 622 722 l 689 722 q 715 711 704 722 q 726 685 726 700 l 726 10 q 644 -220 726 -135 q 399 -306 563 -306 q 256 -285 315 -306 q 159 -235 197 -265 q 102 -168 121 -204 q 82 -99 83 -132 q 92 -72 81 -83 q 119 -61 104 -61 l 161 -61 q 187 -69 176 -61 q 207 -99 197 -76 q 220 -122 211 -107 q 249 -151 229 -136 q 302 -176 269 -165 q 385 -186 335 -186 q 470 -177 431 -186 q 539 -147 510 -168 q 584 -92 568 -126 q 600 -7 600 -57 l 600 81 q 521 15 572 43 q 385 -14 469 -14 q 263 9 319 -14 q 165 74 207 32 q 99 178 124 117 q 69 315 74 239 q 68 361 68 336 q 69 407 68 386 m 600 411 q 541 563 596 510 q 399 617 486 617 q 254 558 307 617 q 196 400 201 500 q 196 322 194 361 q 254 164 201 222 q 399 106 307 106 q 541 160 486 106 q 600 311 596 214 q 601 361 601 332 q 600 411 601 390 z "},"ğ":{"ha":831,"x_min":68,"x_max":726,"o":"m 69 407 q 99 544 74 483 q 165 648 124 606 q 263 713 207 690 q 385 736 319 736 q 522 706 471 736 q 600 642 574 676 l 600 685 q 611 711 600 700 q 638 722 622 722 l 689 722 q 715 711 704 722 q 726 685 726 700 l 726 10 q 644 -220 726 -135 q 399 -306 563 -306 q 256 -285 315 -306 q 159 -235 197 -265 q 102 -168 121 -204 q 82 -99 83 -132 q 92 -72 81 -83 q 119 -61 104 -61 l 161 -61 q 187 -69 176 -61 q 207 -99 197 -76 q 220 -122 211 -107 q 249 -151 229 -136 q 302 -176 269 -165 q 385 -186 335 -186 q 470 -177 431 -186 q 539 -147 510 -168 q 584 -92 568 -126 q 600 -7 600 -57 l 600 81 q 521 15 572 43 q 385 -14 469 -14 q 263 9 319 -14 q 165 74 207 32 q 99 178 124 117 q 69 315 74 239 q 68 361 68 336 q 69 407 68 386 m 600 411 q 541 563 596 510 q 399 617 486 617 q 254 558 307 617 q 196 400 201 500 q 196 322 194 361 q 254 164 201 222 q 399 106 307 106 q 541 160 486 106 q 600 311 596 214 q 601 361 601 332 q 600 411 601 390 m 397 819 q 320 835 353 819 q 267 875 288 850 q 235 931 246 900 q 225 994 225 963 q 232 1013 225 1006 q 251 1021 239 1021 l 296 1021 q 315 1013 308 1021 q 322 994 322 1006 q 342 935 322 958 q 397 911 361 911 q 453 935 433 911 q 472 994 472 958 q 479 1013 472 1006 q 499 1021 486 1021 l 543 1021 q 563 1013 556 1021 q 569 994 569 1006 q 559 931 569 963 q 528 875 549 900 q 474 835 507 850 q 397 819 442 819 z "},"ĝ":{"ha":831,"x_min":68,"x_max":726,"o":"m 69 407 q 99 544 74 483 q 165 648 124 606 q 263 713 207 690 q 385 736 319 736 q 522 706 471 736 q 600 642 574 676 l 600 685 q 611 711 600 700 q 638 722 622 722 l 689 722 q 715 711 704 722 q 726 685 726 700 l 726 10 q 644 -220 726 -135 q 399 -306 563 -306 q 256 -285 315 -306 q 159 -235 197 -265 q 102 -168 121 -204 q 82 -99 83 -132 q 92 -72 81 -83 q 119 -61 104 -61 l 161 -61 q 187 -69 176 -61 q 207 -99 197 -76 q 220 -122 211 -107 q 249 -151 229 -136 q 302 -176 269 -165 q 385 -186 335 -186 q 470 -177 431 -186 q 539 -147 510 -168 q 584 -92 568 -126 q 600 -7 600 -57 l 600 81 q 521 15 572 43 q 385 -14 469 -14 q 263 9 319 -14 q 165 74 207 32 q 99 178 124 117 q 69 315 74 239 q 68 361 68 336 q 69 407 68 386 m 600 411 q 541 563 596 510 q 399 617 486 617 q 254 558 307 617 q 196 400 201 500 q 196 322 194 361 q 254 164 201 222 q 399 106 307 106 q 541 160 486 106 q 600 311 596 214 q 601 361 601 332 q 600 411 601 390 m 411 1021 q 438 1015 426 1021 q 463 994 449 1010 l 590 867 q 597 849 597 860 q 575 826 597 826 l 546 826 q 524 830 532 826 q 503 842 515 833 l 397 913 l 292 842 q 271 830 279 833 q 249 826 263 826 l 219 826 q 197 849 197 826 q 204 867 197 860 l 332 994 q 357 1015 346 1010 q 383 1021 368 1021 l 411 1021 z "},"ģ":{"ha":831,"x_min":68,"x_max":726,"o":"m 69 407 q 99 544 74 483 q 165 648 124 606 q 263 713 207 690 q 385 736 319 736 q 522 706 471 736 q 600 642 574 676 l 600 685 q 611 711 600 700 q 638 722 622 722 l 689 722 q 715 711 704 722 q 726 685 726 700 l 726 10 q 644 -220 726 -135 q 399 -306 563 -306 q 256 -285 315 -306 q 159 -235 197 -265 q 102 -168 121 -204 q 82 -99 83 -132 q 92 -72 81 -83 q 119 -61 104 -61 l 161 -61 q 187 -69 176 -61 q 207 -99 197 -76 q 220 -122 211 -107 q 249 -151 229 -136 q 302 -176 269 -165 q 385 -186 335 -186 q 470 -177 431 -186 q 539 -147 510 -168 q 584 -92 568 -126 q 600 -7 600 -57 l 600 81 q 521 15 572 43 q 385 -14 469 -14 q 263 9 319 -14 q 165 74 207 32 q 99 178 124 117 q 69 315 74 239 q 68 361 68 336 q 69 407 68 386 m 600 411 q 541 563 596 510 q 399 617 486 617 q 254 558 307 617 q 196 400 201 500 q 196 322 194 361 q 254 164 201 222 q 399 106 307 106 q 541 160 486 106 q 600 311 596 214 q 601 361 601 332 q 600 411 601 390 m 488 881 q 470 844 485 861 q 428 826 456 826 l 356 826 q 334 835 343 826 q 325 857 325 844 q 326 867 325 862 l 401 1060 q 420 1089 407 1074 q 461 1104 433 1104 l 486 1104 q 508 1095 499 1104 q 517 1074 517 1086 l 517 1071 l 488 881 z "},"ġ":{"ha":831,"x_min":68,"x_max":726,"o":"m 69 407 q 99 544 74 483 q 165 648 124 606 q 263 713 207 690 q 385 736 319 736 q 522 706 471 736 q 600 642 574 676 l 600 685 q 611 711 600 700 q 638 722 622 722 l 689 722 q 715 711 704 722 q 726 685 726 700 l 726 10 q 644 -220 726 -135 q 399 -306 563 -306 q 256 -285 315 -306 q 159 -235 197 -265 q 102 -168 121 -204 q 82 -99 83 -132 q 92 -72 81 -83 q 119 -61 104 -61 l 161 -61 q 187 -69 176 -61 q 207 -99 197 -76 q 220 -122 211 -107 q 249 -151 229 -136 q 302 -176 269 -165 q 385 -186 335 -186 q 470 -177 431 -186 q 539 -147 510 -168 q 584 -92 568 -126 q 600 -7 600 -57 l 600 81 q 521 15 572 43 q 385 -14 469 -14 q 263 9 319 -14 q 165 74 207 32 q 99 178 124 117 q 69 315 74 239 q 68 361 68 336 q 69 407 68 386 m 600 411 q 541 563 596 510 q 399 617 486 617 q 254 558 307 617 q 196 400 201 500 q 196 322 194 361 q 254 164 201 222 q 399 106 307 106 q 541 160 486 106 q 600 311 596 214 q 601 361 601 332 q 600 411 601 390 m 475 871 q 464 844 475 856 q 438 833 453 833 l 358 833 q 332 844 343 833 q 321 871 321 856 l 321 950 q 332 976 321 965 q 358 988 343 988 l 438 988 q 464 976 453 988 q 475 950 475 965 l 475 871 z "},"h":{"ha":843,"x_min":104,"x_max":746,"o":"m 746 38 q 735 11 746 22 q 708 0 724 0 l 657 0 q 631 11 642 0 q 619 38 619 22 l 619 404 q 568 564 619 511 q 425 617 517 617 q 284 564 338 617 q 231 404 231 511 l 231 38 q 219 11 231 22 q 193 0 208 0 l 142 0 q 115 11 126 0 q 104 38 104 22 l 104 949 q 115 975 104 964 q 142 986 126 986 l 193 986 q 219 975 208 986 q 231 949 231 964 l 231 642 q 309 706 257 676 q 446 736 361 736 q 567 715 511 736 q 662 653 622 693 q 724 556 701 614 q 746 425 746 497 l 746 38 z "},"ħ":{"ha":843,"x_min":-7,"x_max":746,"o":"m 746 38 q 735 11 746 22 q 708 0 724 0 l 657 0 q 631 11 642 0 q 619 38 619 22 l 619 404 q 568 564 619 511 q 425 617 517 617 q 284 564 338 617 q 231 404 231 511 l 231 38 q 219 11 231 22 q 193 0 208 0 l 142 0 q 115 11 126 0 q 104 38 104 22 l 104 785 l 24 785 q -7 815 -7 785 l -7 851 q 24 882 -7 882 l 104 882 l 104 949 q 115 975 104 964 q 142 986 126 986 l 193 986 q 219 975 208 986 q 231 949 231 964 l 231 882 l 311 882 q 342 851 342 882 l 342 815 q 311 785 342 785 l 231 785 l 231 642 q 309 706 257 676 q 446 736 361 736 q 567 715 511 736 q 662 653 622 693 q 724 556 701 614 q 746 425 746 497 l 746 38 z "},"ĥ":{"ha":843,"x_min":104,"x_max":746,"o":"m 746 38 q 735 11 746 22 q 708 0 724 0 l 657 0 q 631 11 642 0 q 619 38 619 22 l 619 404 q 568 564 619 511 q 425 617 517 617 q 284 564 338 617 q 231 404 231 511 l 231 38 q 219 11 231 22 q 193 0 208 0 l 142 0 q 115 11 126 0 q 104 38 104 22 l 104 949 q 115 975 104 964 q 142 986 126 986 l 193 986 q 219 975 208 986 q 231 949 231 964 l 231 642 q 309 706 257 676 q 446 736 361 736 q 567 715 511 736 q 662 653 622 693 q 724 556 701 614 q 746 425 746 497 l 746 38 m 439 1236 q 465 1231 454 1236 q 490 1210 476 1225 l 618 1082 q 625 1064 625 1075 q 603 1042 625 1042 l 574 1042 q 551 1045 560 1042 q 531 1057 543 1049 l 425 1128 l 319 1057 q 299 1045 307 1049 q 276 1042 290 1042 l 247 1042 q 225 1064 225 1042 q 232 1082 225 1075 l 360 1210 q 385 1231 374 1225 q 411 1236 396 1236 l 439 1236 z "},"i":{"ha":335,"x_min":90,"x_max":244,"o":"m 231 38 q 219 11 231 22 q 193 0 208 0 l 142 0 q 115 11 126 0 q 104 38 104 22 l 104 685 q 115 711 104 700 q 142 722 126 722 l 193 722 q 219 711 208 722 q 231 685 231 700 l 231 38 m 244 869 q 233 843 244 854 q 207 832 222 832 l 128 832 q 101 843 113 832 q 90 869 90 854 l 90 949 q 101 975 90 964 q 128 986 113 986 l 207 986 q 233 975 222 986 q 244 949 244 964 l 244 869 z "},"í":{"ha":335,"x_min":96,"x_max":389,"o":"m 231 38 q 219 11 231 22 q 193 0 208 0 l 142 0 q 115 11 126 0 q 104 38 104 22 l 104 685 q 115 711 104 700 q 142 722 126 722 l 193 722 q 219 711 208 722 q 231 685 231 700 l 231 38 m 208 994 q 234 1017 224 1013 q 260 1021 244 1021 l 363 1021 q 389 993 389 1021 q 382 976 389 983 l 228 850 q 204 833 217 840 q 169 826 192 826 l 118 826 q 96 849 96 826 q 103 867 96 860 l 208 994 z "},"ĭ":{"ha":335,"x_min":-6,"x_max":339,"o":"m 231 38 q 219 11 231 22 q 193 0 208 0 l 142 0 q 115 11 126 0 q 104 38 104 22 l 104 685 q 115 711 104 700 q 142 722 126 722 l 193 722 q 219 711 208 722 q 231 685 231 700 l 231 38 m 167 819 q 90 835 122 819 q 36 875 57 850 q 5 931 15 900 q -6 994 -6 963 q 1 1013 -6 1006 q 21 1021 8 1021 l 65 1021 q 85 1013 78 1021 q 92 994 92 1006 q 111 935 92 958 q 167 911 131 911 q 222 935 203 911 q 242 994 242 958 q 249 1013 242 1006 q 268 1021 256 1021 l 313 1021 q 332 1013 325 1021 q 339 994 339 1006 q 328 931 339 963 q 297 875 318 900 q 244 835 276 850 q 167 819 211 819 z "},"î":{"ha":335,"x_min":-33,"x_max":367,"o":"m 231 38 q 219 11 231 22 q 193 0 208 0 l 142 0 q 115 11 126 0 q 104 38 104 22 l 104 685 q 115 711 104 700 q 142 722 126 722 l 193 722 q 219 711 208 722 q 231 685 231 700 l 231 38 m 181 1021 q 207 1015 196 1021 q 232 994 218 1010 l 360 867 q 367 849 367 860 q 344 826 367 826 l 315 826 q 293 830 301 826 q 272 842 285 833 l 167 913 l 61 842 q 40 830 49 833 q 18 826 32 826 l -11 826 q -33 849 -33 826 q -26 867 -33 860 l 101 994 q 126 1015 115 1010 q 153 1021 138 1021 l 181 1021 z "},"ï":{"ha":335,"x_min":-36,"x_max":369,"o":"m 231 38 q 219 11 231 22 q 193 0 208 0 l 142 0 q 115 11 126 0 q 104 38 104 22 l 104 685 q 115 711 104 700 q 142 722 126 722 l 193 722 q 219 711 208 722 q 231 685 231 700 l 231 38 m 118 871 q 107 844 118 856 q 81 833 96 833 l 1 833 q -25 844 -14 833 q -36 871 -36 856 l -36 950 q -25 976 -36 965 q 1 988 -14 988 l 81 988 q 107 976 96 988 q 118 950 118 965 l 118 871 m 369 871 q 358 844 369 856 q 332 833 347 833 l 253 833 q 226 844 238 833 q 215 871 215 856 l 215 950 q 226 976 215 965 q 253 988 238 988 l 332 988 q 358 976 347 988 q 369 950 369 965 l 369 871 z "},"ì":{"ha":335,"x_min":-58,"x_max":235,"o":"m 231 38 q 219 11 231 22 q 193 0 208 0 l 142 0 q 115 11 126 0 q 104 38 104 22 l 104 685 q 115 711 104 700 q 142 722 126 722 l 193 722 q 219 711 208 722 q 231 685 231 700 l 231 38 m 228 867 q 235 849 235 860 q 213 826 235 826 l 161 826 q 126 833 139 826 q 103 850 114 840 l -51 976 q -58 993 -58 983 q -32 1021 -58 1021 l 71 1021 q 97 1017 86 1021 q 122 994 107 1013 l 228 867 z "},"ī":{"ha":335,"x_min":-22,"x_max":357,"o":"m 231 38 q 219 11 231 22 q 193 0 208 0 l 142 0 q 115 11 126 0 q 104 38 104 22 l 104 685 q 115 711 104 700 q 142 722 126 722 l 193 722 q 219 711 208 722 q 231 685 231 700 l 231 38 m 15 840 q -11 851 0 840 q -22 878 -22 863 l -22 922 q -11 949 -22 938 q 15 960 0 960 l 319 960 q 346 949 335 960 q 357 922 357 938 l 357 878 q 346 851 357 863 q 319 840 335 840 l 15 840 z "},"į":{"ha":372,"x_min":13,"x_max":278,"o":"m 268 38 q 257 11 268 22 q 231 0 246 0 l 207 0 q 125 -103 125 -4 q 217 -206 125 -206 l 238 -206 q 268 -236 268 -206 l 268 -275 q 238 -306 268 -306 l 211 -306 q 133 -292 169 -306 q 69 -253 96 -279 q 28 -190 43 -228 q 13 -103 13 -153 q 48 24 13 -25 q 142 90 83 72 l 142 685 q 153 711 142 700 q 179 722 164 722 l 231 722 q 257 711 246 722 q 268 685 268 700 l 268 38 m 278 869 q 267 843 278 854 q 240 832 256 832 l 161 832 q 135 843 146 832 q 124 869 124 854 l 124 949 q 135 975 124 964 q 161 986 146 986 l 240 986 q 267 975 256 986 q 278 949 278 964 l 278 869 z "},"ĩ":{"ha":335,"x_min":-36,"x_max":371,"o":"m 231 38 q 219 11 231 22 q 193 0 208 0 l 142 0 q 115 11 126 0 q 104 38 104 22 l 104 685 q 115 711 104 700 q 142 722 126 722 l 193 722 q 219 711 208 722 q 231 685 231 700 l 231 38 m 251 819 q 200 826 221 819 q 163 842 179 833 q 132 857 146 850 q 101 864 118 864 q 78 858 85 864 q 67 845 71 853 q 58 832 63 838 q 42 826 53 826 l -10 826 q -29 834 -22 826 q -36 853 -36 842 q -30 891 -36 868 q -9 935 -24 914 q 28 971 6 956 q 83 986 51 986 q 135 979 114 986 q 171 964 156 972 q 201 949 186 956 q 233 942 215 942 q 257 947 250 942 q 268 960 264 953 q 277 974 272 968 q 293 979 282 979 l 344 979 q 364 972 357 979 q 371 953 371 964 q 365 915 371 938 q 344 871 358 892 q 306 835 329 850 q 251 819 283 819 z "},"ı":{"ha":335,"x_min":104,"x_max":231,"o":"m 231 38 q 219 11 231 22 q 193 0 208 0 l 142 0 q 115 11 126 0 q 104 38 104 22 l 104 685 q 115 711 104 700 q 142 722 126 722 l 193 722 q 219 711 208 722 q 231 685 231 700 l 231 38 z "},"j":{"ha":347,"x_min":-50,"x_max":257,"o":"m 117 685 q 128 711 117 700 q 154 722 139 722 l 206 722 q 232 711 221 722 q 243 685 243 700 l 243 -21 q 189 -201 243 -139 q 14 -264 135 -264 l -12 -264 q -39 -253 -28 -264 q -50 -226 -50 -242 l -50 -182 q -39 -156 -50 -167 q -12 -144 -28 -144 l 0 -144 q 59 -135 36 -144 q 94 -110 82 -126 q 112 -70 107 -93 q 117 -21 117 -47 l 117 685 m 257 869 q 246 843 257 854 q 219 832 235 832 l 140 832 q 114 843 125 832 q 103 869 103 854 l 103 949 q 114 975 103 964 q 140 986 125 986 l 219 986 q 246 975 235 986 q 257 949 257 964 l 257 869 z "},"ĵ":{"ha":410,"x_min":-21,"x_max":379,"o":"m 179 603 l 64 603 q 38 614 49 603 q 26 640 26 625 l 26 685 q 38 711 26 700 q 64 722 49 722 l 268 722 q 294 711 283 722 q 306 685 306 700 l 306 -21 q 251 -201 306 -139 q 76 -264 197 -264 l 50 -264 q 24 -253 35 -264 q 13 -226 13 -242 l 13 -182 q 24 -156 13 -167 q 50 -144 35 -144 l 63 -144 q 122 -135 99 -144 q 157 -110 144 -126 q 174 -70 169 -93 q 179 -21 179 -47 l 179 603 m 193 1021 q 219 1015 208 1021 q 244 994 231 1010 l 372 867 q 379 849 379 860 q 357 826 379 826 l 328 826 q 306 830 314 826 q 285 842 297 833 l 179 913 l 74 842 q 53 830 61 833 q 31 826 44 826 l 1 826 q -21 849 -21 826 q -14 867 -21 860 l 114 994 q 139 1015 128 1010 q 165 1021 150 1021 l 193 1021 z "},"ȷ":{"ha":410,"x_min":13,"x_max":306,"o":"m 179 603 l 64 603 q 38 614 49 603 q 26 640 26 625 l 26 685 q 38 711 26 700 q 64 722 49 722 l 268 722 q 294 711 283 722 q 306 685 306 700 l 306 -21 q 251 -201 306 -139 q 76 -264 197 -264 l 50 -264 q 24 -253 35 -264 q 13 -226 13 -242 l 13 -182 q 24 -156 13 -167 q 50 -144 35 -144 l 63 -144 q 122 -135 99 -144 q 157 -110 144 -126 q 174 -70 169 -93 q 179 -21 179 -47 l 179 603 z "},"k":{"ha":710,"x_min":104,"x_max":692,"o":"m 231 306 l 231 38 q 219 11 231 22 q 193 0 208 0 l 142 0 q 115 11 126 0 q 104 38 104 22 l 104 949 q 115 975 104 964 q 142 986 126 986 l 193 986 q 219 975 208 986 q 231 949 231 964 l 231 489 l 501 699 q 523 714 510 706 q 556 722 536 722 l 625 722 q 649 713 639 722 q 658 689 658 703 q 656 676 658 682 q 643 661 654 669 l 308 400 l 678 60 q 689 46 686 51 q 692 33 692 40 q 682 10 692 19 q 658 0 672 0 l 593 0 q 558 8 572 0 q 536 24 543 17 l 231 306 z "},"ķ":{"ha":710,"x_min":104,"x_max":692,"o":"m 231 306 l 231 38 q 219 11 231 22 q 193 0 208 0 l 142 0 q 115 11 126 0 q 104 38 104 22 l 104 949 q 115 975 104 964 q 142 986 126 986 l 193 986 q 219 975 208 986 q 231 949 231 964 l 231 489 l 501 699 q 523 714 510 706 q 556 722 536 722 l 625 722 q 649 713 639 722 q 658 689 658 703 q 656 676 658 682 q 643 661 654 669 l 308 400 l 678 60 q 689 46 686 51 q 692 33 692 40 q 682 10 692 19 q 658 0 672 0 l 593 0 q 558 8 572 0 q 536 24 543 17 l 231 306 m 286 -124 q 303 -87 289 -104 q 346 -69 318 -69 l 418 -69 q 440 -78 431 -69 q 449 -100 449 -87 q 447 -110 449 -106 l 372 -303 q 353 -332 367 -317 q 313 -347 340 -347 l 288 -347 q 266 -338 275 -347 q 257 -317 257 -329 l 257 -314 l 286 -124 z "},"ĸ":{"ha":711,"x_min":104,"x_max":693,"o":"m 231 454 l 513 699 q 534 714 521 706 q 567 722 547 722 l 626 722 q 650 713 640 722 q 660 689 660 703 q 658 676 660 682 q 644 661 656 669 l 308 367 l 679 60 q 693 33 693 49 q 683 10 693 19 q 660 0 674 0 l 586 0 q 551 8 565 0 q 529 24 536 17 l 231 271 l 231 38 q 219 11 231 22 q 193 0 208 0 l 142 0 q 115 11 126 0 q 104 38 104 22 l 104 685 q 115 711 104 700 q 142 722 126 722 l 193 722 q 219 711 208 722 q 231 685 231 700 l 231 454 z "},"l":{"ha":335,"x_min":104,"x_max":231,"o":"m 231 38 q 219 11 231 22 q 193 0 208 0 l 142 0 q 115 11 126 0 q 104 38 104 22 l 104 949 q 115 975 104 964 q 142 986 126 986 l 193 986 q 219 975 208 986 q 231 949 231 964 l 231 38 z "},"ĺ":{"ha":335,"x_min":104,"x_max":397,"o":"m 231 38 q 219 11 231 22 q 193 0 208 0 l 142 0 q 115 11 126 0 q 104 38 104 22 l 104 949 q 115 975 104 964 q 142 986 126 986 l 193 986 q 219 975 208 986 q 231 949 231 964 l 231 38 m 217 1210 q 242 1232 232 1228 q 268 1236 253 1236 l 371 1236 q 397 1208 397 1236 q 390 1192 397 1199 l 236 1065 q 213 1049 225 1056 q 178 1042 200 1042 l 126 1042 q 104 1064 104 1042 q 111 1082 104 1075 l 217 1210 z "},"ľ":{"ha":414,"x_min":104,"x_max":496,"o":"m 231 38 q 219 11 231 22 q 193 0 208 0 l 142 0 q 115 11 126 0 q 104 38 104 22 l 104 949 q 115 975 104 964 q 142 986 126 986 l 193 986 q 219 975 208 986 q 231 949 231 964 l 231 38 m 333 933 q 351 970 336 953 q 393 988 365 988 l 465 988 q 487 978 478 988 q 496 957 496 969 q 494 947 496 951 l 419 754 q 401 725 414 740 q 360 710 388 710 l 335 710 q 313 719 322 710 q 304 740 304 728 l 304 743 l 333 933 z "},"ļ":{"ha":335,"x_min":46,"x_max":238,"o":"m 231 38 q 219 11 231 22 q 193 0 208 0 l 142 0 q 115 11 126 0 q 104 38 104 22 l 104 949 q 115 975 104 964 q 142 986 126 986 l 193 986 q 219 975 208 986 q 231 949 231 964 l 231 38 m 75 -124 q 92 -87 78 -104 q 135 -69 107 -69 l 207 -69 q 228 -78 219 -69 q 238 -100 238 -87 q 236 -110 238 -106 l 161 -303 q 142 -332 156 -317 q 101 -347 129 -347 l 76 -347 q 55 -338 64 -347 q 46 -317 46 -329 l 46 -314 l 75 -124 z "},"ŀ":{"ha":419,"x_min":104,"x_max":454,"o":"m 231 38 q 219 11 231 22 q 193 0 208 0 l 142 0 q 115 11 126 0 q 104 38 104 22 l 104 949 q 115 975 104 964 q 142 986 126 986 l 193 986 q 219 975 208 986 q 231 949 231 964 l 231 38 m 454 463 q 443 436 454 447 q 417 425 432 425 l 338 425 q 311 436 322 425 q 300 463 300 447 l 300 542 q 311 568 300 557 q 338 579 322 579 l 417 579 q 443 568 432 579 q 454 542 454 557 l 454 463 z "},"ł":{"ha":360,"x_min":33,"x_max":326,"o":"m 243 578 l 282 593 q 297 597 292 597 q 318 589 310 597 q 326 568 326 581 l 326 529 q 296 483 326 494 l 243 463 l 243 38 q 232 11 243 22 q 206 0 221 0 l 154 0 q 128 11 139 0 q 117 38 117 22 l 117 413 l 78 397 q 63 393 67 393 q 42 401 50 393 q 33 422 33 410 l 33 461 q 64 507 33 496 l 117 528 l 117 949 q 128 975 117 964 q 154 986 139 986 l 206 986 q 232 975 221 986 q 243 949 243 964 l 243 578 z "},"m":{"ha":1236,"x_min":104,"x_max":1139,"o":"m 231 642 q 260 676 243 658 q 298 706 276 693 q 349 728 319 719 q 417 736 378 736 q 557 705 501 736 q 644 615 613 674 q 683 663 663 640 q 730 701 703 685 q 791 727 757 718 q 871 736 825 736 q 1075 652 1011 736 q 1139 422 1139 568 l 1139 38 q 1128 11 1139 22 q 1101 0 1117 0 l 1050 0 q 1024 11 1035 0 q 1013 38 1013 22 l 1013 408 q 971 566 1013 515 q 849 617 929 617 q 730 568 775 617 q 685 418 685 519 l 685 38 q 674 11 685 22 q 647 0 663 0 l 596 0 q 569 11 581 0 q 558 38 558 22 l 558 408 q 517 566 558 515 q 394 617 475 617 q 276 568 321 617 q 231 418 231 519 l 231 38 q 219 11 231 22 q 193 0 208 0 l 142 0 q 115 11 126 0 q 104 38 104 22 l 104 685 q 115 711 104 700 q 142 722 126 722 l 193 722 q 219 711 208 722 q 231 685 231 700 l 231 642 z "},"n":{"ha":843,"x_min":104,"x_max":746,"o":"m 746 38 q 735 11 746 22 q 708 0 724 0 l 657 0 q 631 11 642 0 q 619 38 619 22 l 619 404 q 568 564 619 511 q 425 617 517 617 q 284 564 338 617 q 231 404 231 511 l 231 38 q 219 11 231 22 q 193 0 208 0 l 142 0 q 115 11 126 0 q 104 38 104 22 l 104 685 q 115 711 104 700 q 142 722 126 722 l 193 722 q 219 711 208 722 q 231 685 231 700 l 231 642 q 309 706 257 676 q 446 736 361 736 q 567 715 511 736 q 662 653 622 693 q 724 556 701 614 q 746 425 746 497 l 746 38 z "},"ń":{"ha":843,"x_min":104,"x_max":746,"o":"m 746 38 q 735 11 746 22 q 708 0 724 0 l 657 0 q 631 11 642 0 q 619 38 619 22 l 619 404 q 568 564 619 511 q 425 617 517 617 q 284 564 338 617 q 231 404 231 511 l 231 38 q 219 11 231 22 q 193 0 208 0 l 142 0 q 115 11 126 0 q 104 38 104 22 l 104 685 q 115 711 104 700 q 142 722 126 722 l 193 722 q 219 711 208 722 q 231 685 231 700 l 231 642 q 309 706 257 676 q 446 736 361 736 q 567 715 511 736 q 662 653 622 693 q 724 556 701 614 q 746 425 746 497 l 746 38 m 469 994 q 495 1017 485 1013 q 521 1021 506 1021 l 624 1021 q 650 993 650 1021 q 643 976 650 983 l 489 850 q 465 833 478 840 q 431 826 453 826 l 379 826 q 357 849 357 826 q 364 867 357 860 l 469 994 z "},"ŉ":{"ha":843,"x_min":104,"x_max":746,"o":"m 746 38 q 735 11 746 22 q 708 0 724 0 l 657 0 q 631 11 642 0 q 619 38 619 22 l 619 404 q 568 564 619 511 q 425 617 517 617 q 284 564 338 617 q 231 404 231 511 l 231 38 q 219 11 231 22 q 193 0 208 0 l 142 0 q 115 11 126 0 q 104 38 104 22 l 104 685 q 115 711 104 700 q 142 722 126 722 l 193 722 q 219 711 208 722 q 231 685 231 700 l 231 642 q 309 706 257 676 q 446 736 361 736 q 567 715 511 736 q 662 653 622 693 q 724 556 701 614 q 746 425 746 497 l 746 38 m 149 1050 q 166 1087 151 1069 q 208 1104 181 1104 l 281 1104 q 302 1095 293 1104 q 311 1074 311 1086 q 310 1064 311 1068 l 235 871 q 216 842 229 857 q 175 826 203 826 l 150 826 q 128 835 138 826 q 119 857 119 844 l 119 860 l 149 1050 z "},"ň":{"ha":843,"x_min":104,"x_max":746,"o":"m 746 38 q 735 11 746 22 q 708 0 724 0 l 657 0 q 631 11 642 0 q 619 38 619 22 l 619 404 q 568 564 619 511 q 425 617 517 617 q 284 564 338 617 q 231 404 231 511 l 231 38 q 219 11 231 22 q 193 0 208 0 l 142 0 q 115 11 126 0 q 104 38 104 22 l 104 685 q 115 711 104 700 q 142 722 126 722 l 193 722 q 219 711 208 722 q 231 685 231 700 l 231 642 q 309 706 257 676 q 446 736 361 736 q 567 715 511 736 q 662 653 622 693 q 724 556 701 614 q 746 425 746 497 l 746 38 m 411 826 q 385 832 396 826 q 360 853 374 838 l 232 981 q 225 999 225 988 q 247 1021 225 1021 l 276 1021 q 299 1017 290 1021 q 319 1006 307 1014 l 425 935 l 531 1006 q 551 1017 543 1014 q 574 1021 560 1021 l 603 1021 q 625 999 625 1021 q 618 981 625 988 l 490 853 q 465 832 476 838 q 439 826 454 826 l 411 826 z "},"ņ":{"ha":843,"x_min":104,"x_max":746,"o":"m 746 38 q 735 11 746 22 q 708 0 724 0 l 657 0 q 631 11 642 0 q 619 38 619 22 l 619 404 q 568 564 619 511 q 425 617 517 617 q 284 564 338 617 q 231 404 231 511 l 231 38 q 219 11 231 22 q 193 0 208 0 l 142 0 q 115 11 126 0 q 104 38 104 22 l 104 685 q 115 711 104 700 q 142 722 126 722 l 193 722 q 219 711 208 722 q 231 685 231 700 l 231 642 q 309 706 257 676 q 446 736 361 736 q 567 715 511 736 q 662 653 622 693 q 724 556 701 614 q 746 425 746 497 l 746 38 m 333 -124 q 351 -87 336 -104 q 393 -69 365 -69 l 465 -69 q 487 -78 478 -69 q 496 -100 496 -87 q 494 -110 496 -106 l 419 -303 q 401 -332 414 -317 q 360 -347 388 -347 l 335 -347 q 313 -338 322 -347 q 304 -317 304 -329 l 304 -314 l 333 -124 z "},"ñ":{"ha":843,"x_min":104,"x_max":746,"o":"m 746 38 q 735 11 746 22 q 708 0 724 0 l 657 0 q 631 11 642 0 q 619 38 619 22 l 619 404 q 568 564 619 511 q 425 617 517 617 q 284 564 338 617 q 231 404 231 511 l 231 38 q 219 11 231 22 q 193 0 208 0 l 142 0 q 115 11 126 0 q 104 38 104 22 l 104 685 q 115 711 104 700 q 142 722 126 722 l 193 722 q 219 711 208 722 q 231 685 231 700 l 231 642 q 309 706 257 676 q 446 736 361 736 q 567 715 511 736 q 662 653 622 693 q 724 556 701 614 q 746 425 746 497 l 746 38 m 510 819 q 458 826 479 819 q 421 842 438 833 q 390 857 404 850 q 360 864 376 864 q 336 858 343 864 q 325 845 329 853 q 316 832 321 838 q 300 826 311 826 l 249 826 q 229 834 236 826 q 222 853 222 842 q 228 891 222 868 q 249 935 235 914 q 287 971 264 956 q 342 986 310 986 q 393 979 372 986 q 429 964 414 972 q 459 949 444 956 q 492 942 474 942 q 515 947 508 942 q 526 960 522 953 q 535 974 531 968 q 551 979 540 979 l 603 979 q 622 972 615 979 q 629 953 629 964 q 623 915 629 938 q 602 871 617 892 q 565 835 588 850 q 510 819 542 819 z "},"o":{"ha":801,"x_min":68,"x_max":731,"o":"m 400 736 q 533 713 475 736 q 633 650 592 690 q 699 552 675 610 q 729 426 724 494 q 731 397 731 414 q 731 360 731 379 q 731 324 731 342 q 729 296 731 307 q 699 169 722 226 q 633 72 675 113 q 533 9 592 32 q 400 -14 475 -14 q 267 9 325 -14 q 167 72 208 32 q 101 169 125 113 q 71 296 76 226 q 69 324 69 307 q 68 360 68 342 q 69 397 68 379 q 71 426 69 414 q 101 552 76 494 q 167 650 125 610 q 267 713 208 690 q 400 736 325 736 m 603 303 q 606 360 606 326 q 603 419 606 394 q 585 497 599 461 q 546 560 571 533 q 485 601 521 586 q 400 617 449 617 q 315 601 351 617 q 254 560 279 586 q 215 497 229 533 q 197 419 201 461 q 194 360 194 394 q 197 303 194 326 q 215 225 201 261 q 254 163 229 189 q 315 121 279 136 q 400 106 351 106 q 485 121 449 106 q 546 163 521 136 q 585 225 571 189 q 603 303 599 261 z "},"ó":{"ha":801,"x_min":68,"x_max":731,"o":"m 400 736 q 533 713 475 736 q 633 650 592 690 q 699 552 675 610 q 729 426 724 494 q 731 397 731 414 q 731 360 731 379 q 731 324 731 342 q 729 296 731 307 q 699 169 722 226 q 633 72 675 113 q 533 9 592 32 q 400 -14 475 -14 q 267 9 325 -14 q 167 72 208 32 q 101 169 125 113 q 71 296 76 226 q 69 324 69 307 q 68 360 68 342 q 69 397 68 379 q 71 426 69 414 q 101 552 76 494 q 167 650 125 610 q 267 713 208 690 q 400 736 325 736 m 603 303 q 606 360 606 326 q 603 419 606 394 q 585 497 599 461 q 546 560 571 533 q 485 601 521 586 q 400 617 449 617 q 315 601 351 617 q 254 560 279 586 q 215 497 229 533 q 197 419 201 461 q 194 360 194 394 q 197 303 194 326 q 215 225 201 261 q 254 163 229 189 q 315 121 279 136 q 400 106 351 106 q 485 121 449 106 q 546 163 521 136 q 585 225 571 189 q 603 303 599 261 m 442 994 q 467 1017 457 1013 q 493 1021 478 1021 l 596 1021 q 622 993 622 1021 q 615 976 622 983 l 461 850 q 438 833 450 840 q 403 826 425 826 l 351 826 q 329 849 329 826 q 336 867 329 860 l 442 994 z "},"ŏ":{"ha":801,"x_min":68,"x_max":731,"o":"m 400 736 q 533 713 475 736 q 633 650 592 690 q 699 552 675 610 q 729 426 724 494 q 731 397 731 414 q 731 360 731 379 q 731 324 731 342 q 729 296 731 307 q 699 169 722 226 q 633 72 675 113 q 533 9 592 32 q 400 -14 475 -14 q 267 9 325 -14 q 167 72 208 32 q 101 169 125 113 q 71 296 76 226 q 69 324 69 307 q 68 360 68 342 q 69 397 68 379 q 71 426 69 414 q 101 552 76 494 q 167 650 125 610 q 267 713 208 690 q 400 736 325 736 m 603 303 q 606 360 606 326 q 603 419 606 394 q 585 497 599 461 q 546 560 571 533 q 485 601 521 586 q 400 617 449 617 q 315 601 351 617 q 254 560 279 586 q 215 497 229 533 q 197 419 201 461 q 194 360 194 394 q 197 303 194 326 q 215 225 201 261 q 254 163 229 189 q 315 121 279 136 q 400 106 351 106 q 485 121 449 106 q 546 163 521 136 q 585 225 571 189 q 603 303 599 261 m 400 819 q 323 835 356 819 q 269 875 290 850 q 238 931 249 900 q 228 994 228 963 q 235 1013 228 1006 q 254 1021 242 1021 l 299 1021 q 318 1013 311 1021 q 325 994 325 1006 q 344 935 325 958 q 400 911 364 911 q 456 935 436 911 q 475 994 475 958 q 482 1013 475 1006 q 501 1021 489 1021 l 546 1021 q 565 1013 558 1021 q 572 994 572 1006 q 562 931 572 963 q 531 875 551 900 q 477 835 510 850 q 400 819 444 819 z "},"ô":{"ha":801,"x_min":68,"x_max":731,"o":"m 400 736 q 533 713 475 736 q 633 650 592 690 q 699 552 675 610 q 729 426 724 494 q 731 397 731 414 q 731 360 731 379 q 731 324 731 342 q 729 296 731 307 q 699 169 722 226 q 633 72 675 113 q 533 9 592 32 q 400 -14 475 -14 q 267 9 325 -14 q 167 72 208 32 q 101 169 125 113 q 71 296 76 226 q 69 324 69 307 q 68 360 68 342 q 69 397 68 379 q 71 426 69 414 q 101 552 76 494 q 167 650 125 610 q 267 713 208 690 q 400 736 325 736 m 603 303 q 606 360 606 326 q 603 419 606 394 q 585 497 599 461 q 546 560 571 533 q 485 601 521 586 q 400 617 449 617 q 315 601 351 617 q 254 560 279 586 q 215 497 229 533 q 197 419 201 461 q 194 360 194 394 q 197 303 194 326 q 215 225 201 261 q 254 163 229 189 q 315 121 279 136 q 400 106 351 106 q 485 121 449 106 q 546 163 521 136 q 585 225 571 189 q 603 303 599 261 m 414 1021 q 440 1015 429 1021 q 465 994 451 1010 l 593 867 q 600 849 600 860 q 578 826 600 826 l 549 826 q 526 830 535 826 q 506 842 518 833 l 400 913 l 294 842 q 274 830 282 833 q 251 826 265 826 l 222 826 q 200 849 200 826 q 207 867 200 860 l 335 994 q 360 1015 349 1010 q 386 1021 371 1021 l 414 1021 z "},"ö":{"ha":801,"x_min":68,"x_max":731,"o":"m 400 736 q 533 713 475 736 q 633 650 592 690 q 699 552 675 610 q 729 426 724 494 q 731 397 731 414 q 731 360 731 379 q 731 324 731 342 q 729 296 731 307 q 699 169 722 226 q 633 72 675 113 q 533 9 592 32 q 400 -14 475 -14 q 267 9 325 -14 q 167 72 208 32 q 101 169 125 113 q 71 296 76 226 q 69 324 69 307 q 68 360 68 342 q 69 397 68 379 q 71 426 69 414 q 101 552 76 494 q 167 650 125 610 q 267 713 208 690 q 400 736 325 736 m 603 303 q 606 360 606 326 q 603 419 606 394 q 585 497 599 461 q 546 560 571 533 q 485 601 521 586 q 400 617 449 617 q 315 601 351 617 q 254 560 279 586 q 215 497 229 533 q 197 419 201 461 q 194 360 194 394 q 197 303 194 326 q 215 225 201 261 q 254 163 229 189 q 315 121 279 136 q 400 106 351 106 q 485 121 449 106 q 546 163 521 136 q 585 225 571 189 q 603 303 599 261 m 351 871 q 340 844 351 856 q 314 833 329 833 l 235 833 q 208 844 219 833 q 197 871 197 856 l 197 950 q 208 976 197 965 q 235 988 219 988 l 314 988 q 340 976 329 988 q 351 950 351 965 l 351 871 m 603 871 q 592 844 603 856 q 565 833 581 833 l 486 833 q 460 844 471 833 q 449 871 449 856 l 449 950 q 460 976 449 965 q 486 988 471 988 l 565 988 q 592 976 581 988 q 603 950 603 965 l 603 871 z "},"ò":{"ha":801,"x_min":68,"x_max":731,"o":"m 400 736 q 533 713 475 736 q 633 650 592 690 q 699 552 675 610 q 729 426 724 494 q 731 397 731 414 q 731 360 731 379 q 731 324 731 342 q 729 296 731 307 q 699 169 722 226 q 633 72 675 113 q 533 9 592 32 q 400 -14 475 -14 q 267 9 325 -14 q 167 72 208 32 q 101 169 125 113 q 71 296 76 226 q 69 324 69 307 q 68 360 68 342 q 69 397 68 379 q 71 426 69 414 q 101 552 76 494 q 167 650 125 610 q 267 713 208 690 q 400 736 325 736 m 603 303 q 606 360 606 326 q 603 419 606 394 q 585 497 599 461 q 546 560 571 533 q 485 601 521 586 q 400 617 449 617 q 315 601 351 617 q 254 560 279 586 q 215 497 229 533 q 197 419 201 461 q 194 360 194 394 q 197 303 194 326 q 215 225 201 261 q 254 163 229 189 q 315 121 279 136 q 400 106 351 106 q 485 121 449 106 q 546 163 521 136 q 585 225 571 189 q 603 303 599 261 m 464 867 q 471 849 471 860 q 449 826 471 826 l 397 826 q 363 833 375 826 q 339 850 350 840 l 185 976 q 178 993 178 983 q 204 1021 178 1021 l 307 1021 q 333 1017 322 1021 q 358 994 343 1013 l 464 867 z "},"ő":{"ha":801,"x_min":68,"x_max":731,"o":"m 400 736 q 533 713 475 736 q 633 650 592 690 q 699 552 675 610 q 729 426 724 494 q 731 397 731 414 q 731 360 731 379 q 731 324 731 342 q 729 296 731 307 q 699 169 722 226 q 633 72 675 113 q 533 9 592 32 q 400 -14 475 -14 q 267 9 325 -14 q 167 72 208 32 q 101 169 125 113 q 71 296 76 226 q 69 324 69 307 q 68 360 68 342 q 69 397 68 379 q 71 426 69 414 q 101 552 76 494 q 167 650 125 610 q 267 713 208 690 q 400 736 325 736 m 603 303 q 606 360 606 326 q 603 419 606 394 q 585 497 599 461 q 546 560 571 533 q 485 601 521 586 q 400 617 449 617 q 315 601 351 617 q 254 560 279 586 q 215 497 229 533 q 197 419 201 461 q 194 360 194 394 q 197 303 194 326 q 215 225 201 261 q 254 163 229 189 q 315 121 279 136 q 400 106 351 106 q 485 121 449 106 q 546 163 521 136 q 585 225 571 189 q 603 303 599 261 m 275 994 q 293 1015 282 1008 q 326 1021 304 1021 l 422 1021 q 450 994 450 1021 q 442 976 450 985 l 321 846 q 274 826 304 826 l 235 826 q 213 849 213 826 q 215 860 213 854 q 219 869 217 865 l 275 994 m 521 994 q 539 1015 528 1008 q 572 1021 550 1021 l 668 1021 q 696 994 696 1021 q 688 976 696 985 l 567 846 q 519 826 550 826 l 481 826 q 458 849 458 826 q 460 860 458 854 q 465 869 463 865 l 521 994 z "},"ō":{"ha":801,"x_min":68,"x_max":731,"o":"m 400 736 q 533 713 475 736 q 633 650 592 690 q 699 552 675 610 q 729 426 724 494 q 731 397 731 414 q 731 360 731 379 q 731 324 731 342 q 729 296 731 307 q 699 169 722 226 q 633 72 675 113 q 533 9 592 32 q 400 -14 475 -14 q 267 9 325 -14 q 167 72 208 32 q 101 169 125 113 q 71 296 76 226 q 69 324 69 307 q 68 360 68 342 q 69 397 68 379 q 71 426 69 414 q 101 552 76 494 q 167 650 125 610 q 267 713 208 690 q 400 736 325 736 m 603 303 q 606 360 606 326 q 603 419 606 394 q 585 497 599 461 q 546 560 571 533 q 485 601 521 586 q 400 617 449 617 q 315 601 351 617 q 254 560 279 586 q 215 497 229 533 q 197 419 201 461 q 194 360 194 394 q 197 303 194 326 q 215 225 201 261 q 254 163 229 189 q 315 121 279 136 q 400 106 351 106 q 485 121 449 106 q 546 163 521 136 q 585 225 571 189 q 603 303 599 261 m 249 840 q 222 851 233 840 q 211 878 211 863 l 211 922 q 222 949 211 938 q 249 960 233 960 l 553 960 q 579 949 568 960 q 590 922 590 938 l 590 878 q 579 851 590 863 q 553 840 568 840 l 249 840 z "},"ø":{"ha":843,"x_min":17,"x_max":826,"o":"m 422 736 q 615 683 539 736 q 726 538 692 629 l 782 560 q 797 564 792 564 q 818 556 810 564 q 826 535 826 547 l 826 496 q 796 450 826 461 l 750 432 q 751 429 750 431 q 751 426 751 428 q 753 397 753 414 q 753 360 753 379 q 753 324 753 342 q 751 296 753 307 q 721 169 744 226 q 656 72 697 113 q 556 9 614 32 q 422 -14 497 -14 q 228 40 304 -14 q 117 185 151 93 l 61 163 q 46 158 50 158 q 25 167 33 158 q 17 188 17 175 l 17 226 q 47 272 17 261 l 93 290 l 93 296 q 91 324 92 307 q 90 360 90 342 q 91 397 90 379 q 93 426 92 414 q 123 552 99 494 q 189 650 147 610 q 289 713 231 690 q 422 736 347 736 m 625 303 q 627 340 626 318 q 626 383 628 363 l 235 231 q 301 140 254 174 q 422 106 347 106 q 507 121 471 106 q 568 163 543 136 q 607 225 593 189 q 625 303 621 261 m 219 419 q 217 381 217 403 q 217 339 217 358 l 610 492 q 543 583 589 549 q 422 617 497 617 q 338 601 374 617 q 276 560 301 586 q 238 497 251 533 q 219 419 224 461 z "},"ǿ":{"ha":843,"x_min":17,"x_max":826,"o":"m 467 994 q 492 1017 482 1013 q 518 1021 503 1021 l 621 1021 q 647 993 647 1021 q 640 976 647 983 l 486 850 q 463 833 475 840 q 428 826 450 826 l 376 826 q 354 849 354 826 q 361 867 354 860 l 467 994 m 422 736 q 615 683 539 736 q 726 538 692 629 l 782 560 q 797 564 792 564 q 818 556 810 564 q 826 535 826 547 l 826 496 q 796 450 826 461 l 750 432 q 751 429 750 431 q 751 426 751 428 q 753 397 753 414 q 753 360 753 379 q 753 324 753 342 q 751 296 753 307 q 721 169 744 226 q 656 72 697 113 q 556 9 614 32 q 422 -14 497 -14 q 228 40 304 -14 q 117 185 151 93 l 61 163 q 46 158 50 158 q 25 167 33 158 q 17 188 17 175 l 17 226 q 47 272 17 261 l 93 290 l 93 296 q 91 324 92 307 q 90 360 90 342 q 91 397 90 379 q 93 426 92 414 q 123 552 99 494 q 189 650 147 610 q 289 713 231 690 q 422 736 347 736 m 625 303 q 627 340 626 318 q 626 383 628 363 l 235 231 q 301 140 254 174 q 422 106 347 106 q 507 121 471 106 q 568 163 543 136 q 607 225 593 189 q 625 303 621 261 m 219 419 q 217 381 217 403 q 217 339 217 358 l 610 492 q 543 583 589 549 q 422 617 497 617 q 338 601 374 617 q 276 560 301 586 q 238 497 251 533 q 219 419 224 461 z "},"õ":{"ha":801,"x_min":68,"x_max":731,"o":"m 400 736 q 533 713 475 736 q 633 650 592 690 q 699 552 675 610 q 729 426 724 494 q 731 397 731 414 q 731 360 731 379 q 731 324 731 342 q 729 296 731 307 q 699 169 722 226 q 633 72 675 113 q 533 9 592 32 q 400 -14 475 -14 q 267 9 325 -14 q 167 72 208 32 q 101 169 125 113 q 71 296 76 226 q 69 324 69 307 q 68 360 68 342 q 69 397 68 379 q 71 426 69 414 q 101 552 76 494 q 167 650 125 610 q 267 713 208 690 q 400 736 325 736 m 603 303 q 606 360 606 326 q 603 419 606 394 q 585 497 599 461 q 546 560 571 533 q 485 601 521 586 q 400 617 449 617 q 315 601 351 617 q 254 560 279 586 q 215 497 229 533 q 197 419 201 461 q 194 360 194 394 q 197 303 194 326 q 215 225 201 261 q 254 163 229 189 q 315 121 279 136 q 400 106 351 106 q 485 121 449 106 q 546 163 521 136 q 585 225 571 189 q 603 303 599 261 m 485 819 q 433 826 454 819 q 396 842 413 833 q 365 857 379 850 q 335 864 351 864 q 311 858 318 864 q 300 845 304 853 q 291 832 296 838 q 275 826 286 826 l 224 826 q 204 834 211 826 q 197 853 197 842 q 203 891 197 868 q 224 935 210 914 q 262 971 239 956 q 317 986 285 986 q 368 979 347 986 q 404 964 389 972 q 434 949 419 956 q 467 942 449 942 q 490 947 483 942 q 501 960 497 953 q 510 974 506 968 q 526 979 515 979 l 578 979 q 597 972 590 979 q 604 953 604 964 q 598 915 604 938 q 577 871 592 892 q 540 835 563 850 q 485 819 517 819 z "},"œ":{"ha":1313,"x_min":68,"x_max":1247,"o":"m 400 736 q 561 701 493 736 q 669 606 629 667 q 776 701 711 665 q 926 736 840 736 q 1060 712 1001 736 q 1161 642 1119 688 q 1225 531 1203 596 q 1247 385 1247 465 l 1247 347 q 1236 321 1247 332 q 1210 310 1225 310 l 732 310 l 732 301 q 790 156 735 207 q 926 106 844 106 q 1041 127 1003 106 q 1103 175 1079 149 q 1122 190 1114 186 q 1147 194 1131 194 l 1189 194 q 1217 183 1204 194 q 1226 157 1229 172 q 1203 102 1222 132 q 1147 47 1183 72 q 1055 3 1110 21 q 926 -14 1000 -14 q 776 22 842 -14 q 671 118 711 57 q 562 21 629 56 q 400 -14 494 -14 q 267 9 325 -14 q 167 72 208 32 q 101 169 125 113 q 71 296 76 226 q 69 324 69 307 q 68 360 68 342 q 69 397 68 379 q 71 426 69 414 q 101 552 76 494 q 167 650 125 610 q 267 713 208 690 q 400 736 325 736 m 603 303 q 606 360 606 326 q 603 419 606 394 q 585 497 599 461 q 546 560 571 533 q 485 601 521 586 q 400 617 449 617 q 315 601 351 617 q 254 560 279 586 q 215 497 229 533 q 197 419 201 461 q 194 360 194 394 q 197 303 194 326 q 215 225 201 261 q 254 163 229 189 q 315 121 279 136 q 400 106 351 106 q 485 121 449 106 q 546 163 521 136 q 585 225 571 189 q 603 303 599 261 m 732 426 l 1122 426 l 1122 431 q 1069 566 1122 515 q 926 617 1015 617 q 851 603 886 617 q 790 566 817 590 q 749 507 764 542 q 732 431 733 472 l 732 426 z "},"p":{"ha":831,"x_min":104,"x_max":763,"o":"m 446 -14 q 308 16 360 -14 q 231 81 257 46 l 231 -226 q 219 -253 231 -242 q 193 -264 208 -264 l 142 -264 q 115 -253 126 -264 q 104 -226 104 -242 l 104 685 q 115 711 104 700 q 142 722 126 722 l 193 722 q 219 711 208 722 q 231 685 231 700 l 231 642 q 310 708 258 679 q 446 736 361 736 q 567 713 511 736 q 665 647 624 690 q 732 543 707 604 q 761 406 757 482 q 763 360 763 385 q 761 315 763 336 q 732 178 757 239 q 665 74 707 117 q 567 9 624 32 q 446 -14 511 -14 m 231 421 q 229 366 229 400 q 231 311 229 332 q 290 159 235 213 q 432 106 344 106 q 576 164 524 106 q 635 322 629 222 q 635 400 636 361 q 576 558 629 500 q 432 617 524 617 q 290 564 346 617 q 231 421 235 511 z "},"q":{"ha":831,"x_min":68,"x_max":726,"o":"m 385 -14 q 263 9 319 -14 q 165 74 207 32 q 99 178 124 117 q 69 315 74 239 q 68 360 68 336 q 69 406 68 385 q 99 543 74 482 q 165 647 124 604 q 263 713 207 690 q 385 736 319 736 q 521 708 469 736 q 600 642 572 679 l 600 685 q 611 711 600 700 q 638 722 622 722 l 689 722 q 715 711 704 722 q 726 685 726 700 l 726 -226 q 715 -253 726 -242 q 689 -264 704 -264 l 638 -264 q 611 -253 622 -264 q 600 -226 600 -242 l 600 81 q 522 16 574 46 q 385 -14 471 -14 m 600 421 q 540 564 596 511 q 399 617 485 617 q 254 558 307 617 q 196 400 201 500 q 196 322 194 361 q 254 164 201 222 q 399 106 307 106 q 541 159 486 106 q 600 311 596 213 q 601 366 601 332 q 600 421 601 400 z "},"r":{"ha":525,"x_min":104,"x_max":508,"o":"m 471 722 q 497 711 486 722 q 508 685 508 700 l 508 640 q 497 614 508 625 q 471 603 486 603 l 390 603 q 231 443 231 603 l 231 38 q 219 11 231 22 q 193 0 208 0 l 142 0 q 115 11 126 0 q 104 38 104 22 l 104 685 q 115 711 104 700 q 142 722 126 722 l 193 722 q 219 711 208 722 q 231 685 231 700 l 231 642 q 297 703 258 683 q 399 722 336 722 l 471 722 z "},"ŕ":{"ha":525,"x_min":104,"x_max":511,"o":"m 471 722 q 497 711 486 722 q 508 685 508 700 l 508 640 q 497 614 508 625 q 471 603 486 603 l 390 603 q 231 443 231 603 l 231 38 q 219 11 231 22 q 193 0 208 0 l 142 0 q 115 11 126 0 q 104 38 104 22 l 104 685 q 115 711 104 700 q 142 722 126 722 l 193 722 q 219 711 208 722 q 231 685 231 700 l 231 642 q 297 703 258 683 q 399 722 336 722 l 471 722 m 331 994 q 356 1017 346 1013 q 382 1021 367 1021 l 485 1021 q 511 993 511 1021 q 504 976 511 983 l 350 850 q 326 833 339 840 q 292 826 314 826 l 240 826 q 218 849 218 826 q 225 867 218 860 l 331 994 z "},"ř":{"ha":525,"x_min":82,"x_max":508,"o":"m 471 722 q 497 711 486 722 q 508 685 508 700 l 508 640 q 497 614 508 625 q 471 603 486 603 l 390 603 q 231 443 231 603 l 231 38 q 219 11 231 22 q 193 0 208 0 l 142 0 q 115 11 126 0 q 104 38 104 22 l 104 685 q 115 711 104 700 q 142 722 126 722 l 193 722 q 219 711 208 722 q 231 685 231 700 l 231 642 q 297 703 258 683 q 399 722 336 722 l 471 722 m 268 826 q 242 832 253 826 q 217 853 231 838 l 89 981 q 82 999 82 988 q 104 1021 82 1021 l 133 1021 q 156 1017 147 1021 q 176 1006 164 1014 l 282 935 l 388 1006 q 408 1017 400 1014 q 431 1021 417 1021 l 460 1021 q 482 999 482 1021 q 475 981 482 988 l 347 853 q 322 832 333 838 q 296 826 311 826 l 268 826 z "},"ŗ":{"ha":525,"x_min":54,"x_max":508,"o":"m 471 722 q 497 711 486 722 q 508 685 508 700 l 508 640 q 497 614 508 625 q 471 603 486 603 l 390 603 q 231 443 231 603 l 231 38 q 219 11 231 22 q 193 0 208 0 l 142 0 q 115 11 126 0 q 104 38 104 22 l 104 685 q 115 711 104 700 q 142 722 126 722 l 193 722 q 219 711 208 722 q 231 685 231 700 l 231 642 q 297 703 258 683 q 399 722 336 722 l 471 722 m 83 -124 q 101 -87 86 -104 q 143 -69 115 -69 l 215 -69 q 237 -78 228 -69 q 246 -100 246 -87 q 244 -110 246 -106 l 169 -303 q 151 -332 164 -317 q 110 -347 138 -347 l 85 -347 q 63 -338 72 -347 q 54 -317 54 -329 l 54 -314 l 83 -124 z "},"s":{"ha":703,"x_min":60,"x_max":642,"o":"m 515 200 q 501 244 515 226 q 457 274 486 261 q 383 297 428 286 q 278 321 338 308 q 120 399 165 344 q 75 528 75 454 q 92 607 75 569 q 142 674 108 644 q 226 719 175 703 q 344 736 276 736 q 463 721 413 736 q 549 682 514 706 q 601 631 583 658 q 621 579 619 604 q 610 553 622 564 q 583 542 599 542 l 538 542 q 517 545 529 542 q 496 561 506 549 q 442 601 478 585 q 344 617 407 617 q 241 593 281 617 q 201 528 201 569 q 213 485 201 501 q 249 458 224 469 q 315 436 274 446 q 417 413 356 426 q 524 377 481 399 q 593 328 567 356 q 631 269 619 301 q 642 200 642 236 q 622 119 642 158 q 564 51 601 81 q 473 4 526 22 q 351 -14 419 -14 q 231 3 283 -14 q 140 44 178 19 q 83 97 103 68 q 61 150 63 125 q 71 176 60 165 q 99 188 82 188 l 149 188 q 168 185 157 188 q 189 169 179 183 q 250 122 211 139 q 351 106 289 106 q 412 113 382 106 q 465 132 442 119 q 501 162 488 144 q 515 200 515 179 z "},"ś":{"ha":703,"x_min":60,"x_max":642,"o":"m 515 200 q 501 244 515 226 q 457 274 486 261 q 383 297 428 286 q 278 321 338 308 q 120 399 165 344 q 75 528 75 454 q 92 607 75 569 q 142 674 108 644 q 226 719 175 703 q 344 736 276 736 q 463 721 413 736 q 549 682 514 706 q 601 631 583 658 q 621 579 619 604 q 610 553 622 564 q 583 542 599 542 l 538 542 q 517 545 529 542 q 496 561 506 549 q 442 601 478 585 q 344 617 407 617 q 241 593 281 617 q 201 528 201 569 q 213 485 201 501 q 249 458 224 469 q 315 436 274 446 q 417 413 356 426 q 524 377 481 399 q 593 328 567 356 q 631 269 619 301 q 642 200 642 236 q 622 119 642 158 q 564 51 601 81 q 473 4 526 22 q 351 -14 419 -14 q 231 3 283 -14 q 140 44 178 19 q 83 97 103 68 q 61 150 63 125 q 71 176 60 165 q 99 188 82 188 l 149 188 q 168 185 157 188 q 189 169 179 183 q 250 122 211 139 q 351 106 289 106 q 412 113 382 106 q 465 132 442 119 q 501 162 488 144 q 515 200 515 179 m 403 994 q 428 1017 418 1013 q 454 1021 439 1021 l 557 1021 q 583 993 583 1021 q 576 976 583 983 l 422 850 q 399 833 411 840 q 364 826 386 826 l 313 826 q 290 849 290 826 q 297 867 290 860 l 403 994 z "},"š":{"ha":703,"x_min":60,"x_max":642,"o":"m 515 200 q 501 244 515 226 q 457 274 486 261 q 383 297 428 286 q 278 321 338 308 q 120 399 165 344 q 75 528 75 454 q 92 607 75 569 q 142 674 108 644 q 226 719 175 703 q 344 736 276 736 q 463 721 413 736 q 549 682 514 706 q 601 631 583 658 q 621 579 619 604 q 610 553 622 564 q 583 542 599 542 l 538 542 q 517 545 529 542 q 496 561 506 549 q 442 601 478 585 q 344 617 407 617 q 241 593 281 617 q 201 528 201 569 q 213 485 201 501 q 249 458 224 469 q 315 436 274 446 q 417 413 356 426 q 524 377 481 399 q 593 328 567 356 q 631 269 619 301 q 642 200 642 236 q 622 119 642 158 q 564 51 601 81 q 473 4 526 22 q 351 -14 419 -14 q 231 3 283 -14 q 140 44 178 19 q 83 97 103 68 q 61 150 63 125 q 71 176 60 165 q 99 188 82 188 l 149 188 q 168 185 157 188 q 189 169 179 183 q 250 122 211 139 q 351 106 289 106 q 412 113 382 106 q 465 132 442 119 q 501 162 488 144 q 515 200 515 179 m 336 826 q 310 832 321 826 q 285 853 299 838 l 157 981 q 150 999 150 988 q 172 1021 150 1021 l 201 1021 q 224 1017 215 1021 q 244 1006 232 1014 l 350 935 l 456 1006 q 476 1017 468 1014 q 499 1021 485 1021 l 528 1021 q 550 999 550 1021 q 543 981 550 988 l 415 853 q 390 832 401 838 q 364 826 379 826 l 336 826 z "},"ş":{"ha":701,"x_min":60,"x_max":642,"o":"m 515 200 q 501 244 515 226 q 457 274 486 261 q 383 297 428 286 q 278 321 338 308 q 120 399 165 344 q 75 528 75 454 q 92 607 75 569 q 142 674 108 644 q 226 719 175 703 q 344 736 276 736 q 463 721 413 736 q 549 682 514 706 q 601 631 583 658 q 621 579 619 604 q 610 553 622 564 q 583 542 599 542 l 538 542 q 517 545 529 542 q 496 561 506 549 q 442 601 478 585 q 344 617 407 617 q 241 593 281 617 q 201 528 201 569 q 213 485 201 501 q 249 458 224 469 q 315 436 274 446 q 417 413 356 426 q 524 377 481 399 q 593 328 567 356 q 631 269 619 301 q 642 200 642 236 q 622 122 642 160 q 567 54 603 83 q 479 6 531 25 q 363 -14 428 -12 l 333 -78 q 382 -67 351 -67 q 458 -100 428 -67 q 488 -183 488 -133 q 456 -269 488 -233 q 350 -306 424 -306 q 302 -298 325 -306 q 263 -279 279 -290 q 240 -256 246 -268 q 243 -235 233 -244 l 263 -217 q 281 -208 274 -207 q 298 -216 289 -210 q 319 -228 307 -222 q 350 -235 331 -235 q 410 -186 410 -235 q 350 -137 410 -137 q 322 -141 333 -137 q 303 -147 311 -144 q 290 -149 296 -150 q 275 -140 283 -149 l 251 -115 q 247 -96 244 -107 q 254 -74 250 -85 l 282 -8 q 190 17 231 -1 q 121 57 149 35 q 78 104 93 79 q 61 150 63 129 q 71 176 60 165 q 99 188 82 188 l 149 188 q 168 185 157 188 q 189 169 179 183 q 250 122 211 139 q 351 106 289 106 q 412 113 382 106 q 465 132 442 119 q 501 162 488 144 q 515 200 515 179 z "},"ŝ":{"ha":703,"x_min":60,"x_max":642,"o":"m 515 200 q 501 244 515 226 q 457 274 486 261 q 383 297 428 286 q 278 321 338 308 q 120 399 165 344 q 75 528 75 454 q 92 607 75 569 q 142 674 108 644 q 226 719 175 703 q 344 736 276 736 q 463 721 413 736 q 549 682 514 706 q 601 631 583 658 q 621 579 619 604 q 610 553 622 564 q 583 542 599 542 l 538 542 q 517 545 529 542 q 496 561 506 549 q 442 601 478 585 q 344 617 407 617 q 241 593 281 617 q 201 528 201 569 q 213 485 201 501 q 249 458 224 469 q 315 436 274 446 q 417 413 356 426 q 524 377 481 399 q 593 328 567 356 q 631 269 619 301 q 642 200 642 236 q 622 119 642 158 q 564 51 601 81 q 473 4 526 22 q 351 -14 419 -14 q 231 3 283 -14 q 140 44 178 19 q 83 97 103 68 q 61 150 63 125 q 71 176 60 165 q 99 188 82 188 l 149 188 q 168 185 157 188 q 189 169 179 183 q 250 122 211 139 q 351 106 289 106 q 412 113 382 106 q 465 132 442 119 q 501 162 488 144 q 515 200 515 179 m 364 1021 q 390 1015 379 1021 q 415 994 401 1010 l 543 867 q 550 849 550 860 q 528 826 550 826 l 499 826 q 476 830 485 826 q 456 842 468 833 l 350 913 l 244 842 q 224 830 232 833 q 201 826 215 826 l 172 826 q 150 849 150 826 q 157 867 150 860 l 285 994 q 310 1015 299 1010 q 336 1021 321 1021 l 364 1021 z "},"ș":{"ha":703,"x_min":60,"x_max":642,"o":"m 515 200 q 501 244 515 226 q 457 274 486 261 q 383 297 428 286 q 278 321 338 308 q 120 399 165 344 q 75 528 75 454 q 92 607 75 569 q 142 674 108 644 q 226 719 175 703 q 344 736 276 736 q 463 721 413 736 q 549 682 514 706 q 601 631 583 658 q 621 579 619 604 q 610 553 622 564 q 583 542 599 542 l 538 542 q 517 545 529 542 q 496 561 506 549 q 442 601 478 585 q 344 617 407 617 q 241 593 281 617 q 201 528 201 569 q 213 485 201 501 q 249 458 224 469 q 315 436 274 446 q 417 413 356 426 q 524 377 481 399 q 593 328 567 356 q 631 269 619 301 q 642 200 642 236 q 622 119 642 158 q 564 51 601 81 q 473 4 526 22 q 351 -14 419 -14 q 231 3 283 -14 q 140 44 178 19 q 83 97 103 68 q 61 150 63 125 q 71 176 60 165 q 99 188 82 188 l 149 188 q 168 185 157 188 q 189 169 179 183 q 250 122 211 139 q 351 106 289 106 q 412 113 382 106 q 465 132 442 119 q 501 162 488 144 q 515 200 515 179 m 257 -124 q 274 -87 260 -104 q 317 -69 289 -69 l 389 -69 q 410 -78 401 -69 q 419 -100 419 -87 q 418 -110 419 -106 l 343 -303 q 324 -332 338 -317 q 283 -347 311 -347 l 258 -347 q 237 -338 246 -347 q 228 -317 228 -329 l 228 -314 l 257 -124 z "},"t":{"ha":556,"x_min":26,"x_max":521,"o":"m 293 243 q 298 194 293 217 q 315 154 303 171 q 351 128 328 138 q 410 119 374 119 l 483 119 q 510 108 499 119 q 521 82 521 97 l 521 38 q 510 11 521 22 q 483 0 499 0 l 396 0 q 221 63 275 0 q 167 243 167 125 l 167 603 l 64 603 q 38 614 49 603 q 26 640 26 625 l 26 685 q 38 711 26 700 q 64 722 49 722 l 167 722 l 167 949 q 178 975 167 964 q 204 986 189 986 l 256 986 q 282 975 271 986 q 293 949 293 964 l 293 722 l 469 722 q 496 711 485 722 q 507 685 507 700 l 507 640 q 496 614 507 625 q 469 603 485 603 l 293 603 l 293 243 z "},"ŧ":{"ha":564,"x_min":32,"x_max":526,"o":"m 299 519 l 475 519 q 501 508 490 519 q 513 482 513 497 l 513 438 q 501 411 513 422 q 475 400 490 400 l 299 400 l 299 243 q 303 194 299 217 q 321 154 308 171 q 356 128 333 138 q 415 119 379 119 l 489 119 q 515 108 504 119 q 526 82 526 97 l 526 38 q 515 11 526 22 q 489 0 504 0 l 401 0 q 226 63 281 0 q 172 243 172 125 l 172 400 l 69 400 q 43 411 54 400 q 32 438 32 422 l 32 482 q 43 508 32 497 q 69 519 54 519 l 172 519 l 172 603 l 69 603 q 43 614 54 603 q 32 640 32 625 l 32 685 q 43 711 32 700 q 69 722 54 722 l 172 722 l 172 949 q 183 975 172 964 q 210 986 194 986 l 261 986 q 288 975 276 986 q 299 949 299 964 l 299 722 l 475 722 q 501 711 490 722 q 513 685 513 700 l 513 640 q 501 614 513 625 q 475 603 490 603 l 299 603 l 299 519 z "},"ť":{"ha":600,"x_min":26,"x_max":726,"o":"m 293 243 q 298 194 293 217 q 315 154 303 171 q 351 128 328 138 q 410 119 374 119 l 483 119 q 510 108 499 119 q 521 82 521 97 l 521 38 q 510 11 521 22 q 483 0 499 0 l 396 0 q 221 63 275 0 q 167 243 167 125 l 167 603 l 64 603 q 38 614 49 603 q 26 640 26 625 l 26 685 q 38 711 26 700 q 64 722 49 722 l 167 722 l 167 949 q 178 975 167 964 q 204 986 189 986 l 256 986 q 282 975 271 986 q 293 949 293 964 l 293 722 l 469 722 q 496 711 485 722 q 507 685 507 700 l 507 640 q 496 614 507 625 q 469 603 485 603 l 293 603 l 293 243 m 564 932 q 581 969 567 951 q 624 986 596 986 l 696 986 q 717 977 708 986 q 726 956 726 968 q 725 946 726 950 l 650 753 q 631 724 644 739 q 590 708 618 708 l 565 708 q 544 717 553 708 q 535 739 535 726 l 535 742 l 564 932 z "},"ţ":{"ha":556,"x_min":26,"x_max":521,"o":"m 293 243 q 298 194 293 217 q 315 154 303 171 q 351 128 328 138 q 410 119 374 119 l 483 119 q 510 108 499 119 q 521 82 521 97 l 521 38 q 510 11 521 22 q 483 0 499 0 l 396 0 q 221 63 275 0 q 167 243 167 125 l 167 603 l 64 603 q 38 614 49 603 q 26 640 26 625 l 26 685 q 38 711 26 700 q 64 722 49 722 l 167 722 l 167 949 q 178 975 167 964 q 204 986 189 986 l 256 986 q 282 975 271 986 q 293 949 293 964 l 293 722 l 469 722 q 496 711 485 722 q 507 685 507 700 l 507 640 q 496 614 507 625 q 469 603 485 603 l 293 603 l 293 243 m 168 -124 q 185 -87 171 -104 q 228 -69 200 -69 l 300 -69 q 322 -78 313 -69 q 331 -100 331 -87 q 329 -110 331 -106 l 254 -303 q 235 -332 249 -317 q 194 -347 222 -347 l 169 -347 q 148 -338 157 -347 q 139 -317 139 -329 l 139 -314 l 168 -124 z "},"u":{"ha":829,"x_min":97,"x_max":725,"o":"m 97 685 q 108 711 97 700 q 135 722 119 722 l 186 722 q 213 711 201 722 q 224 685 224 700 l 224 318 q 272 158 224 211 q 411 106 319 106 q 549 158 499 106 q 599 318 599 211 l 599 685 q 610 711 599 700 q 636 722 621 722 l 688 722 q 714 711 703 722 q 725 685 725 700 l 725 38 q 714 11 725 22 q 688 0 703 0 l 636 0 q 610 11 621 0 q 599 38 599 22 l 599 81 q 524 16 572 46 q 390 -14 475 -14 q 271 8 325 -14 q 178 69 217 29 q 118 166 139 108 q 97 297 97 224 l 97 685 z "},"ú":{"ha":829,"x_min":97,"x_max":725,"o":"m 97 685 q 108 711 97 700 q 135 722 119 722 l 186 722 q 213 711 201 722 q 224 685 224 700 l 224 318 q 272 158 224 211 q 411 106 319 106 q 549 158 499 106 q 599 318 599 211 l 599 685 q 610 711 599 700 q 636 722 621 722 l 688 722 q 714 711 703 722 q 725 685 725 700 l 725 38 q 714 11 725 22 q 688 0 703 0 l 636 0 q 610 11 621 0 q 599 38 599 22 l 599 81 q 524 16 572 46 q 390 -14 475 -14 q 271 8 325 -14 q 178 69 217 29 q 118 166 139 108 q 97 297 97 224 l 97 685 m 447 994 q 473 1017 463 1013 q 499 1021 483 1021 l 601 1021 q 628 993 628 1021 q 621 976 628 983 l 467 850 q 443 833 456 840 q 408 826 431 826 l 357 826 q 335 849 335 826 q 342 867 335 860 l 447 994 z "},"ŭ":{"ha":829,"x_min":97,"x_max":725,"o":"m 97 685 q 108 711 97 700 q 135 722 119 722 l 186 722 q 213 711 201 722 q 224 685 224 700 l 224 318 q 272 158 224 211 q 411 106 319 106 q 549 158 499 106 q 599 318 599 211 l 599 685 q 610 711 599 700 q 636 722 621 722 l 688 722 q 714 711 703 722 q 725 685 725 700 l 725 38 q 714 11 725 22 q 688 0 703 0 l 636 0 q 610 11 621 0 q 599 38 599 22 l 599 81 q 524 16 572 46 q 390 -14 475 -14 q 271 8 325 -14 q 178 69 217 29 q 118 166 139 108 q 97 297 97 224 l 97 685 m 411 819 q 334 835 367 819 q 281 875 301 850 q 249 931 260 900 q 239 994 239 963 q 246 1013 239 1006 q 265 1021 253 1021 l 310 1021 q 329 1013 322 1021 q 336 994 336 1006 q 356 935 336 958 q 411 911 375 911 q 467 935 447 911 q 486 994 486 958 q 493 1013 486 1006 q 513 1021 500 1021 l 557 1021 q 576 1013 569 1021 q 583 994 583 1006 q 573 931 583 963 q 542 875 563 900 q 488 835 521 850 q 411 819 456 819 z "},"û":{"ha":829,"x_min":97,"x_max":725,"o":"m 97 685 q 108 711 97 700 q 135 722 119 722 l 186 722 q 213 711 201 722 q 224 685 224 700 l 224 318 q 272 158 224 211 q 411 106 319 106 q 549 158 499 106 q 599 318 599 211 l 599 685 q 610 711 599 700 q 636 722 621 722 l 688 722 q 714 711 703 722 q 725 685 725 700 l 725 38 q 714 11 725 22 q 688 0 703 0 l 636 0 q 610 11 621 0 q 599 38 599 22 l 599 81 q 524 16 572 46 q 390 -14 475 -14 q 271 8 325 -14 q 178 69 217 29 q 118 166 139 108 q 97 297 97 224 l 97 685 m 425 1021 q 451 1015 440 1021 q 476 994 463 1010 l 604 867 q 611 849 611 860 q 589 826 611 826 l 560 826 q 538 830 546 826 q 517 842 529 833 l 411 913 l 306 842 q 285 830 293 833 q 263 826 276 826 l 233 826 q 211 849 211 826 q 218 867 211 860 l 346 994 q 371 1015 360 1010 q 397 1021 382 1021 l 425 1021 z "},"ü":{"ha":829,"x_min":97,"x_max":725,"o":"m 97 685 q 108 711 97 700 q 135 722 119 722 l 186 722 q 213 711 201 722 q 224 685 224 700 l 224 318 q 272 158 224 211 q 411 106 319 106 q 549 158 499 106 q 599 318 599 211 l 599 685 q 610 711 599 700 q 636 722 621 722 l 688 722 q 714 711 703 722 q 725 685 725 700 l 725 38 q 714 11 725 22 q 688 0 703 0 l 636 0 q 610 11 621 0 q 599 38 599 22 l 599 81 q 524 16 572 46 q 390 -14 475 -14 q 271 8 325 -14 q 178 69 217 29 q 118 166 139 108 q 97 297 97 224 l 97 685 m 363 871 q 351 844 363 856 q 325 833 340 833 l 246 833 q 219 844 231 833 q 208 871 208 856 l 208 950 q 219 976 208 965 q 246 988 231 988 l 325 988 q 351 976 340 988 q 363 950 363 965 l 363 871 m 614 871 q 603 844 614 856 q 576 833 592 833 l 497 833 q 471 844 482 833 q 460 871 460 856 l 460 950 q 471 976 460 965 q 497 988 482 988 l 576 988 q 603 976 592 988 q 614 950 614 965 l 614 871 z "},"ű":{"ha":829,"x_min":97,"x_max":725,"o":"m 97 685 q 108 711 97 700 q 135 722 119 722 l 186 722 q 213 711 201 722 q 224 685 224 700 l 224 318 q 272 158 224 211 q 411 106 319 106 q 549 158 499 106 q 599 318 599 211 l 599 685 q 610 711 599 700 q 636 722 621 722 l 688 722 q 714 711 703 722 q 725 685 725 700 l 725 38 q 714 11 725 22 q 688 0 703 0 l 636 0 q 610 11 621 0 q 599 38 599 22 l 599 81 q 524 16 572 46 q 390 -14 475 -14 q 271 8 325 -14 q 178 69 217 29 q 118 166 139 108 q 97 297 97 224 l 97 685 m 290 994 q 308 1015 297 1008 q 342 1021 319 1021 l 438 1021 q 465 994 465 1021 q 457 976 465 985 l 336 846 q 289 826 319 826 l 250 826 q 228 849 228 826 q 230 860 228 854 q 235 869 232 865 l 290 994 m 536 994 q 554 1015 543 1008 q 588 1021 565 1021 l 683 1021 q 711 994 711 1021 q 703 976 711 985 l 582 846 q 535 826 565 826 l 496 826 q 474 849 474 826 q 476 860 474 854 q 481 869 478 865 l 536 994 z "},"ù":{"ha":829,"x_min":97,"x_max":725,"o":"m 97 685 q 108 711 97 700 q 135 722 119 722 l 186 722 q 213 711 201 722 q 224 685 224 700 l 224 318 q 272 158 224 211 q 411 106 319 106 q 549 158 499 106 q 599 318 599 211 l 599 685 q 610 711 599 700 q 636 722 621 722 l 688 722 q 714 711 703 722 q 725 685 725 700 l 725 38 q 714 11 725 22 q 688 0 703 0 l 636 0 q 610 11 621 0 q 599 38 599 22 l 599 81 q 524 16 572 46 q 390 -14 475 -14 q 271 8 325 -14 q 178 69 217 29 q 118 166 139 108 q 97 297 97 224 l 97 685 m 472 867 q 479 849 479 860 q 457 826 479 826 l 406 826 q 371 833 383 826 q 347 850 358 840 l 193 976 q 186 993 186 983 q 213 1021 186 1021 l 315 1021 q 341 1017 331 1021 q 367 994 351 1013 l 472 867 z "},"ū":{"ha":829,"x_min":97,"x_max":725,"o":"m 97 685 q 108 711 97 700 q 135 722 119 722 l 186 722 q 213 711 201 722 q 224 685 224 700 l 224 318 q 272 158 224 211 q 411 106 319 106 q 549 158 499 106 q 599 318 599 211 l 599 685 q 610 711 599 700 q 636 722 621 722 l 688 722 q 714 711 703 722 q 725 685 725 700 l 725 38 q 714 11 725 22 q 688 0 703 0 l 636 0 q 610 11 621 0 q 599 38 599 22 l 599 81 q 524 16 572 46 q 390 -14 475 -14 q 271 8 325 -14 q 178 69 217 29 q 118 166 139 108 q 97 297 97 224 l 97 685 m 260 840 q 233 851 244 840 q 222 878 222 863 l 222 922 q 233 949 222 938 q 260 960 244 960 l 564 960 q 590 949 579 960 q 601 922 601 938 l 601 878 q 590 851 601 863 q 564 840 579 840 l 260 840 z "},"ų":{"ha":829,"x_min":97,"x_max":725,"o":"m 97 685 q 108 711 97 700 q 135 722 119 722 l 186 722 q 213 711 201 722 q 224 685 224 700 l 224 318 q 272 158 224 211 q 411 106 319 106 q 549 158 499 106 q 599 318 599 211 l 599 685 q 610 711 599 700 q 636 722 621 722 l 688 722 q 714 711 703 722 q 725 685 725 700 l 725 28 q 713 0 725 13 q 680 -24 697 -14 q 648 -47 663 -35 q 623 -75 633 -58 q 613 -117 613 -92 q 686 -206 613 -206 l 694 -206 q 725 -236 725 -206 l 725 -275 q 694 -306 725 -306 l 681 -306 q 548 -256 596 -306 q 500 -117 500 -206 q 510 -63 500 -87 q 534 -19 519 -39 q 566 15 549 0 q 599 40 583 29 l 599 81 q 524 16 572 46 q 390 -14 475 -14 q 271 8 325 -14 q 178 69 217 29 q 118 166 139 108 q 97 297 97 224 l 97 685 z "},"ů":{"ha":829,"x_min":97,"x_max":725,"o":"m 97 685 q 108 711 97 700 q 135 722 119 722 l 186 722 q 213 711 201 722 q 224 685 224 700 l 224 318 q 272 158 224 211 q 411 106 319 106 q 549 158 499 106 q 599 318 599 211 l 599 685 q 610 711 599 700 q 636 722 621 722 l 688 722 q 714 711 703 722 q 725 685 725 700 l 725 38 q 714 11 725 22 q 688 0 703 0 l 636 0 q 610 11 621 0 q 599 38 599 22 l 599 81 q 524 16 572 46 q 390 -14 475 -14 q 271 8 325 -14 q 178 69 217 29 q 118 166 139 108 q 97 297 97 224 l 97 685 m 369 931 q 381 901 369 913 q 411 889 393 889 q 441 901 429 889 q 453 931 453 913 q 441 960 453 949 q 411 972 429 972 q 381 960 393 972 q 369 931 369 949 m 293 931 q 328 1010 293 979 q 411 1042 363 1042 q 494 1010 460 1042 q 529 931 529 979 q 494 851 529 882 q 411 819 460 819 q 328 851 363 819 q 293 931 293 882 z "},"ũ":{"ha":829,"x_min":97,"x_max":725,"o":"m 97 685 q 108 711 97 700 q 135 722 119 722 l 186 722 q 213 711 201 722 q 224 685 224 700 l 224 318 q 272 158 224 211 q 411 106 319 106 q 549 158 499 106 q 599 318 599 211 l 599 685 q 610 711 599 700 q 636 722 621 722 l 688 722 q 714 711 703 722 q 725 685 725 700 l 725 38 q 714 11 725 22 q 688 0 703 0 l 636 0 q 610 11 621 0 q 599 38 599 22 l 599 81 q 524 16 572 46 q 390 -14 475 -14 q 271 8 325 -14 q 178 69 217 29 q 118 166 139 108 q 97 297 97 224 l 97 685 m 496 819 q 444 826 465 819 q 407 842 424 833 q 376 857 390 850 q 346 864 363 864 q 322 858 329 864 q 311 845 315 853 q 302 832 307 838 q 286 826 297 826 l 235 826 q 215 834 222 826 q 208 853 208 842 q 215 891 208 868 q 235 935 221 914 q 273 971 250 956 q 328 986 296 986 q 379 979 358 986 q 415 964 400 972 q 445 949 431 956 q 478 942 460 942 q 501 947 494 942 q 513 960 508 953 q 522 974 517 968 q 538 979 526 979 l 589 979 q 608 972 601 979 q 615 953 615 964 q 609 915 615 938 q 588 871 603 892 q 551 835 574 850 q 496 819 528 819 z "},"v":{"ha":778,"x_min":43,"x_max":735,"o":"m 364 0 q 336 11 346 0 q 321 35 326 22 l 44 679 q 43 689 43 683 q 53 713 43 703 q 76 722 63 722 l 128 722 q 159 711 149 722 q 174 689 169 700 l 389 185 l 604 689 q 618 711 608 700 q 644 722 628 722 l 701 722 q 725 713 715 722 q 735 689 735 703 q 733 679 735 683 l 457 35 q 442 11 451 22 q 415 0 433 0 l 364 0 z "}}}
